M48
; DRILL file {KiCad (5.1.5)-3} date 2020-04-26 2:17:33 PM
; FORMAT={-:-/ absolute / inch / decimal}
; #@! TF.CreationDate,2020-04-26T14:17:33-06:00
; #@! TF.GenerationSoftware,Kicad,Pcbnew,(5.1.5)-3
FMAT,2
INCH
T1C0.0157
T2C0.0394
%
G90
G05
T1
X6.1732Y-4.685
X6.2733Y-4.6066
X6.283Y-4.1255
X6.3465Y-4.685
X6.3701Y-4.1417
X6.4232Y-4.6043
X6.4281Y-4.1132
X6.5039Y-4.3937
X6.5197Y-4.8947
X6.5748Y-4.8661
X6.5748Y-4.9232
X6.5839Y-4.7331
X6.7756Y-4.7972
X7.063Y-4.5118
X7.4665Y-4.7362
X7.5428Y-4.1895
X7.5827Y-4.189
X7.5984Y-4.2756
X7.6063Y-4.1417
X7.6535Y-4.1811
X7.6535Y-4.378
X7.7205Y-4.4094
X7.7205Y-4.7559
X7.7638Y-4.4354
X7.7795Y-4.1496
X7.7795Y-4.2362
X7.8504Y-4.1811
X7.8583Y-4.685
X7.8814Y-4.1186
X7.9528Y-4.1496
X8.0276Y-4.7205
T2
X6.2205Y-4.7819
X6.2205Y-4.8819
X6.3205Y-4.7819
X6.3205Y-4.8819
X6.4205Y-4.7819
X6.4205Y-4.8819
T0
M30
