G04 #@! TF.GenerationSoftware,KiCad,Pcbnew,(5.1.5)-3*
G04 #@! TF.CreationDate,2020-04-26T14:17:37-06:00*
G04 #@! TF.ProjectId,Dog Collar Light R1,446f6720-436f-46c6-9c61-72204c696768,rev?*
G04 #@! TF.SameCoordinates,Original*
G04 #@! TF.FileFunction,Soldermask,Top*
G04 #@! TF.FilePolarity,Negative*
%FSLAX46Y46*%
G04 Gerber Fmt 4.6, Leading zero omitted, Abs format (unit mm)*
G04 Created by KiCad (PCBNEW (5.1.5)-3) date 2020-04-26 14:17:37*
%MOMM*%
%LPD*%
G04 APERTURE LIST*
%ADD10C,0.100000*%
G04 APERTURE END LIST*
D10*
G36*
X158901000Y-124901000D02*
G01*
X157099000Y-124901000D01*
X157099000Y-123099000D01*
X158901000Y-123099000D01*
X158901000Y-124901000D01*
G37*
G36*
X160653512Y-123103927D02*
G01*
X160802812Y-123133624D01*
X160966784Y-123201544D01*
X161114354Y-123300147D01*
X161239853Y-123425646D01*
X161338456Y-123573216D01*
X161406376Y-123737188D01*
X161441000Y-123911259D01*
X161441000Y-124088741D01*
X161406376Y-124262812D01*
X161338456Y-124426784D01*
X161239853Y-124574354D01*
X161114354Y-124699853D01*
X160966784Y-124798456D01*
X160802812Y-124866376D01*
X160653512Y-124896073D01*
X160628742Y-124901000D01*
X160451258Y-124901000D01*
X160426488Y-124896073D01*
X160277188Y-124866376D01*
X160113216Y-124798456D01*
X159965646Y-124699853D01*
X159840147Y-124574354D01*
X159741544Y-124426784D01*
X159673624Y-124262812D01*
X159639000Y-124088741D01*
X159639000Y-123911259D01*
X159673624Y-123737188D01*
X159741544Y-123573216D01*
X159840147Y-123425646D01*
X159965646Y-123300147D01*
X160113216Y-123201544D01*
X160277188Y-123133624D01*
X160426488Y-123103927D01*
X160451258Y-123099000D01*
X160628742Y-123099000D01*
X160653512Y-123103927D01*
G37*
G36*
X163193512Y-123103927D02*
G01*
X163342812Y-123133624D01*
X163506784Y-123201544D01*
X163654354Y-123300147D01*
X163779853Y-123425646D01*
X163878456Y-123573216D01*
X163946376Y-123737188D01*
X163981000Y-123911259D01*
X163981000Y-124088741D01*
X163946376Y-124262812D01*
X163878456Y-124426784D01*
X163779853Y-124574354D01*
X163654354Y-124699853D01*
X163506784Y-124798456D01*
X163342812Y-124866376D01*
X163193512Y-124896073D01*
X163168742Y-124901000D01*
X162991258Y-124901000D01*
X162966488Y-124896073D01*
X162817188Y-124866376D01*
X162653216Y-124798456D01*
X162505646Y-124699853D01*
X162380147Y-124574354D01*
X162281544Y-124426784D01*
X162213624Y-124262812D01*
X162179000Y-124088741D01*
X162179000Y-123911259D01*
X162213624Y-123737188D01*
X162281544Y-123573216D01*
X162380147Y-123425646D01*
X162505646Y-123300147D01*
X162653216Y-123201544D01*
X162817188Y-123133624D01*
X162966488Y-123103927D01*
X162991258Y-123099000D01*
X163168742Y-123099000D01*
X163193512Y-123103927D01*
G37*
G36*
X193729928Y-121651764D02*
G01*
X193751009Y-121658160D01*
X193770445Y-121668548D01*
X193787476Y-121682524D01*
X193801452Y-121699555D01*
X193811840Y-121718991D01*
X193818236Y-121740072D01*
X193821000Y-121768140D01*
X193821000Y-123581860D01*
X193818236Y-123609928D01*
X193811840Y-123631009D01*
X193801452Y-123650445D01*
X193787476Y-123667476D01*
X193770445Y-123681452D01*
X193751009Y-123691840D01*
X193729928Y-123698236D01*
X193701860Y-123701000D01*
X193238140Y-123701000D01*
X193210072Y-123698236D01*
X193188991Y-123691840D01*
X193169555Y-123681452D01*
X193152524Y-123667476D01*
X193138548Y-123650445D01*
X193128160Y-123631009D01*
X193121764Y-123609928D01*
X193119000Y-123581860D01*
X193119000Y-121768140D01*
X193121764Y-121740072D01*
X193128160Y-121718991D01*
X193138548Y-121699555D01*
X193152524Y-121682524D01*
X193169555Y-121668548D01*
X193188991Y-121658160D01*
X193210072Y-121651764D01*
X193238140Y-121649000D01*
X193701860Y-121649000D01*
X193729928Y-121651764D01*
G37*
G36*
X188649928Y-121651764D02*
G01*
X188671009Y-121658160D01*
X188690445Y-121668548D01*
X188707476Y-121682524D01*
X188721452Y-121699555D01*
X188731840Y-121718991D01*
X188738236Y-121740072D01*
X188741000Y-121768140D01*
X188741000Y-123581860D01*
X188738236Y-123609928D01*
X188731840Y-123631009D01*
X188721452Y-123650445D01*
X188707476Y-123667476D01*
X188690445Y-123681452D01*
X188671009Y-123691840D01*
X188649928Y-123698236D01*
X188621860Y-123701000D01*
X188158140Y-123701000D01*
X188130072Y-123698236D01*
X188108991Y-123691840D01*
X188089555Y-123681452D01*
X188072524Y-123667476D01*
X188058548Y-123650445D01*
X188048160Y-123631009D01*
X188041764Y-123609928D01*
X188039000Y-123581860D01*
X188039000Y-121768140D01*
X188041764Y-121740072D01*
X188048160Y-121718991D01*
X188058548Y-121699555D01*
X188072524Y-121682524D01*
X188089555Y-121668548D01*
X188108991Y-121658160D01*
X188130072Y-121651764D01*
X188158140Y-121649000D01*
X188621860Y-121649000D01*
X188649928Y-121651764D01*
G37*
G36*
X189919928Y-121651764D02*
G01*
X189941009Y-121658160D01*
X189960445Y-121668548D01*
X189977476Y-121682524D01*
X189991452Y-121699555D01*
X190001840Y-121718991D01*
X190008236Y-121740072D01*
X190011000Y-121768140D01*
X190011000Y-123581860D01*
X190008236Y-123609928D01*
X190001840Y-123631009D01*
X189991452Y-123650445D01*
X189977476Y-123667476D01*
X189960445Y-123681452D01*
X189941009Y-123691840D01*
X189919928Y-123698236D01*
X189891860Y-123701000D01*
X189428140Y-123701000D01*
X189400072Y-123698236D01*
X189378991Y-123691840D01*
X189359555Y-123681452D01*
X189342524Y-123667476D01*
X189328548Y-123650445D01*
X189318160Y-123631009D01*
X189311764Y-123609928D01*
X189309000Y-123581860D01*
X189309000Y-121768140D01*
X189311764Y-121740072D01*
X189318160Y-121718991D01*
X189328548Y-121699555D01*
X189342524Y-121682524D01*
X189359555Y-121668548D01*
X189378991Y-121658160D01*
X189400072Y-121651764D01*
X189428140Y-121649000D01*
X189891860Y-121649000D01*
X189919928Y-121651764D01*
G37*
G36*
X191189928Y-121651764D02*
G01*
X191211009Y-121658160D01*
X191230445Y-121668548D01*
X191247476Y-121682524D01*
X191261452Y-121699555D01*
X191271840Y-121718991D01*
X191278236Y-121740072D01*
X191281000Y-121768140D01*
X191281000Y-123581860D01*
X191278236Y-123609928D01*
X191271840Y-123631009D01*
X191261452Y-123650445D01*
X191247476Y-123667476D01*
X191230445Y-123681452D01*
X191211009Y-123691840D01*
X191189928Y-123698236D01*
X191161860Y-123701000D01*
X190698140Y-123701000D01*
X190670072Y-123698236D01*
X190648991Y-123691840D01*
X190629555Y-123681452D01*
X190612524Y-123667476D01*
X190598548Y-123650445D01*
X190588160Y-123631009D01*
X190581764Y-123609928D01*
X190579000Y-123581860D01*
X190579000Y-121768140D01*
X190581764Y-121740072D01*
X190588160Y-121718991D01*
X190598548Y-121699555D01*
X190612524Y-121682524D01*
X190629555Y-121668548D01*
X190648991Y-121658160D01*
X190670072Y-121651764D01*
X190698140Y-121649000D01*
X191161860Y-121649000D01*
X191189928Y-121651764D01*
G37*
G36*
X192459928Y-121651764D02*
G01*
X192481009Y-121658160D01*
X192500445Y-121668548D01*
X192517476Y-121682524D01*
X192531452Y-121699555D01*
X192541840Y-121718991D01*
X192548236Y-121740072D01*
X192551000Y-121768140D01*
X192551000Y-123581860D01*
X192548236Y-123609928D01*
X192541840Y-123631009D01*
X192531452Y-123650445D01*
X192517476Y-123667476D01*
X192500445Y-123681452D01*
X192481009Y-123691840D01*
X192459928Y-123698236D01*
X192431860Y-123701000D01*
X191968140Y-123701000D01*
X191940072Y-123698236D01*
X191918991Y-123691840D01*
X191899555Y-123681452D01*
X191882524Y-123667476D01*
X191868548Y-123650445D01*
X191858160Y-123631009D01*
X191851764Y-123609928D01*
X191849000Y-123581860D01*
X191849000Y-121768140D01*
X191851764Y-121740072D01*
X191858160Y-121718991D01*
X191868548Y-121699555D01*
X191882524Y-121682524D01*
X191899555Y-121668548D01*
X191918991Y-121658160D01*
X191940072Y-121651764D01*
X191968140Y-121649000D01*
X192431860Y-121649000D01*
X192459928Y-121651764D01*
G37*
G36*
X194999928Y-121651764D02*
G01*
X195021009Y-121658160D01*
X195040445Y-121668548D01*
X195057476Y-121682524D01*
X195071452Y-121699555D01*
X195081840Y-121718991D01*
X195088236Y-121740072D01*
X195091000Y-121768140D01*
X195091000Y-123581860D01*
X195088236Y-123609928D01*
X195081840Y-123631009D01*
X195071452Y-123650445D01*
X195057476Y-123667476D01*
X195040445Y-123681452D01*
X195021009Y-123691840D01*
X194999928Y-123698236D01*
X194971860Y-123701000D01*
X194508140Y-123701000D01*
X194480072Y-123698236D01*
X194458991Y-123691840D01*
X194439555Y-123681452D01*
X194422524Y-123667476D01*
X194408548Y-123650445D01*
X194398160Y-123631009D01*
X194391764Y-123609928D01*
X194389000Y-123581860D01*
X194389000Y-121768140D01*
X194391764Y-121740072D01*
X194398160Y-121718991D01*
X194408548Y-121699555D01*
X194422524Y-121682524D01*
X194439555Y-121668548D01*
X194458991Y-121658160D01*
X194480072Y-121651764D01*
X194508140Y-121649000D01*
X194971860Y-121649000D01*
X194999928Y-121651764D01*
G37*
G36*
X196269928Y-121651764D02*
G01*
X196291009Y-121658160D01*
X196310445Y-121668548D01*
X196327476Y-121682524D01*
X196341452Y-121699555D01*
X196351840Y-121718991D01*
X196358236Y-121740072D01*
X196361000Y-121768140D01*
X196361000Y-123581860D01*
X196358236Y-123609928D01*
X196351840Y-123631009D01*
X196341452Y-123650445D01*
X196327476Y-123667476D01*
X196310445Y-123681452D01*
X196291009Y-123691840D01*
X196269928Y-123698236D01*
X196241860Y-123701000D01*
X195778140Y-123701000D01*
X195750072Y-123698236D01*
X195728991Y-123691840D01*
X195709555Y-123681452D01*
X195692524Y-123667476D01*
X195678548Y-123650445D01*
X195668160Y-123631009D01*
X195661764Y-123609928D01*
X195659000Y-123581860D01*
X195659000Y-121768140D01*
X195661764Y-121740072D01*
X195668160Y-121718991D01*
X195678548Y-121699555D01*
X195692524Y-121682524D01*
X195709555Y-121668548D01*
X195728991Y-121658160D01*
X195750072Y-121651764D01*
X195778140Y-121649000D01*
X196241860Y-121649000D01*
X196269928Y-121651764D01*
G37*
G36*
X176238674Y-122103465D02*
G01*
X176276367Y-122114899D01*
X176311103Y-122133466D01*
X176341548Y-122158452D01*
X176366534Y-122188897D01*
X176385101Y-122223633D01*
X176396535Y-122261326D01*
X176401000Y-122306661D01*
X176401000Y-123143339D01*
X176396535Y-123188674D01*
X176385101Y-123226367D01*
X176366534Y-123261103D01*
X176341548Y-123291548D01*
X176311103Y-123316534D01*
X176276367Y-123335101D01*
X176238674Y-123346535D01*
X176193339Y-123351000D01*
X175106661Y-123351000D01*
X175061326Y-123346535D01*
X175023633Y-123335101D01*
X174988897Y-123316534D01*
X174958452Y-123291548D01*
X174933466Y-123261103D01*
X174914899Y-123226367D01*
X174903465Y-123188674D01*
X174899000Y-123143339D01*
X174899000Y-122306661D01*
X174903465Y-122261326D01*
X174914899Y-122223633D01*
X174933466Y-122188897D01*
X174958452Y-122158452D01*
X174988897Y-122133466D01*
X175023633Y-122114899D01*
X175061326Y-122103465D01*
X175106661Y-122099000D01*
X176193339Y-122099000D01*
X176238674Y-122103465D01*
G37*
G36*
X183238674Y-121853465D02*
G01*
X183276367Y-121864899D01*
X183311103Y-121883466D01*
X183341548Y-121908452D01*
X183366534Y-121938897D01*
X183385101Y-121973633D01*
X183396535Y-122011326D01*
X183401000Y-122056661D01*
X183401000Y-123143339D01*
X183396535Y-123188674D01*
X183385101Y-123226367D01*
X183366534Y-123261103D01*
X183341548Y-123291548D01*
X183311103Y-123316534D01*
X183276367Y-123335101D01*
X183238674Y-123346535D01*
X183193339Y-123351000D01*
X182356661Y-123351000D01*
X182311326Y-123346535D01*
X182273633Y-123335101D01*
X182238897Y-123316534D01*
X182208452Y-123291548D01*
X182183466Y-123261103D01*
X182164899Y-123226367D01*
X182153465Y-123188674D01*
X182149000Y-123143339D01*
X182149000Y-122056661D01*
X182153465Y-122011326D01*
X182164899Y-121973633D01*
X182183466Y-121938897D01*
X182208452Y-121908452D01*
X182238897Y-121883466D01*
X182273633Y-121864899D01*
X182311326Y-121853465D01*
X182356661Y-121849000D01*
X183193339Y-121849000D01*
X183238674Y-121853465D01*
G37*
G36*
X185288674Y-121853465D02*
G01*
X185326367Y-121864899D01*
X185361103Y-121883466D01*
X185391548Y-121908452D01*
X185416534Y-121938897D01*
X185435101Y-121973633D01*
X185446535Y-122011326D01*
X185451000Y-122056661D01*
X185451000Y-123143339D01*
X185446535Y-123188674D01*
X185435101Y-123226367D01*
X185416534Y-123261103D01*
X185391548Y-123291548D01*
X185361103Y-123316534D01*
X185326367Y-123335101D01*
X185288674Y-123346535D01*
X185243339Y-123351000D01*
X184406661Y-123351000D01*
X184361326Y-123346535D01*
X184323633Y-123335101D01*
X184288897Y-123316534D01*
X184258452Y-123291548D01*
X184233466Y-123261103D01*
X184214899Y-123226367D01*
X184203465Y-123188674D01*
X184199000Y-123143339D01*
X184199000Y-122056661D01*
X184203465Y-122011326D01*
X184214899Y-121973633D01*
X184233466Y-121938897D01*
X184258452Y-121908452D01*
X184288897Y-121883466D01*
X184323633Y-121864899D01*
X184361326Y-121853465D01*
X184406661Y-121849000D01*
X185243339Y-121849000D01*
X185288674Y-121853465D01*
G37*
G36*
X198588674Y-121203465D02*
G01*
X198626367Y-121214899D01*
X198661103Y-121233466D01*
X198691548Y-121258452D01*
X198716534Y-121288897D01*
X198735101Y-121323633D01*
X198746535Y-121361326D01*
X198751000Y-121406661D01*
X198751000Y-122243339D01*
X198746535Y-122288674D01*
X198735101Y-122326367D01*
X198716534Y-122361103D01*
X198691548Y-122391548D01*
X198661103Y-122416534D01*
X198626367Y-122435101D01*
X198588674Y-122446535D01*
X198543339Y-122451000D01*
X197456661Y-122451000D01*
X197411326Y-122446535D01*
X197373633Y-122435101D01*
X197338897Y-122416534D01*
X197308452Y-122391548D01*
X197283466Y-122361103D01*
X197264899Y-122326367D01*
X197253465Y-122288674D01*
X197249000Y-122243339D01*
X197249000Y-121406661D01*
X197253465Y-121361326D01*
X197264899Y-121323633D01*
X197283466Y-121288897D01*
X197308452Y-121258452D01*
X197338897Y-121233466D01*
X197373633Y-121214899D01*
X197411326Y-121203465D01*
X197456661Y-121199000D01*
X198543339Y-121199000D01*
X198588674Y-121203465D01*
G37*
G36*
X163193512Y-120563927D02*
G01*
X163342812Y-120593624D01*
X163506784Y-120661544D01*
X163654354Y-120760147D01*
X163779853Y-120885646D01*
X163878456Y-121033216D01*
X163946376Y-121197188D01*
X163981000Y-121371259D01*
X163981000Y-121548741D01*
X163946376Y-121722812D01*
X163878456Y-121886784D01*
X163779853Y-122034354D01*
X163654354Y-122159853D01*
X163506784Y-122258456D01*
X163342812Y-122326376D01*
X163193512Y-122356073D01*
X163168742Y-122361000D01*
X162991258Y-122361000D01*
X162966488Y-122356073D01*
X162817188Y-122326376D01*
X162653216Y-122258456D01*
X162505646Y-122159853D01*
X162380147Y-122034354D01*
X162281544Y-121886784D01*
X162213624Y-121722812D01*
X162179000Y-121548741D01*
X162179000Y-121371259D01*
X162213624Y-121197188D01*
X162281544Y-121033216D01*
X162380147Y-120885646D01*
X162505646Y-120760147D01*
X162653216Y-120661544D01*
X162817188Y-120593624D01*
X162966488Y-120563927D01*
X162991258Y-120559000D01*
X163168742Y-120559000D01*
X163193512Y-120563927D01*
G37*
G36*
X160653512Y-120563927D02*
G01*
X160802812Y-120593624D01*
X160966784Y-120661544D01*
X161114354Y-120760147D01*
X161239853Y-120885646D01*
X161338456Y-121033216D01*
X161406376Y-121197188D01*
X161441000Y-121371259D01*
X161441000Y-121548741D01*
X161406376Y-121722812D01*
X161338456Y-121886784D01*
X161239853Y-122034354D01*
X161114354Y-122159853D01*
X160966784Y-122258456D01*
X160802812Y-122326376D01*
X160653512Y-122356073D01*
X160628742Y-122361000D01*
X160451258Y-122361000D01*
X160426488Y-122356073D01*
X160277188Y-122326376D01*
X160113216Y-122258456D01*
X159965646Y-122159853D01*
X159840147Y-122034354D01*
X159741544Y-121886784D01*
X159673624Y-121722812D01*
X159639000Y-121548741D01*
X159639000Y-121371259D01*
X159673624Y-121197188D01*
X159741544Y-121033216D01*
X159840147Y-120885646D01*
X159965646Y-120760147D01*
X160113216Y-120661544D01*
X160277188Y-120593624D01*
X160426488Y-120563927D01*
X160451258Y-120559000D01*
X160628742Y-120559000D01*
X160653512Y-120563927D01*
G37*
G36*
X158113512Y-120563927D02*
G01*
X158262812Y-120593624D01*
X158426784Y-120661544D01*
X158574354Y-120760147D01*
X158699853Y-120885646D01*
X158798456Y-121033216D01*
X158866376Y-121197188D01*
X158901000Y-121371259D01*
X158901000Y-121548741D01*
X158866376Y-121722812D01*
X158798456Y-121886784D01*
X158699853Y-122034354D01*
X158574354Y-122159853D01*
X158426784Y-122258456D01*
X158262812Y-122326376D01*
X158113512Y-122356073D01*
X158088742Y-122361000D01*
X157911258Y-122361000D01*
X157886488Y-122356073D01*
X157737188Y-122326376D01*
X157573216Y-122258456D01*
X157425646Y-122159853D01*
X157300147Y-122034354D01*
X157201544Y-121886784D01*
X157133624Y-121722812D01*
X157099000Y-121548741D01*
X157099000Y-121371259D01*
X157133624Y-121197188D01*
X157201544Y-121033216D01*
X157300147Y-120885646D01*
X157425646Y-120760147D01*
X157573216Y-120661544D01*
X157737188Y-120593624D01*
X157886488Y-120563927D01*
X157911258Y-120559000D01*
X158088742Y-120559000D01*
X158113512Y-120563927D01*
G37*
G36*
X176238674Y-120053465D02*
G01*
X176276367Y-120064899D01*
X176311103Y-120083466D01*
X176341548Y-120108452D01*
X176366534Y-120138897D01*
X176385101Y-120173633D01*
X176396535Y-120211326D01*
X176401000Y-120256661D01*
X176401000Y-121093339D01*
X176396535Y-121138674D01*
X176385101Y-121176367D01*
X176366534Y-121211103D01*
X176341548Y-121241548D01*
X176311103Y-121266534D01*
X176276367Y-121285101D01*
X176238674Y-121296535D01*
X176193339Y-121301000D01*
X175106661Y-121301000D01*
X175061326Y-121296535D01*
X175023633Y-121285101D01*
X174988897Y-121266534D01*
X174958452Y-121241548D01*
X174933466Y-121211103D01*
X174914899Y-121176367D01*
X174903465Y-121138674D01*
X174899000Y-121093339D01*
X174899000Y-120256661D01*
X174903465Y-120211326D01*
X174914899Y-120173633D01*
X174933466Y-120138897D01*
X174958452Y-120108452D01*
X174988897Y-120083466D01*
X175023633Y-120064899D01*
X175061326Y-120053465D01*
X175106661Y-120049000D01*
X176193339Y-120049000D01*
X176238674Y-120053465D01*
G37*
G36*
X198588674Y-119153465D02*
G01*
X198626367Y-119164899D01*
X198661103Y-119183466D01*
X198691548Y-119208452D01*
X198716534Y-119238897D01*
X198735101Y-119273633D01*
X198746535Y-119311326D01*
X198751000Y-119356661D01*
X198751000Y-120193339D01*
X198746535Y-120238674D01*
X198735101Y-120276367D01*
X198716534Y-120311103D01*
X198691548Y-120341548D01*
X198661103Y-120366534D01*
X198626367Y-120385101D01*
X198588674Y-120396535D01*
X198543339Y-120401000D01*
X197456661Y-120401000D01*
X197411326Y-120396535D01*
X197373633Y-120385101D01*
X197338897Y-120366534D01*
X197308452Y-120341548D01*
X197283466Y-120311103D01*
X197264899Y-120276367D01*
X197253465Y-120238674D01*
X197249000Y-120193339D01*
X197249000Y-119356661D01*
X197253465Y-119311326D01*
X197264899Y-119273633D01*
X197283466Y-119238897D01*
X197308452Y-119208452D01*
X197338897Y-119183466D01*
X197373633Y-119164899D01*
X197411326Y-119153465D01*
X197456661Y-119149000D01*
X198543339Y-119149000D01*
X198588674Y-119153465D01*
G37*
G36*
X192459928Y-116701764D02*
G01*
X192481009Y-116708160D01*
X192500445Y-116718548D01*
X192517476Y-116732524D01*
X192531452Y-116749555D01*
X192541840Y-116768991D01*
X192548236Y-116790072D01*
X192551000Y-116818140D01*
X192551000Y-118631860D01*
X192548236Y-118659928D01*
X192541840Y-118681009D01*
X192531452Y-118700445D01*
X192517476Y-118717476D01*
X192500445Y-118731452D01*
X192481009Y-118741840D01*
X192459928Y-118748236D01*
X192431860Y-118751000D01*
X191968140Y-118751000D01*
X191940072Y-118748236D01*
X191918991Y-118741840D01*
X191899555Y-118731452D01*
X191882524Y-118717476D01*
X191868548Y-118700445D01*
X191858160Y-118681009D01*
X191851764Y-118659928D01*
X191849000Y-118631860D01*
X191849000Y-116818140D01*
X191851764Y-116790072D01*
X191858160Y-116768991D01*
X191868548Y-116749555D01*
X191882524Y-116732524D01*
X191899555Y-116718548D01*
X191918991Y-116708160D01*
X191940072Y-116701764D01*
X191968140Y-116699000D01*
X192431860Y-116699000D01*
X192459928Y-116701764D01*
G37*
G36*
X191189928Y-116701764D02*
G01*
X191211009Y-116708160D01*
X191230445Y-116718548D01*
X191247476Y-116732524D01*
X191261452Y-116749555D01*
X191271840Y-116768991D01*
X191278236Y-116790072D01*
X191281000Y-116818140D01*
X191281000Y-118631860D01*
X191278236Y-118659928D01*
X191271840Y-118681009D01*
X191261452Y-118700445D01*
X191247476Y-118717476D01*
X191230445Y-118731452D01*
X191211009Y-118741840D01*
X191189928Y-118748236D01*
X191161860Y-118751000D01*
X190698140Y-118751000D01*
X190670072Y-118748236D01*
X190648991Y-118741840D01*
X190629555Y-118731452D01*
X190612524Y-118717476D01*
X190598548Y-118700445D01*
X190588160Y-118681009D01*
X190581764Y-118659928D01*
X190579000Y-118631860D01*
X190579000Y-116818140D01*
X190581764Y-116790072D01*
X190588160Y-116768991D01*
X190598548Y-116749555D01*
X190612524Y-116732524D01*
X190629555Y-116718548D01*
X190648991Y-116708160D01*
X190670072Y-116701764D01*
X190698140Y-116699000D01*
X191161860Y-116699000D01*
X191189928Y-116701764D01*
G37*
G36*
X188649928Y-116701764D02*
G01*
X188671009Y-116708160D01*
X188690445Y-116718548D01*
X188707476Y-116732524D01*
X188721452Y-116749555D01*
X188731840Y-116768991D01*
X188738236Y-116790072D01*
X188741000Y-116818140D01*
X188741000Y-118631860D01*
X188738236Y-118659928D01*
X188731840Y-118681009D01*
X188721452Y-118700445D01*
X188707476Y-118717476D01*
X188690445Y-118731452D01*
X188671009Y-118741840D01*
X188649928Y-118748236D01*
X188621860Y-118751000D01*
X188158140Y-118751000D01*
X188130072Y-118748236D01*
X188108991Y-118741840D01*
X188089555Y-118731452D01*
X188072524Y-118717476D01*
X188058548Y-118700445D01*
X188048160Y-118681009D01*
X188041764Y-118659928D01*
X188039000Y-118631860D01*
X188039000Y-116818140D01*
X188041764Y-116790072D01*
X188048160Y-116768991D01*
X188058548Y-116749555D01*
X188072524Y-116732524D01*
X188089555Y-116718548D01*
X188108991Y-116708160D01*
X188130072Y-116701764D01*
X188158140Y-116699000D01*
X188621860Y-116699000D01*
X188649928Y-116701764D01*
G37*
G36*
X193729928Y-116701764D02*
G01*
X193751009Y-116708160D01*
X193770445Y-116718548D01*
X193787476Y-116732524D01*
X193801452Y-116749555D01*
X193811840Y-116768991D01*
X193818236Y-116790072D01*
X193821000Y-116818140D01*
X193821000Y-118631860D01*
X193818236Y-118659928D01*
X193811840Y-118681009D01*
X193801452Y-118700445D01*
X193787476Y-118717476D01*
X193770445Y-118731452D01*
X193751009Y-118741840D01*
X193729928Y-118748236D01*
X193701860Y-118751000D01*
X193238140Y-118751000D01*
X193210072Y-118748236D01*
X193188991Y-118741840D01*
X193169555Y-118731452D01*
X193152524Y-118717476D01*
X193138548Y-118700445D01*
X193128160Y-118681009D01*
X193121764Y-118659928D01*
X193119000Y-118631860D01*
X193119000Y-116818140D01*
X193121764Y-116790072D01*
X193128160Y-116768991D01*
X193138548Y-116749555D01*
X193152524Y-116732524D01*
X193169555Y-116718548D01*
X193188991Y-116708160D01*
X193210072Y-116701764D01*
X193238140Y-116699000D01*
X193701860Y-116699000D01*
X193729928Y-116701764D01*
G37*
G36*
X194999928Y-116701764D02*
G01*
X195021009Y-116708160D01*
X195040445Y-116718548D01*
X195057476Y-116732524D01*
X195071452Y-116749555D01*
X195081840Y-116768991D01*
X195088236Y-116790072D01*
X195091000Y-116818140D01*
X195091000Y-118631860D01*
X195088236Y-118659928D01*
X195081840Y-118681009D01*
X195071452Y-118700445D01*
X195057476Y-118717476D01*
X195040445Y-118731452D01*
X195021009Y-118741840D01*
X194999928Y-118748236D01*
X194971860Y-118751000D01*
X194508140Y-118751000D01*
X194480072Y-118748236D01*
X194458991Y-118741840D01*
X194439555Y-118731452D01*
X194422524Y-118717476D01*
X194408548Y-118700445D01*
X194398160Y-118681009D01*
X194391764Y-118659928D01*
X194389000Y-118631860D01*
X194389000Y-116818140D01*
X194391764Y-116790072D01*
X194398160Y-116768991D01*
X194408548Y-116749555D01*
X194422524Y-116732524D01*
X194439555Y-116718548D01*
X194458991Y-116708160D01*
X194480072Y-116701764D01*
X194508140Y-116699000D01*
X194971860Y-116699000D01*
X194999928Y-116701764D01*
G37*
G36*
X196269928Y-116701764D02*
G01*
X196291009Y-116708160D01*
X196310445Y-116718548D01*
X196327476Y-116732524D01*
X196341452Y-116749555D01*
X196351840Y-116768991D01*
X196358236Y-116790072D01*
X196361000Y-116818140D01*
X196361000Y-118631860D01*
X196358236Y-118659928D01*
X196351840Y-118681009D01*
X196341452Y-118700445D01*
X196327476Y-118717476D01*
X196310445Y-118731452D01*
X196291009Y-118741840D01*
X196269928Y-118748236D01*
X196241860Y-118751000D01*
X195778140Y-118751000D01*
X195750072Y-118748236D01*
X195728991Y-118741840D01*
X195709555Y-118731452D01*
X195692524Y-118717476D01*
X195678548Y-118700445D01*
X195668160Y-118681009D01*
X195661764Y-118659928D01*
X195659000Y-118631860D01*
X195659000Y-116818140D01*
X195661764Y-116790072D01*
X195668160Y-116768991D01*
X195678548Y-116749555D01*
X195692524Y-116732524D01*
X195709555Y-116718548D01*
X195728991Y-116708160D01*
X195750072Y-116701764D01*
X195778140Y-116699000D01*
X196241860Y-116699000D01*
X196269928Y-116701764D01*
G37*
G36*
X189919928Y-116701764D02*
G01*
X189941009Y-116708160D01*
X189960445Y-116718548D01*
X189977476Y-116732524D01*
X189991452Y-116749555D01*
X190001840Y-116768991D01*
X190008236Y-116790072D01*
X190011000Y-116818140D01*
X190011000Y-118631860D01*
X190008236Y-118659928D01*
X190001840Y-118681009D01*
X189991452Y-118700445D01*
X189977476Y-118717476D01*
X189960445Y-118731452D01*
X189941009Y-118741840D01*
X189919928Y-118748236D01*
X189891860Y-118751000D01*
X189428140Y-118751000D01*
X189400072Y-118748236D01*
X189378991Y-118741840D01*
X189359555Y-118731452D01*
X189342524Y-118717476D01*
X189328548Y-118700445D01*
X189318160Y-118681009D01*
X189311764Y-118659928D01*
X189309000Y-118631860D01*
X189309000Y-116818140D01*
X189311764Y-116790072D01*
X189318160Y-116768991D01*
X189328548Y-116749555D01*
X189342524Y-116732524D01*
X189359555Y-116718548D01*
X189378991Y-116708160D01*
X189400072Y-116701764D01*
X189428140Y-116699000D01*
X189891860Y-116699000D01*
X189919928Y-116701764D01*
G37*
G36*
X174988674Y-115253465D02*
G01*
X175026367Y-115264899D01*
X175061103Y-115283466D01*
X175091548Y-115308452D01*
X175116534Y-115338897D01*
X175135101Y-115373633D01*
X175146535Y-115411326D01*
X175151000Y-115456661D01*
X175151000Y-116543339D01*
X175146535Y-116588674D01*
X175135101Y-116626367D01*
X175116534Y-116661103D01*
X175091548Y-116691548D01*
X175061103Y-116716534D01*
X175026367Y-116735101D01*
X174988674Y-116746535D01*
X174943339Y-116751000D01*
X174106661Y-116751000D01*
X174061326Y-116746535D01*
X174023633Y-116735101D01*
X173988897Y-116716534D01*
X173958452Y-116691548D01*
X173933466Y-116661103D01*
X173914899Y-116626367D01*
X173903465Y-116588674D01*
X173899000Y-116543339D01*
X173899000Y-115456661D01*
X173903465Y-115411326D01*
X173914899Y-115373633D01*
X173933466Y-115338897D01*
X173958452Y-115308452D01*
X173988897Y-115283466D01*
X174023633Y-115264899D01*
X174061326Y-115253465D01*
X174106661Y-115249000D01*
X174943339Y-115249000D01*
X174988674Y-115253465D01*
G37*
G36*
X172938674Y-115253465D02*
G01*
X172976367Y-115264899D01*
X173011103Y-115283466D01*
X173041548Y-115308452D01*
X173066534Y-115338897D01*
X173085101Y-115373633D01*
X173096535Y-115411326D01*
X173101000Y-115456661D01*
X173101000Y-116543339D01*
X173096535Y-116588674D01*
X173085101Y-116626367D01*
X173066534Y-116661103D01*
X173041548Y-116691548D01*
X173011103Y-116716534D01*
X172976367Y-116735101D01*
X172938674Y-116746535D01*
X172893339Y-116751000D01*
X172056661Y-116751000D01*
X172011326Y-116746535D01*
X171973633Y-116735101D01*
X171938897Y-116716534D01*
X171908452Y-116691548D01*
X171883466Y-116661103D01*
X171864899Y-116626367D01*
X171853465Y-116588674D01*
X171849000Y-116543339D01*
X171849000Y-115456661D01*
X171853465Y-115411326D01*
X171864899Y-115373633D01*
X171883466Y-115338897D01*
X171908452Y-115308452D01*
X171938897Y-115283466D01*
X171973633Y-115264899D01*
X172011326Y-115253465D01*
X172056661Y-115249000D01*
X172893339Y-115249000D01*
X172938674Y-115253465D01*
G37*
G36*
X185351000Y-116551000D02*
G01*
X182449000Y-116551000D01*
X182449000Y-115449000D01*
X185351000Y-115449000D01*
X185351000Y-116551000D01*
G37*
G36*
X179551000Y-116551000D02*
G01*
X176649000Y-116551000D01*
X176649000Y-115449000D01*
X179551000Y-115449000D01*
X179551000Y-116551000D01*
G37*
G36*
X200526000Y-116526000D02*
G01*
X198424000Y-116526000D01*
X198424000Y-115324000D01*
X200526000Y-115324000D01*
X200526000Y-116526000D01*
G37*
G36*
X205326000Y-116526000D02*
G01*
X203224000Y-116526000D01*
X203224000Y-115324000D01*
X205326000Y-115324000D01*
X205326000Y-116526000D01*
G37*
G36*
X158851000Y-116401000D02*
G01*
X156749000Y-116401000D01*
X156749000Y-115199000D01*
X158851000Y-115199000D01*
X158851000Y-116401000D01*
G37*
G36*
X163651000Y-116401000D02*
G01*
X161549000Y-116401000D01*
X161549000Y-115199000D01*
X163651000Y-115199000D01*
X163651000Y-116401000D01*
G37*
G36*
X205326000Y-114726000D02*
G01*
X203224000Y-114726000D01*
X203224000Y-113524000D01*
X205326000Y-113524000D01*
X205326000Y-114726000D01*
G37*
G36*
X200526000Y-114726000D02*
G01*
X198424000Y-114726000D01*
X198424000Y-113524000D01*
X200526000Y-113524000D01*
X200526000Y-114726000D01*
G37*
G36*
X163651000Y-114601000D02*
G01*
X161549000Y-114601000D01*
X161549000Y-113399000D01*
X163651000Y-113399000D01*
X163651000Y-114601000D01*
G37*
G36*
X158851000Y-114601000D02*
G01*
X156749000Y-114601000D01*
X156749000Y-113399000D01*
X158851000Y-113399000D01*
X158851000Y-114601000D01*
G37*
G36*
X194688674Y-112653465D02*
G01*
X194726367Y-112664899D01*
X194761103Y-112683466D01*
X194791548Y-112708452D01*
X194816534Y-112738897D01*
X194835101Y-112773633D01*
X194846535Y-112811326D01*
X194851000Y-112856661D01*
X194851000Y-113943339D01*
X194846535Y-113988674D01*
X194835101Y-114026367D01*
X194816534Y-114061103D01*
X194791548Y-114091548D01*
X194761103Y-114116534D01*
X194726367Y-114135101D01*
X194688674Y-114146535D01*
X194643339Y-114151000D01*
X193806661Y-114151000D01*
X193761326Y-114146535D01*
X193723633Y-114135101D01*
X193688897Y-114116534D01*
X193658452Y-114091548D01*
X193633466Y-114061103D01*
X193614899Y-114026367D01*
X193603465Y-113988674D01*
X193599000Y-113943339D01*
X193599000Y-112856661D01*
X193603465Y-112811326D01*
X193614899Y-112773633D01*
X193633466Y-112738897D01*
X193658452Y-112708452D01*
X193688897Y-112683466D01*
X193723633Y-112664899D01*
X193761326Y-112653465D01*
X193806661Y-112649000D01*
X194643339Y-112649000D01*
X194688674Y-112653465D01*
G37*
G36*
X192638674Y-112653465D02*
G01*
X192676367Y-112664899D01*
X192711103Y-112683466D01*
X192741548Y-112708452D01*
X192766534Y-112738897D01*
X192785101Y-112773633D01*
X192796535Y-112811326D01*
X192801000Y-112856661D01*
X192801000Y-113943339D01*
X192796535Y-113988674D01*
X192785101Y-114026367D01*
X192766534Y-114061103D01*
X192741548Y-114091548D01*
X192711103Y-114116534D01*
X192676367Y-114135101D01*
X192638674Y-114146535D01*
X192593339Y-114151000D01*
X191756661Y-114151000D01*
X191711326Y-114146535D01*
X191673633Y-114135101D01*
X191638897Y-114116534D01*
X191608452Y-114091548D01*
X191583466Y-114061103D01*
X191564899Y-114026367D01*
X191553465Y-113988674D01*
X191549000Y-113943339D01*
X191549000Y-112856661D01*
X191553465Y-112811326D01*
X191564899Y-112773633D01*
X191583466Y-112738897D01*
X191608452Y-112708452D01*
X191638897Y-112683466D01*
X191673633Y-112664899D01*
X191711326Y-112653465D01*
X191756661Y-112649000D01*
X192593339Y-112649000D01*
X192638674Y-112653465D01*
G37*
G36*
X200526000Y-112926000D02*
G01*
X198424000Y-112926000D01*
X198424000Y-111724000D01*
X200526000Y-111724000D01*
X200526000Y-112926000D01*
G37*
G36*
X205326000Y-112926000D02*
G01*
X203224000Y-112926000D01*
X203224000Y-111724000D01*
X205326000Y-111724000D01*
X205326000Y-112926000D01*
G37*
G36*
X158851000Y-112801000D02*
G01*
X156749000Y-112801000D01*
X156749000Y-111599000D01*
X158851000Y-111599000D01*
X158851000Y-112801000D01*
G37*
G36*
X163651000Y-112801000D02*
G01*
X161549000Y-112801000D01*
X161549000Y-111599000D01*
X163651000Y-111599000D01*
X163651000Y-112801000D01*
G37*
G36*
X179551000Y-112551000D02*
G01*
X176649000Y-112551000D01*
X176649000Y-111449000D01*
X179551000Y-111449000D01*
X179551000Y-112551000D01*
G37*
G36*
X185351000Y-112551000D02*
G01*
X182449000Y-112551000D01*
X182449000Y-111449000D01*
X185351000Y-111449000D01*
X185351000Y-112551000D01*
G37*
G36*
X196588674Y-108903465D02*
G01*
X196626367Y-108914899D01*
X196661103Y-108933466D01*
X196691548Y-108958452D01*
X196716534Y-108988897D01*
X196735101Y-109023633D01*
X196746535Y-109061326D01*
X196751000Y-109106661D01*
X196751000Y-109943339D01*
X196746535Y-109988674D01*
X196735101Y-110026367D01*
X196716534Y-110061103D01*
X196691548Y-110091548D01*
X196661103Y-110116534D01*
X196626367Y-110135101D01*
X196588674Y-110146535D01*
X196543339Y-110151000D01*
X195456661Y-110151000D01*
X195411326Y-110146535D01*
X195373633Y-110135101D01*
X195338897Y-110116534D01*
X195308452Y-110091548D01*
X195283466Y-110061103D01*
X195264899Y-110026367D01*
X195253465Y-109988674D01*
X195249000Y-109943339D01*
X195249000Y-109106661D01*
X195253465Y-109061326D01*
X195264899Y-109023633D01*
X195283466Y-108988897D01*
X195308452Y-108958452D01*
X195338897Y-108933466D01*
X195373633Y-108914899D01*
X195411326Y-108903465D01*
X195456661Y-108899000D01*
X196543339Y-108899000D01*
X196588674Y-108903465D01*
G37*
G36*
X204088674Y-108903465D02*
G01*
X204126367Y-108914899D01*
X204161103Y-108933466D01*
X204191548Y-108958452D01*
X204216534Y-108988897D01*
X204235101Y-109023633D01*
X204246535Y-109061326D01*
X204251000Y-109106661D01*
X204251000Y-109943339D01*
X204246535Y-109988674D01*
X204235101Y-110026367D01*
X204216534Y-110061103D01*
X204191548Y-110091548D01*
X204161103Y-110116534D01*
X204126367Y-110135101D01*
X204088674Y-110146535D01*
X204043339Y-110151000D01*
X202956661Y-110151000D01*
X202911326Y-110146535D01*
X202873633Y-110135101D01*
X202838897Y-110116534D01*
X202808452Y-110091548D01*
X202783466Y-110061103D01*
X202764899Y-110026367D01*
X202753465Y-109988674D01*
X202749000Y-109943339D01*
X202749000Y-109106661D01*
X202753465Y-109061326D01*
X202764899Y-109023633D01*
X202783466Y-108988897D01*
X202808452Y-108958452D01*
X202838897Y-108933466D01*
X202873633Y-108914899D01*
X202911326Y-108903465D01*
X202956661Y-108899000D01*
X204043339Y-108899000D01*
X204088674Y-108903465D01*
G37*
G36*
X200088674Y-108903465D02*
G01*
X200126367Y-108914899D01*
X200161103Y-108933466D01*
X200191548Y-108958452D01*
X200216534Y-108988897D01*
X200235101Y-109023633D01*
X200246535Y-109061326D01*
X200251000Y-109106661D01*
X200251000Y-109943339D01*
X200246535Y-109988674D01*
X200235101Y-110026367D01*
X200216534Y-110061103D01*
X200191548Y-110091548D01*
X200161103Y-110116534D01*
X200126367Y-110135101D01*
X200088674Y-110146535D01*
X200043339Y-110151000D01*
X198956661Y-110151000D01*
X198911326Y-110146535D01*
X198873633Y-110135101D01*
X198838897Y-110116534D01*
X198808452Y-110091548D01*
X198783466Y-110061103D01*
X198764899Y-110026367D01*
X198753465Y-109988674D01*
X198749000Y-109943339D01*
X198749000Y-109106661D01*
X198753465Y-109061326D01*
X198764899Y-109023633D01*
X198783466Y-108988897D01*
X198808452Y-108958452D01*
X198838897Y-108933466D01*
X198873633Y-108914899D01*
X198911326Y-108903465D01*
X198956661Y-108899000D01*
X200043339Y-108899000D01*
X200088674Y-108903465D01*
G37*
G36*
X166188674Y-108403465D02*
G01*
X166226367Y-108414899D01*
X166261103Y-108433466D01*
X166291548Y-108458452D01*
X166316534Y-108488897D01*
X166335101Y-108523633D01*
X166346535Y-108561326D01*
X166351000Y-108606661D01*
X166351000Y-109443339D01*
X166346535Y-109488674D01*
X166335101Y-109526367D01*
X166316534Y-109561103D01*
X166291548Y-109591548D01*
X166261103Y-109616534D01*
X166226367Y-109635101D01*
X166188674Y-109646535D01*
X166143339Y-109651000D01*
X165056661Y-109651000D01*
X165011326Y-109646535D01*
X164973633Y-109635101D01*
X164938897Y-109616534D01*
X164908452Y-109591548D01*
X164883466Y-109561103D01*
X164864899Y-109526367D01*
X164853465Y-109488674D01*
X164849000Y-109443339D01*
X164849000Y-108606661D01*
X164853465Y-108561326D01*
X164864899Y-108523633D01*
X164883466Y-108488897D01*
X164908452Y-108458452D01*
X164938897Y-108433466D01*
X164973633Y-108414899D01*
X165011326Y-108403465D01*
X165056661Y-108399000D01*
X166143339Y-108399000D01*
X166188674Y-108403465D01*
G37*
G36*
X169788674Y-108403465D02*
G01*
X169826367Y-108414899D01*
X169861103Y-108433466D01*
X169891548Y-108458452D01*
X169916534Y-108488897D01*
X169935101Y-108523633D01*
X169946535Y-108561326D01*
X169951000Y-108606661D01*
X169951000Y-109443339D01*
X169946535Y-109488674D01*
X169935101Y-109526367D01*
X169916534Y-109561103D01*
X169891548Y-109591548D01*
X169861103Y-109616534D01*
X169826367Y-109635101D01*
X169788674Y-109646535D01*
X169743339Y-109651000D01*
X168656661Y-109651000D01*
X168611326Y-109646535D01*
X168573633Y-109635101D01*
X168538897Y-109616534D01*
X168508452Y-109591548D01*
X168483466Y-109561103D01*
X168464899Y-109526367D01*
X168453465Y-109488674D01*
X168449000Y-109443339D01*
X168449000Y-108606661D01*
X168453465Y-108561326D01*
X168464899Y-108523633D01*
X168483466Y-108488897D01*
X168508452Y-108458452D01*
X168538897Y-108433466D01*
X168573633Y-108414899D01*
X168611326Y-108403465D01*
X168656661Y-108399000D01*
X169743339Y-108399000D01*
X169788674Y-108403465D01*
G37*
G36*
X159588674Y-108403465D02*
G01*
X159626367Y-108414899D01*
X159661103Y-108433466D01*
X159691548Y-108458452D01*
X159716534Y-108488897D01*
X159735101Y-108523633D01*
X159746535Y-108561326D01*
X159751000Y-108606661D01*
X159751000Y-109443339D01*
X159746535Y-109488674D01*
X159735101Y-109526367D01*
X159716534Y-109561103D01*
X159691548Y-109591548D01*
X159661103Y-109616534D01*
X159626367Y-109635101D01*
X159588674Y-109646535D01*
X159543339Y-109651000D01*
X158456661Y-109651000D01*
X158411326Y-109646535D01*
X158373633Y-109635101D01*
X158338897Y-109616534D01*
X158308452Y-109591548D01*
X158283466Y-109561103D01*
X158264899Y-109526367D01*
X158253465Y-109488674D01*
X158249000Y-109443339D01*
X158249000Y-108606661D01*
X158253465Y-108561326D01*
X158264899Y-108523633D01*
X158283466Y-108488897D01*
X158308452Y-108458452D01*
X158338897Y-108433466D01*
X158373633Y-108414899D01*
X158411326Y-108403465D01*
X158456661Y-108399000D01*
X159543339Y-108399000D01*
X159588674Y-108403465D01*
G37*
G36*
X162788674Y-108403465D02*
G01*
X162826367Y-108414899D01*
X162861103Y-108433466D01*
X162891548Y-108458452D01*
X162916534Y-108488897D01*
X162935101Y-108523633D01*
X162946535Y-108561326D01*
X162951000Y-108606661D01*
X162951000Y-109443339D01*
X162946535Y-109488674D01*
X162935101Y-109526367D01*
X162916534Y-109561103D01*
X162891548Y-109591548D01*
X162861103Y-109616534D01*
X162826367Y-109635101D01*
X162788674Y-109646535D01*
X162743339Y-109651000D01*
X161656661Y-109651000D01*
X161611326Y-109646535D01*
X161573633Y-109635101D01*
X161538897Y-109616534D01*
X161508452Y-109591548D01*
X161483466Y-109561103D01*
X161464899Y-109526367D01*
X161453465Y-109488674D01*
X161449000Y-109443339D01*
X161449000Y-108606661D01*
X161453465Y-108561326D01*
X161464899Y-108523633D01*
X161483466Y-108488897D01*
X161508452Y-108458452D01*
X161538897Y-108433466D01*
X161573633Y-108414899D01*
X161611326Y-108403465D01*
X161656661Y-108399000D01*
X162743339Y-108399000D01*
X162788674Y-108403465D01*
G37*
G36*
X204088674Y-106853465D02*
G01*
X204126367Y-106864899D01*
X204161103Y-106883466D01*
X204191548Y-106908452D01*
X204216534Y-106938897D01*
X204235101Y-106973633D01*
X204246535Y-107011326D01*
X204251000Y-107056661D01*
X204251000Y-107893339D01*
X204246535Y-107938674D01*
X204235101Y-107976367D01*
X204216534Y-108011103D01*
X204191548Y-108041548D01*
X204161103Y-108066534D01*
X204126367Y-108085101D01*
X204088674Y-108096535D01*
X204043339Y-108101000D01*
X202956661Y-108101000D01*
X202911326Y-108096535D01*
X202873633Y-108085101D01*
X202838897Y-108066534D01*
X202808452Y-108041548D01*
X202783466Y-108011103D01*
X202764899Y-107976367D01*
X202753465Y-107938674D01*
X202749000Y-107893339D01*
X202749000Y-107056661D01*
X202753465Y-107011326D01*
X202764899Y-106973633D01*
X202783466Y-106938897D01*
X202808452Y-106908452D01*
X202838897Y-106883466D01*
X202873633Y-106864899D01*
X202911326Y-106853465D01*
X202956661Y-106849000D01*
X204043339Y-106849000D01*
X204088674Y-106853465D01*
G37*
G36*
X200088674Y-106853465D02*
G01*
X200126367Y-106864899D01*
X200161103Y-106883466D01*
X200191548Y-106908452D01*
X200216534Y-106938897D01*
X200235101Y-106973633D01*
X200246535Y-107011326D01*
X200251000Y-107056661D01*
X200251000Y-107893339D01*
X200246535Y-107938674D01*
X200235101Y-107976367D01*
X200216534Y-108011103D01*
X200191548Y-108041548D01*
X200161103Y-108066534D01*
X200126367Y-108085101D01*
X200088674Y-108096535D01*
X200043339Y-108101000D01*
X198956661Y-108101000D01*
X198911326Y-108096535D01*
X198873633Y-108085101D01*
X198838897Y-108066534D01*
X198808452Y-108041548D01*
X198783466Y-108011103D01*
X198764899Y-107976367D01*
X198753465Y-107938674D01*
X198749000Y-107893339D01*
X198749000Y-107056661D01*
X198753465Y-107011326D01*
X198764899Y-106973633D01*
X198783466Y-106938897D01*
X198808452Y-106908452D01*
X198838897Y-106883466D01*
X198873633Y-106864899D01*
X198911326Y-106853465D01*
X198956661Y-106849000D01*
X200043339Y-106849000D01*
X200088674Y-106853465D01*
G37*
G36*
X196588674Y-106853465D02*
G01*
X196626367Y-106864899D01*
X196661103Y-106883466D01*
X196691548Y-106908452D01*
X196716534Y-106938897D01*
X196735101Y-106973633D01*
X196746535Y-107011326D01*
X196751000Y-107056661D01*
X196751000Y-107893339D01*
X196746535Y-107938674D01*
X196735101Y-107976367D01*
X196716534Y-108011103D01*
X196691548Y-108041548D01*
X196661103Y-108066534D01*
X196626367Y-108085101D01*
X196588674Y-108096535D01*
X196543339Y-108101000D01*
X195456661Y-108101000D01*
X195411326Y-108096535D01*
X195373633Y-108085101D01*
X195338897Y-108066534D01*
X195308452Y-108041548D01*
X195283466Y-108011103D01*
X195264899Y-107976367D01*
X195253465Y-107938674D01*
X195249000Y-107893339D01*
X195249000Y-107056661D01*
X195253465Y-107011326D01*
X195264899Y-106973633D01*
X195283466Y-106938897D01*
X195308452Y-106908452D01*
X195338897Y-106883466D01*
X195373633Y-106864899D01*
X195411326Y-106853465D01*
X195456661Y-106849000D01*
X196543339Y-106849000D01*
X196588674Y-106853465D01*
G37*
G36*
X185788674Y-106503465D02*
G01*
X185826367Y-106514899D01*
X185861103Y-106533466D01*
X185891548Y-106558452D01*
X185916534Y-106588897D01*
X185935101Y-106623633D01*
X185946535Y-106661326D01*
X185951000Y-106706661D01*
X185951000Y-107543339D01*
X185946535Y-107588674D01*
X185935101Y-107626367D01*
X185916534Y-107661103D01*
X185891548Y-107691548D01*
X185861103Y-107716534D01*
X185826367Y-107735101D01*
X185788674Y-107746535D01*
X185743339Y-107751000D01*
X184656661Y-107751000D01*
X184611326Y-107746535D01*
X184573633Y-107735101D01*
X184538897Y-107716534D01*
X184508452Y-107691548D01*
X184483466Y-107661103D01*
X184464899Y-107626367D01*
X184453465Y-107588674D01*
X184449000Y-107543339D01*
X184449000Y-106706661D01*
X184453465Y-106661326D01*
X184464899Y-106623633D01*
X184483466Y-106588897D01*
X184508452Y-106558452D01*
X184538897Y-106533466D01*
X184573633Y-106514899D01*
X184611326Y-106503465D01*
X184656661Y-106499000D01*
X185743339Y-106499000D01*
X185788674Y-106503465D01*
G37*
G36*
X181788674Y-106503465D02*
G01*
X181826367Y-106514899D01*
X181861103Y-106533466D01*
X181891548Y-106558452D01*
X181916534Y-106588897D01*
X181935101Y-106623633D01*
X181946535Y-106661326D01*
X181951000Y-106706661D01*
X181951000Y-107543339D01*
X181946535Y-107588674D01*
X181935101Y-107626367D01*
X181916534Y-107661103D01*
X181891548Y-107691548D01*
X181861103Y-107716534D01*
X181826367Y-107735101D01*
X181788674Y-107746535D01*
X181743339Y-107751000D01*
X180656661Y-107751000D01*
X180611326Y-107746535D01*
X180573633Y-107735101D01*
X180538897Y-107716534D01*
X180508452Y-107691548D01*
X180483466Y-107661103D01*
X180464899Y-107626367D01*
X180453465Y-107588674D01*
X180449000Y-107543339D01*
X180449000Y-106706661D01*
X180453465Y-106661326D01*
X180464899Y-106623633D01*
X180483466Y-106588897D01*
X180508452Y-106558452D01*
X180538897Y-106533466D01*
X180573633Y-106514899D01*
X180611326Y-106503465D01*
X180656661Y-106499000D01*
X181743339Y-106499000D01*
X181788674Y-106503465D01*
G37*
G36*
X162788674Y-106353465D02*
G01*
X162826367Y-106364899D01*
X162861103Y-106383466D01*
X162891548Y-106408452D01*
X162916534Y-106438897D01*
X162935101Y-106473633D01*
X162946535Y-106511326D01*
X162951000Y-106556661D01*
X162951000Y-107393339D01*
X162946535Y-107438674D01*
X162935101Y-107476367D01*
X162916534Y-107511103D01*
X162891548Y-107541548D01*
X162861103Y-107566534D01*
X162826367Y-107585101D01*
X162788674Y-107596535D01*
X162743339Y-107601000D01*
X161656661Y-107601000D01*
X161611326Y-107596535D01*
X161573633Y-107585101D01*
X161538897Y-107566534D01*
X161508452Y-107541548D01*
X161483466Y-107511103D01*
X161464899Y-107476367D01*
X161453465Y-107438674D01*
X161449000Y-107393339D01*
X161449000Y-106556661D01*
X161453465Y-106511326D01*
X161464899Y-106473633D01*
X161483466Y-106438897D01*
X161508452Y-106408452D01*
X161538897Y-106383466D01*
X161573633Y-106364899D01*
X161611326Y-106353465D01*
X161656661Y-106349000D01*
X162743339Y-106349000D01*
X162788674Y-106353465D01*
G37*
G36*
X159588674Y-106353465D02*
G01*
X159626367Y-106364899D01*
X159661103Y-106383466D01*
X159691548Y-106408452D01*
X159716534Y-106438897D01*
X159735101Y-106473633D01*
X159746535Y-106511326D01*
X159751000Y-106556661D01*
X159751000Y-107393339D01*
X159746535Y-107438674D01*
X159735101Y-107476367D01*
X159716534Y-107511103D01*
X159691548Y-107541548D01*
X159661103Y-107566534D01*
X159626367Y-107585101D01*
X159588674Y-107596535D01*
X159543339Y-107601000D01*
X158456661Y-107601000D01*
X158411326Y-107596535D01*
X158373633Y-107585101D01*
X158338897Y-107566534D01*
X158308452Y-107541548D01*
X158283466Y-107511103D01*
X158264899Y-107476367D01*
X158253465Y-107438674D01*
X158249000Y-107393339D01*
X158249000Y-106556661D01*
X158253465Y-106511326D01*
X158264899Y-106473633D01*
X158283466Y-106438897D01*
X158308452Y-106408452D01*
X158338897Y-106383466D01*
X158373633Y-106364899D01*
X158411326Y-106353465D01*
X158456661Y-106349000D01*
X159543339Y-106349000D01*
X159588674Y-106353465D01*
G37*
G36*
X169788674Y-106353465D02*
G01*
X169826367Y-106364899D01*
X169861103Y-106383466D01*
X169891548Y-106408452D01*
X169916534Y-106438897D01*
X169935101Y-106473633D01*
X169946535Y-106511326D01*
X169951000Y-106556661D01*
X169951000Y-107393339D01*
X169946535Y-107438674D01*
X169935101Y-107476367D01*
X169916534Y-107511103D01*
X169891548Y-107541548D01*
X169861103Y-107566534D01*
X169826367Y-107585101D01*
X169788674Y-107596535D01*
X169743339Y-107601000D01*
X168656661Y-107601000D01*
X168611326Y-107596535D01*
X168573633Y-107585101D01*
X168538897Y-107566534D01*
X168508452Y-107541548D01*
X168483466Y-107511103D01*
X168464899Y-107476367D01*
X168453465Y-107438674D01*
X168449000Y-107393339D01*
X168449000Y-106556661D01*
X168453465Y-106511326D01*
X168464899Y-106473633D01*
X168483466Y-106438897D01*
X168508452Y-106408452D01*
X168538897Y-106383466D01*
X168573633Y-106364899D01*
X168611326Y-106353465D01*
X168656661Y-106349000D01*
X169743339Y-106349000D01*
X169788674Y-106353465D01*
G37*
G36*
X166188674Y-106353465D02*
G01*
X166226367Y-106364899D01*
X166261103Y-106383466D01*
X166291548Y-106408452D01*
X166316534Y-106438897D01*
X166335101Y-106473633D01*
X166346535Y-106511326D01*
X166351000Y-106556661D01*
X166351000Y-107393339D01*
X166346535Y-107438674D01*
X166335101Y-107476367D01*
X166316534Y-107511103D01*
X166291548Y-107541548D01*
X166261103Y-107566534D01*
X166226367Y-107585101D01*
X166188674Y-107596535D01*
X166143339Y-107601000D01*
X165056661Y-107601000D01*
X165011326Y-107596535D01*
X164973633Y-107585101D01*
X164938897Y-107566534D01*
X164908452Y-107541548D01*
X164883466Y-107511103D01*
X164864899Y-107476367D01*
X164853465Y-107438674D01*
X164849000Y-107393339D01*
X164849000Y-106556661D01*
X164853465Y-106511326D01*
X164864899Y-106473633D01*
X164883466Y-106438897D01*
X164908452Y-106408452D01*
X164938897Y-106383466D01*
X164973633Y-106364899D01*
X165011326Y-106353465D01*
X165056661Y-106349000D01*
X166143339Y-106349000D01*
X166188674Y-106353465D01*
G37*
G36*
X189101000Y-107011000D02*
G01*
X188399000Y-107011000D01*
X188399000Y-105189000D01*
X189101000Y-105189000D01*
X189101000Y-107011000D01*
G37*
G36*
X191001000Y-107011000D02*
G01*
X190299000Y-107011000D01*
X190299000Y-105189000D01*
X191001000Y-105189000D01*
X191001000Y-107011000D01*
G37*
G36*
X185788674Y-104453465D02*
G01*
X185826367Y-104464899D01*
X185861103Y-104483466D01*
X185891548Y-104508452D01*
X185916534Y-104538897D01*
X185935101Y-104573633D01*
X185946535Y-104611326D01*
X185951000Y-104656661D01*
X185951000Y-105493339D01*
X185946535Y-105538674D01*
X185935101Y-105576367D01*
X185916534Y-105611103D01*
X185891548Y-105641548D01*
X185861103Y-105666534D01*
X185826367Y-105685101D01*
X185788674Y-105696535D01*
X185743339Y-105701000D01*
X184656661Y-105701000D01*
X184611326Y-105696535D01*
X184573633Y-105685101D01*
X184538897Y-105666534D01*
X184508452Y-105641548D01*
X184483466Y-105611103D01*
X184464899Y-105576367D01*
X184453465Y-105538674D01*
X184449000Y-105493339D01*
X184449000Y-104656661D01*
X184453465Y-104611326D01*
X184464899Y-104573633D01*
X184483466Y-104538897D01*
X184508452Y-104508452D01*
X184538897Y-104483466D01*
X184573633Y-104464899D01*
X184611326Y-104453465D01*
X184656661Y-104449000D01*
X185743339Y-104449000D01*
X185788674Y-104453465D01*
G37*
G36*
X181788674Y-104453465D02*
G01*
X181826367Y-104464899D01*
X181861103Y-104483466D01*
X181891548Y-104508452D01*
X181916534Y-104538897D01*
X181935101Y-104573633D01*
X181946535Y-104611326D01*
X181951000Y-104656661D01*
X181951000Y-105493339D01*
X181946535Y-105538674D01*
X181935101Y-105576367D01*
X181916534Y-105611103D01*
X181891548Y-105641548D01*
X181861103Y-105666534D01*
X181826367Y-105685101D01*
X181788674Y-105696535D01*
X181743339Y-105701000D01*
X180656661Y-105701000D01*
X180611326Y-105696535D01*
X180573633Y-105685101D01*
X180538897Y-105666534D01*
X180508452Y-105641548D01*
X180483466Y-105611103D01*
X180464899Y-105576367D01*
X180453465Y-105538674D01*
X180449000Y-105493339D01*
X180449000Y-104656661D01*
X180453465Y-104611326D01*
X180464899Y-104573633D01*
X180483466Y-104538897D01*
X180508452Y-104508452D01*
X180538897Y-104483466D01*
X180573633Y-104464899D01*
X180611326Y-104453465D01*
X180656661Y-104449000D01*
X181743339Y-104449000D01*
X181788674Y-104453465D01*
G37*
M02*
