G04 #@! TF.GenerationSoftware,KiCad,Pcbnew,(5.1.5)-3*
G04 #@! TF.CreationDate,2020-04-26T14:17:37-06:00*
G04 #@! TF.ProjectId,Dog Collar Light R1,446f6720-436f-46c6-9c61-72204c696768,rev?*
G04 #@! TF.SameCoordinates,Original*
G04 #@! TF.FileFunction,Soldermask,Bot*
G04 #@! TF.FilePolarity,Negative*
%FSLAX46Y46*%
G04 Gerber Fmt 4.6, Leading zero omitted, Abs format (unit mm)*
G04 Created by KiCad (PCBNEW (5.1.5)-3) date 2020-04-26 14:17:37*
%MOMM*%
%LPD*%
G04 APERTURE LIST*
%ADD10C,0.100000*%
G04 APERTURE END LIST*
D10*
G36*
X158901000Y-124901000D02*
G01*
X157099000Y-124901000D01*
X157099000Y-123099000D01*
X158901000Y-123099000D01*
X158901000Y-124901000D01*
G37*
G36*
X163193512Y-123103927D02*
G01*
X163342812Y-123133624D01*
X163506784Y-123201544D01*
X163654354Y-123300147D01*
X163779853Y-123425646D01*
X163878456Y-123573216D01*
X163946376Y-123737188D01*
X163981000Y-123911259D01*
X163981000Y-124088741D01*
X163946376Y-124262812D01*
X163878456Y-124426784D01*
X163779853Y-124574354D01*
X163654354Y-124699853D01*
X163506784Y-124798456D01*
X163342812Y-124866376D01*
X163193512Y-124896073D01*
X163168742Y-124901000D01*
X162991258Y-124901000D01*
X162966488Y-124896073D01*
X162817188Y-124866376D01*
X162653216Y-124798456D01*
X162505646Y-124699853D01*
X162380147Y-124574354D01*
X162281544Y-124426784D01*
X162213624Y-124262812D01*
X162179000Y-124088741D01*
X162179000Y-123911259D01*
X162213624Y-123737188D01*
X162281544Y-123573216D01*
X162380147Y-123425646D01*
X162505646Y-123300147D01*
X162653216Y-123201544D01*
X162817188Y-123133624D01*
X162966488Y-123103927D01*
X162991258Y-123099000D01*
X163168742Y-123099000D01*
X163193512Y-123103927D01*
G37*
G36*
X160653512Y-123103927D02*
G01*
X160802812Y-123133624D01*
X160966784Y-123201544D01*
X161114354Y-123300147D01*
X161239853Y-123425646D01*
X161338456Y-123573216D01*
X161406376Y-123737188D01*
X161441000Y-123911259D01*
X161441000Y-124088741D01*
X161406376Y-124262812D01*
X161338456Y-124426784D01*
X161239853Y-124574354D01*
X161114354Y-124699853D01*
X160966784Y-124798456D01*
X160802812Y-124866376D01*
X160653512Y-124896073D01*
X160628742Y-124901000D01*
X160451258Y-124901000D01*
X160426488Y-124896073D01*
X160277188Y-124866376D01*
X160113216Y-124798456D01*
X159965646Y-124699853D01*
X159840147Y-124574354D01*
X159741544Y-124426784D01*
X159673624Y-124262812D01*
X159639000Y-124088741D01*
X159639000Y-123911259D01*
X159673624Y-123737188D01*
X159741544Y-123573216D01*
X159840147Y-123425646D01*
X159965646Y-123300147D01*
X160113216Y-123201544D01*
X160277188Y-123133624D01*
X160426488Y-123103927D01*
X160451258Y-123099000D01*
X160628742Y-123099000D01*
X160653512Y-123103927D01*
G37*
G36*
X158113512Y-120563927D02*
G01*
X158262812Y-120593624D01*
X158426784Y-120661544D01*
X158574354Y-120760147D01*
X158699853Y-120885646D01*
X158798456Y-121033216D01*
X158866376Y-121197188D01*
X158901000Y-121371259D01*
X158901000Y-121548741D01*
X158866376Y-121722812D01*
X158798456Y-121886784D01*
X158699853Y-122034354D01*
X158574354Y-122159853D01*
X158426784Y-122258456D01*
X158262812Y-122326376D01*
X158113512Y-122356073D01*
X158088742Y-122361000D01*
X157911258Y-122361000D01*
X157886488Y-122356073D01*
X157737188Y-122326376D01*
X157573216Y-122258456D01*
X157425646Y-122159853D01*
X157300147Y-122034354D01*
X157201544Y-121886784D01*
X157133624Y-121722812D01*
X157099000Y-121548741D01*
X157099000Y-121371259D01*
X157133624Y-121197188D01*
X157201544Y-121033216D01*
X157300147Y-120885646D01*
X157425646Y-120760147D01*
X157573216Y-120661544D01*
X157737188Y-120593624D01*
X157886488Y-120563927D01*
X157911258Y-120559000D01*
X158088742Y-120559000D01*
X158113512Y-120563927D01*
G37*
G36*
X160653512Y-120563927D02*
G01*
X160802812Y-120593624D01*
X160966784Y-120661544D01*
X161114354Y-120760147D01*
X161239853Y-120885646D01*
X161338456Y-121033216D01*
X161406376Y-121197188D01*
X161441000Y-121371259D01*
X161441000Y-121548741D01*
X161406376Y-121722812D01*
X161338456Y-121886784D01*
X161239853Y-122034354D01*
X161114354Y-122159853D01*
X160966784Y-122258456D01*
X160802812Y-122326376D01*
X160653512Y-122356073D01*
X160628742Y-122361000D01*
X160451258Y-122361000D01*
X160426488Y-122356073D01*
X160277188Y-122326376D01*
X160113216Y-122258456D01*
X159965646Y-122159853D01*
X159840147Y-122034354D01*
X159741544Y-121886784D01*
X159673624Y-121722812D01*
X159639000Y-121548741D01*
X159639000Y-121371259D01*
X159673624Y-121197188D01*
X159741544Y-121033216D01*
X159840147Y-120885646D01*
X159965646Y-120760147D01*
X160113216Y-120661544D01*
X160277188Y-120593624D01*
X160426488Y-120563927D01*
X160451258Y-120559000D01*
X160628742Y-120559000D01*
X160653512Y-120563927D01*
G37*
G36*
X163193512Y-120563927D02*
G01*
X163342812Y-120593624D01*
X163506784Y-120661544D01*
X163654354Y-120760147D01*
X163779853Y-120885646D01*
X163878456Y-121033216D01*
X163946376Y-121197188D01*
X163981000Y-121371259D01*
X163981000Y-121548741D01*
X163946376Y-121722812D01*
X163878456Y-121886784D01*
X163779853Y-122034354D01*
X163654354Y-122159853D01*
X163506784Y-122258456D01*
X163342812Y-122326376D01*
X163193512Y-122356073D01*
X163168742Y-122361000D01*
X162991258Y-122361000D01*
X162966488Y-122356073D01*
X162817188Y-122326376D01*
X162653216Y-122258456D01*
X162505646Y-122159853D01*
X162380147Y-122034354D01*
X162281544Y-121886784D01*
X162213624Y-121722812D01*
X162179000Y-121548741D01*
X162179000Y-121371259D01*
X162213624Y-121197188D01*
X162281544Y-121033216D01*
X162380147Y-120885646D01*
X162505646Y-120760147D01*
X162653216Y-120661544D01*
X162817188Y-120593624D01*
X162966488Y-120563927D01*
X162991258Y-120559000D01*
X163168742Y-120559000D01*
X163193512Y-120563927D01*
G37*
G36*
X182110401Y-110846054D02*
G01*
X182598322Y-110943107D01*
X183517546Y-111323862D01*
X184344825Y-111876632D01*
X185048368Y-112580175D01*
X185601138Y-113407454D01*
X185981893Y-114326678D01*
X186176000Y-115302520D01*
X186176000Y-116297480D01*
X185981893Y-117273322D01*
X185601138Y-118192546D01*
X185048368Y-119019825D01*
X184344825Y-119723368D01*
X183517546Y-120276138D01*
X182598322Y-120656893D01*
X182110401Y-120753947D01*
X181622481Y-120851000D01*
X180627519Y-120851000D01*
X180139599Y-120753947D01*
X179651678Y-120656893D01*
X178732454Y-120276138D01*
X177905175Y-119723368D01*
X177201632Y-119019825D01*
X176648862Y-118192546D01*
X176268107Y-117273322D01*
X176074000Y-116297480D01*
X176074000Y-115302520D01*
X176268107Y-114326678D01*
X176648862Y-113407454D01*
X177201632Y-112580175D01*
X177905175Y-111876632D01*
X178732454Y-111323862D01*
X179651678Y-110943107D01*
X180139599Y-110846054D01*
X180627519Y-110749000D01*
X181622481Y-110749000D01*
X182110401Y-110846054D01*
G37*
G36*
X169216000Y-118391000D02*
G01*
X164034000Y-118391000D01*
X164034000Y-113209000D01*
X169216000Y-113209000D01*
X169216000Y-118391000D01*
G37*
G36*
X198316000Y-118391000D02*
G01*
X193134000Y-118391000D01*
X193134000Y-113209000D01*
X198316000Y-113209000D01*
X198316000Y-118391000D01*
G37*
G36*
X203088674Y-116853465D02*
G01*
X203126367Y-116864899D01*
X203161103Y-116883466D01*
X203191548Y-116908452D01*
X203216534Y-116938897D01*
X203235101Y-116973633D01*
X203246535Y-117011326D01*
X203251000Y-117056661D01*
X203251000Y-118143339D01*
X203246535Y-118188674D01*
X203235101Y-118226367D01*
X203216534Y-118261103D01*
X203191548Y-118291548D01*
X203161103Y-118316534D01*
X203126367Y-118335101D01*
X203088674Y-118346535D01*
X203043339Y-118351000D01*
X202206661Y-118351000D01*
X202161326Y-118346535D01*
X202123633Y-118335101D01*
X202088897Y-118316534D01*
X202058452Y-118291548D01*
X202033466Y-118261103D01*
X202014899Y-118226367D01*
X202003465Y-118188674D01*
X201999000Y-118143339D01*
X201999000Y-117056661D01*
X202003465Y-117011326D01*
X202014899Y-116973633D01*
X202033466Y-116938897D01*
X202058452Y-116908452D01*
X202088897Y-116883466D01*
X202123633Y-116864899D01*
X202161326Y-116853465D01*
X202206661Y-116849000D01*
X203043339Y-116849000D01*
X203088674Y-116853465D01*
G37*
G36*
X201038674Y-116853465D02*
G01*
X201076367Y-116864899D01*
X201111103Y-116883466D01*
X201141548Y-116908452D01*
X201166534Y-116938897D01*
X201185101Y-116973633D01*
X201196535Y-117011326D01*
X201201000Y-117056661D01*
X201201000Y-118143339D01*
X201196535Y-118188674D01*
X201185101Y-118226367D01*
X201166534Y-118261103D01*
X201141548Y-118291548D01*
X201111103Y-118316534D01*
X201076367Y-118335101D01*
X201038674Y-118346535D01*
X200993339Y-118351000D01*
X200156661Y-118351000D01*
X200111326Y-118346535D01*
X200073633Y-118335101D01*
X200038897Y-118316534D01*
X200008452Y-118291548D01*
X199983466Y-118261103D01*
X199964899Y-118226367D01*
X199953465Y-118188674D01*
X199949000Y-118143339D01*
X199949000Y-117056661D01*
X199953465Y-117011326D01*
X199964899Y-116973633D01*
X199983466Y-116938897D01*
X200008452Y-116908452D01*
X200038897Y-116883466D01*
X200073633Y-116864899D01*
X200111326Y-116853465D01*
X200156661Y-116849000D01*
X200993339Y-116849000D01*
X201038674Y-116853465D01*
G37*
G36*
X201038674Y-113253465D02*
G01*
X201076367Y-113264899D01*
X201111103Y-113283466D01*
X201141548Y-113308452D01*
X201166534Y-113338897D01*
X201185101Y-113373633D01*
X201196535Y-113411326D01*
X201201000Y-113456661D01*
X201201000Y-114543339D01*
X201196535Y-114588674D01*
X201185101Y-114626367D01*
X201166534Y-114661103D01*
X201141548Y-114691548D01*
X201111103Y-114716534D01*
X201076367Y-114735101D01*
X201038674Y-114746535D01*
X200993339Y-114751000D01*
X200156661Y-114751000D01*
X200111326Y-114746535D01*
X200073633Y-114735101D01*
X200038897Y-114716534D01*
X200008452Y-114691548D01*
X199983466Y-114661103D01*
X199964899Y-114626367D01*
X199953465Y-114588674D01*
X199949000Y-114543339D01*
X199949000Y-113456661D01*
X199953465Y-113411326D01*
X199964899Y-113373633D01*
X199983466Y-113338897D01*
X200008452Y-113308452D01*
X200038897Y-113283466D01*
X200073633Y-113264899D01*
X200111326Y-113253465D01*
X200156661Y-113249000D01*
X200993339Y-113249000D01*
X201038674Y-113253465D01*
G37*
G36*
X203088674Y-113253465D02*
G01*
X203126367Y-113264899D01*
X203161103Y-113283466D01*
X203191548Y-113308452D01*
X203216534Y-113338897D01*
X203235101Y-113373633D01*
X203246535Y-113411326D01*
X203251000Y-113456661D01*
X203251000Y-114543339D01*
X203246535Y-114588674D01*
X203235101Y-114626367D01*
X203216534Y-114661103D01*
X203191548Y-114691548D01*
X203161103Y-114716534D01*
X203126367Y-114735101D01*
X203088674Y-114746535D01*
X203043339Y-114751000D01*
X202206661Y-114751000D01*
X202161326Y-114746535D01*
X202123633Y-114735101D01*
X202088897Y-114716534D01*
X202058452Y-114691548D01*
X202033466Y-114661103D01*
X202014899Y-114626367D01*
X202003465Y-114588674D01*
X201999000Y-114543339D01*
X201999000Y-113456661D01*
X202003465Y-113411326D01*
X202014899Y-113373633D01*
X202033466Y-113338897D01*
X202058452Y-113308452D01*
X202088897Y-113283466D01*
X202123633Y-113264899D01*
X202161326Y-113253465D01*
X202206661Y-113249000D01*
X203043339Y-113249000D01*
X203088674Y-113253465D01*
G37*
G36*
X203088674Y-109753465D02*
G01*
X203126367Y-109764899D01*
X203161103Y-109783466D01*
X203191548Y-109808452D01*
X203216534Y-109838897D01*
X203235101Y-109873633D01*
X203246535Y-109911326D01*
X203251000Y-109956661D01*
X203251000Y-111043339D01*
X203246535Y-111088674D01*
X203235101Y-111126367D01*
X203216534Y-111161103D01*
X203191548Y-111191548D01*
X203161103Y-111216534D01*
X203126367Y-111235101D01*
X203088674Y-111246535D01*
X203043339Y-111251000D01*
X202206661Y-111251000D01*
X202161326Y-111246535D01*
X202123633Y-111235101D01*
X202088897Y-111216534D01*
X202058452Y-111191548D01*
X202033466Y-111161103D01*
X202014899Y-111126367D01*
X202003465Y-111088674D01*
X201999000Y-111043339D01*
X201999000Y-109956661D01*
X202003465Y-109911326D01*
X202014899Y-109873633D01*
X202033466Y-109838897D01*
X202058452Y-109808452D01*
X202088897Y-109783466D01*
X202123633Y-109764899D01*
X202161326Y-109753465D01*
X202206661Y-109749000D01*
X203043339Y-109749000D01*
X203088674Y-109753465D01*
G37*
G36*
X201038674Y-109753465D02*
G01*
X201076367Y-109764899D01*
X201111103Y-109783466D01*
X201141548Y-109808452D01*
X201166534Y-109838897D01*
X201185101Y-109873633D01*
X201196535Y-109911326D01*
X201201000Y-109956661D01*
X201201000Y-111043339D01*
X201196535Y-111088674D01*
X201185101Y-111126367D01*
X201166534Y-111161103D01*
X201141548Y-111191548D01*
X201111103Y-111216534D01*
X201076367Y-111235101D01*
X201038674Y-111246535D01*
X200993339Y-111251000D01*
X200156661Y-111251000D01*
X200111326Y-111246535D01*
X200073633Y-111235101D01*
X200038897Y-111216534D01*
X200008452Y-111191548D01*
X199983466Y-111161103D01*
X199964899Y-111126367D01*
X199953465Y-111088674D01*
X199949000Y-111043339D01*
X199949000Y-109956661D01*
X199953465Y-109911326D01*
X199964899Y-109873633D01*
X199983466Y-109838897D01*
X200008452Y-109808452D01*
X200038897Y-109783466D01*
X200073633Y-109764899D01*
X200111326Y-109753465D01*
X200156661Y-109749000D01*
X200993339Y-109749000D01*
X201038674Y-109753465D01*
G37*
G36*
X203088674Y-106253465D02*
G01*
X203126367Y-106264899D01*
X203161103Y-106283466D01*
X203191548Y-106308452D01*
X203216534Y-106338897D01*
X203235101Y-106373633D01*
X203246535Y-106411326D01*
X203251000Y-106456661D01*
X203251000Y-107543339D01*
X203246535Y-107588674D01*
X203235101Y-107626367D01*
X203216534Y-107661103D01*
X203191548Y-107691548D01*
X203161103Y-107716534D01*
X203126367Y-107735101D01*
X203088674Y-107746535D01*
X203043339Y-107751000D01*
X202206661Y-107751000D01*
X202161326Y-107746535D01*
X202123633Y-107735101D01*
X202088897Y-107716534D01*
X202058452Y-107691548D01*
X202033466Y-107661103D01*
X202014899Y-107626367D01*
X202003465Y-107588674D01*
X201999000Y-107543339D01*
X201999000Y-106456661D01*
X202003465Y-106411326D01*
X202014899Y-106373633D01*
X202033466Y-106338897D01*
X202058452Y-106308452D01*
X202088897Y-106283466D01*
X202123633Y-106264899D01*
X202161326Y-106253465D01*
X202206661Y-106249000D01*
X203043339Y-106249000D01*
X203088674Y-106253465D01*
G37*
G36*
X201038674Y-106253465D02*
G01*
X201076367Y-106264899D01*
X201111103Y-106283466D01*
X201141548Y-106308452D01*
X201166534Y-106338897D01*
X201185101Y-106373633D01*
X201196535Y-106411326D01*
X201201000Y-106456661D01*
X201201000Y-107543339D01*
X201196535Y-107588674D01*
X201185101Y-107626367D01*
X201166534Y-107661103D01*
X201141548Y-107691548D01*
X201111103Y-107716534D01*
X201076367Y-107735101D01*
X201038674Y-107746535D01*
X200993339Y-107751000D01*
X200156661Y-107751000D01*
X200111326Y-107746535D01*
X200073633Y-107735101D01*
X200038897Y-107716534D01*
X200008452Y-107691548D01*
X199983466Y-107661103D01*
X199964899Y-107626367D01*
X199953465Y-107588674D01*
X199949000Y-107543339D01*
X199949000Y-106456661D01*
X199953465Y-106411326D01*
X199964899Y-106373633D01*
X199983466Y-106338897D01*
X200008452Y-106308452D01*
X200038897Y-106283466D01*
X200073633Y-106264899D01*
X200111326Y-106253465D01*
X200156661Y-106249000D01*
X200993339Y-106249000D01*
X201038674Y-106253465D01*
G37*
M02*
