G04 #@! TF.GenerationSoftware,KiCad,Pcbnew,(5.1.5)-3*
G04 #@! TF.CreationDate,2020-04-26T14:17:37-06:00*
G04 #@! TF.ProjectId,Dog Collar Light R1,446f6720-436f-46c6-9c61-72204c696768,rev?*
G04 #@! TF.SameCoordinates,Original*
G04 #@! TF.FileFunction,Legend,Top*
G04 #@! TF.FilePolarity,Positive*
%FSLAX46Y46*%
G04 Gerber Fmt 4.6, Leading zero omitted, Abs format (unit mm)*
G04 Created by KiCad (PCBNEW (5.1.5)-3) date 2020-04-26 14:17:37*
%MOMM*%
%LPD*%
G04 APERTURE LIST*
%ADD10C,0.120000*%
%ADD11C,0.100000*%
%ADD12C,0.150000*%
G04 APERTURE END LIST*
D10*
X196635000Y-120200000D02*
X196635000Y-116750000D01*
X196635000Y-120200000D02*
X196635000Y-122150000D01*
X187765000Y-120200000D02*
X187765000Y-118250000D01*
X187765000Y-120200000D02*
X187765000Y-122150000D01*
X198710000Y-121061252D02*
X198710000Y-120538748D01*
X197290000Y-121061252D02*
X197290000Y-120538748D01*
D11*
X188900000Y-104875000D02*
X189125000Y-104875000D01*
X188900000Y-105175000D02*
X188900000Y-104875000D01*
X190500000Y-104875000D02*
X190250000Y-104875000D01*
X190500000Y-105150000D02*
X190500000Y-104875000D01*
X188900000Y-107325000D02*
X189200000Y-107325000D01*
X188900000Y-107025000D02*
X188900000Y-107325000D01*
X190500000Y-107025000D02*
X190900000Y-107025000D01*
X190175000Y-107325000D02*
X190500000Y-107025000D01*
D10*
X164890000Y-107738748D02*
X164890000Y-108261252D01*
X166310000Y-107738748D02*
X166310000Y-108261252D01*
X168490000Y-107738748D02*
X168490000Y-108261252D01*
X169910000Y-107738748D02*
X169910000Y-108261252D01*
X161490000Y-107738748D02*
X161490000Y-108261252D01*
X162910000Y-107738748D02*
X162910000Y-108261252D01*
X202790000Y-108238748D02*
X202790000Y-108761252D01*
X204210000Y-108238748D02*
X204210000Y-108761252D01*
X198790000Y-108238748D02*
X198790000Y-108761252D01*
X200210000Y-108238748D02*
X200210000Y-108761252D01*
X195290000Y-108238748D02*
X195290000Y-108761252D01*
X196710000Y-108238748D02*
X196710000Y-108761252D01*
X176360000Y-121961252D02*
X176360000Y-121438748D01*
X174940000Y-121961252D02*
X174940000Y-121438748D01*
X192938748Y-114110000D02*
X193461252Y-114110000D01*
X192938748Y-112690000D02*
X193461252Y-112690000D01*
X173238748Y-116710000D02*
X173761252Y-116710000D01*
X173238748Y-115290000D02*
X173761252Y-115290000D01*
X159710000Y-108261252D02*
X159710000Y-107738748D01*
X158290000Y-108261252D02*
X158290000Y-107738748D01*
X183538748Y-123310000D02*
X184061252Y-123310000D01*
X183538748Y-121890000D02*
X184061252Y-121890000D01*
X181910000Y-106361252D02*
X181910000Y-105838748D01*
X180490000Y-106361252D02*
X180490000Y-105838748D01*
X185910000Y-106361252D02*
X185910000Y-105838748D01*
X184490000Y-106361252D02*
X184490000Y-105838748D01*
X156670000Y-125330000D02*
X156670000Y-124000000D01*
X158000000Y-125330000D02*
X156670000Y-125330000D01*
X156670000Y-122730000D02*
X156670000Y-120130000D01*
X159270000Y-122730000D02*
X156670000Y-122730000D01*
X159270000Y-125330000D02*
X159270000Y-122730000D01*
X156670000Y-120130000D02*
X164410000Y-120130000D01*
X159270000Y-125330000D02*
X164410000Y-125330000D01*
X164410000Y-125330000D02*
X164410000Y-120130000D01*
X182425223Y-114000000D02*
G75*
G03X182425223Y-114000000I-1400223J0D01*
G01*
D12*
X186152380Y-120961904D02*
X186961904Y-120961904D01*
X187057142Y-120914285D01*
X187104761Y-120866666D01*
X187152380Y-120771428D01*
X187152380Y-120580952D01*
X187104761Y-120485714D01*
X187057142Y-120438095D01*
X186961904Y-120390476D01*
X186152380Y-120390476D01*
X186247619Y-119961904D02*
X186200000Y-119914285D01*
X186152380Y-119819047D01*
X186152380Y-119580952D01*
X186200000Y-119485714D01*
X186247619Y-119438095D01*
X186342857Y-119390476D01*
X186438095Y-119390476D01*
X186580952Y-119438095D01*
X187152380Y-120009523D01*
X187152380Y-119390476D01*
X200357142Y-120966666D02*
X200404761Y-121014285D01*
X200452380Y-121157142D01*
X200452380Y-121252380D01*
X200404761Y-121395238D01*
X200309523Y-121490476D01*
X200214285Y-121538095D01*
X200023809Y-121585714D01*
X199880952Y-121585714D01*
X199690476Y-121538095D01*
X199595238Y-121490476D01*
X199500000Y-121395238D01*
X199452380Y-121252380D01*
X199452380Y-121157142D01*
X199500000Y-121014285D01*
X199547619Y-120966666D01*
X199452380Y-120633333D02*
X199452380Y-119966666D01*
X200452380Y-120395238D01*
X159461904Y-118452380D02*
X159461904Y-117452380D01*
X159700000Y-117452380D01*
X159842857Y-117500000D01*
X159938095Y-117595238D01*
X159985714Y-117690476D01*
X160033333Y-117880952D01*
X160033333Y-118023809D01*
X159985714Y-118214285D01*
X159938095Y-118309523D01*
X159842857Y-118404761D01*
X159700000Y-118452380D01*
X159461904Y-118452380D01*
X160985714Y-118452380D02*
X160414285Y-118452380D01*
X160700000Y-118452380D02*
X160700000Y-117452380D01*
X160604761Y-117595238D01*
X160509523Y-117690476D01*
X160414285Y-117738095D01*
X201136904Y-118427380D02*
X201136904Y-117427380D01*
X201375000Y-117427380D01*
X201517857Y-117475000D01*
X201613095Y-117570238D01*
X201660714Y-117665476D01*
X201708333Y-117855952D01*
X201708333Y-117998809D01*
X201660714Y-118189285D01*
X201613095Y-118284523D01*
X201517857Y-118379761D01*
X201375000Y-118427380D01*
X201136904Y-118427380D01*
X202089285Y-117522619D02*
X202136904Y-117475000D01*
X202232142Y-117427380D01*
X202470238Y-117427380D01*
X202565476Y-117475000D01*
X202613095Y-117522619D01*
X202660714Y-117617857D01*
X202660714Y-117713095D01*
X202613095Y-117855952D01*
X202041666Y-118427380D01*
X202660714Y-118427380D01*
X190147619Y-108295238D02*
X190100000Y-108390476D01*
X190004761Y-108485714D01*
X189861904Y-108628571D01*
X189814285Y-108723809D01*
X189814285Y-108819047D01*
X190052380Y-108771428D02*
X190004761Y-108866666D01*
X189909523Y-108961904D01*
X189719047Y-109009523D01*
X189385714Y-109009523D01*
X189195238Y-108961904D01*
X189100000Y-108866666D01*
X189052380Y-108771428D01*
X189052380Y-108580952D01*
X189100000Y-108485714D01*
X189195238Y-108390476D01*
X189385714Y-108342857D01*
X189719047Y-108342857D01*
X189909523Y-108390476D01*
X190004761Y-108485714D01*
X190052380Y-108580952D01*
X190052380Y-108771428D01*
X190052380Y-107390476D02*
X190052380Y-107961904D01*
X190052380Y-107676190D02*
X189052380Y-107676190D01*
X189195238Y-107771428D01*
X189290476Y-107866666D01*
X189338095Y-107961904D01*
X167702380Y-108166666D02*
X167226190Y-108500000D01*
X167702380Y-108738095D02*
X166702380Y-108738095D01*
X166702380Y-108357142D01*
X166750000Y-108261904D01*
X166797619Y-108214285D01*
X166892857Y-108166666D01*
X167035714Y-108166666D01*
X167130952Y-108214285D01*
X167178571Y-108261904D01*
X167226190Y-108357142D01*
X167226190Y-108738095D01*
X167702380Y-107214285D02*
X167702380Y-107785714D01*
X167702380Y-107500000D02*
X166702380Y-107500000D01*
X166845238Y-107595238D01*
X166940476Y-107690476D01*
X166988095Y-107785714D01*
X171302380Y-108166666D02*
X170826190Y-108500000D01*
X171302380Y-108738095D02*
X170302380Y-108738095D01*
X170302380Y-108357142D01*
X170350000Y-108261904D01*
X170397619Y-108214285D01*
X170492857Y-108166666D01*
X170635714Y-108166666D01*
X170730952Y-108214285D01*
X170778571Y-108261904D01*
X170826190Y-108357142D01*
X170826190Y-108738095D01*
X170397619Y-107785714D02*
X170350000Y-107738095D01*
X170302380Y-107642857D01*
X170302380Y-107404761D01*
X170350000Y-107309523D01*
X170397619Y-107261904D01*
X170492857Y-107214285D01*
X170588095Y-107214285D01*
X170730952Y-107261904D01*
X171302380Y-107833333D01*
X171302380Y-107214285D01*
X164302380Y-108166666D02*
X163826190Y-108500000D01*
X164302380Y-108738095D02*
X163302380Y-108738095D01*
X163302380Y-108357142D01*
X163350000Y-108261904D01*
X163397619Y-108214285D01*
X163492857Y-108166666D01*
X163635714Y-108166666D01*
X163730952Y-108214285D01*
X163778571Y-108261904D01*
X163826190Y-108357142D01*
X163826190Y-108738095D01*
X163302380Y-107833333D02*
X163302380Y-107214285D01*
X163683333Y-107547619D01*
X163683333Y-107404761D01*
X163730952Y-107309523D01*
X163778571Y-107261904D01*
X163873809Y-107214285D01*
X164111904Y-107214285D01*
X164207142Y-107261904D01*
X164254761Y-107309523D01*
X164302380Y-107404761D01*
X164302380Y-107690476D01*
X164254761Y-107785714D01*
X164207142Y-107833333D01*
X205602380Y-108666666D02*
X205126190Y-109000000D01*
X205602380Y-109238095D02*
X204602380Y-109238095D01*
X204602380Y-108857142D01*
X204650000Y-108761904D01*
X204697619Y-108714285D01*
X204792857Y-108666666D01*
X204935714Y-108666666D01*
X205030952Y-108714285D01*
X205078571Y-108761904D01*
X205126190Y-108857142D01*
X205126190Y-109238095D01*
X204935714Y-107809523D02*
X205602380Y-107809523D01*
X204554761Y-108047619D02*
X205269047Y-108285714D01*
X205269047Y-107666666D01*
X201602380Y-108666666D02*
X201126190Y-109000000D01*
X201602380Y-109238095D02*
X200602380Y-109238095D01*
X200602380Y-108857142D01*
X200650000Y-108761904D01*
X200697619Y-108714285D01*
X200792857Y-108666666D01*
X200935714Y-108666666D01*
X201030952Y-108714285D01*
X201078571Y-108761904D01*
X201126190Y-108857142D01*
X201126190Y-109238095D01*
X200602380Y-107761904D02*
X200602380Y-108238095D01*
X201078571Y-108285714D01*
X201030952Y-108238095D01*
X200983333Y-108142857D01*
X200983333Y-107904761D01*
X201030952Y-107809523D01*
X201078571Y-107761904D01*
X201173809Y-107714285D01*
X201411904Y-107714285D01*
X201507142Y-107761904D01*
X201554761Y-107809523D01*
X201602380Y-107904761D01*
X201602380Y-108142857D01*
X201554761Y-108238095D01*
X201507142Y-108285714D01*
X198102380Y-108666666D02*
X197626190Y-109000000D01*
X198102380Y-109238095D02*
X197102380Y-109238095D01*
X197102380Y-108857142D01*
X197150000Y-108761904D01*
X197197619Y-108714285D01*
X197292857Y-108666666D01*
X197435714Y-108666666D01*
X197530952Y-108714285D01*
X197578571Y-108761904D01*
X197626190Y-108857142D01*
X197626190Y-109238095D01*
X197102380Y-107809523D02*
X197102380Y-108000000D01*
X197150000Y-108095238D01*
X197197619Y-108142857D01*
X197340476Y-108238095D01*
X197530952Y-108285714D01*
X197911904Y-108285714D01*
X198007142Y-108238095D01*
X198054761Y-108190476D01*
X198102380Y-108095238D01*
X198102380Y-107904761D01*
X198054761Y-107809523D01*
X198007142Y-107761904D01*
X197911904Y-107714285D01*
X197673809Y-107714285D01*
X197578571Y-107761904D01*
X197530952Y-107809523D01*
X197483333Y-107904761D01*
X197483333Y-108095238D01*
X197530952Y-108190476D01*
X197578571Y-108238095D01*
X197673809Y-108285714D01*
X174452380Y-121866666D02*
X173976190Y-122200000D01*
X174452380Y-122438095D02*
X173452380Y-122438095D01*
X173452380Y-122057142D01*
X173500000Y-121961904D01*
X173547619Y-121914285D01*
X173642857Y-121866666D01*
X173785714Y-121866666D01*
X173880952Y-121914285D01*
X173928571Y-121961904D01*
X173976190Y-122057142D01*
X173976190Y-122438095D01*
X173452380Y-121533333D02*
X173452380Y-120866666D01*
X174452380Y-121295238D01*
X193033333Y-112202380D02*
X192700000Y-111726190D01*
X192461904Y-112202380D02*
X192461904Y-111202380D01*
X192842857Y-111202380D01*
X192938095Y-111250000D01*
X192985714Y-111297619D01*
X193033333Y-111392857D01*
X193033333Y-111535714D01*
X192985714Y-111630952D01*
X192938095Y-111678571D01*
X192842857Y-111726190D01*
X192461904Y-111726190D01*
X193604761Y-111630952D02*
X193509523Y-111583333D01*
X193461904Y-111535714D01*
X193414285Y-111440476D01*
X193414285Y-111392857D01*
X193461904Y-111297619D01*
X193509523Y-111250000D01*
X193604761Y-111202380D01*
X193795238Y-111202380D01*
X193890476Y-111250000D01*
X193938095Y-111297619D01*
X193985714Y-111392857D01*
X193985714Y-111440476D01*
X193938095Y-111535714D01*
X193890476Y-111583333D01*
X193795238Y-111630952D01*
X193604761Y-111630952D01*
X193509523Y-111678571D01*
X193461904Y-111726190D01*
X193414285Y-111821428D01*
X193414285Y-112011904D01*
X193461904Y-112107142D01*
X193509523Y-112154761D01*
X193604761Y-112202380D01*
X193795238Y-112202380D01*
X193890476Y-112154761D01*
X193938095Y-112107142D01*
X193985714Y-112011904D01*
X193985714Y-111821428D01*
X193938095Y-111726190D01*
X193890476Y-111678571D01*
X193795238Y-111630952D01*
X173333333Y-114802380D02*
X173000000Y-114326190D01*
X172761904Y-114802380D02*
X172761904Y-113802380D01*
X173142857Y-113802380D01*
X173238095Y-113850000D01*
X173285714Y-113897619D01*
X173333333Y-113992857D01*
X173333333Y-114135714D01*
X173285714Y-114230952D01*
X173238095Y-114278571D01*
X173142857Y-114326190D01*
X172761904Y-114326190D01*
X173809523Y-114802380D02*
X174000000Y-114802380D01*
X174095238Y-114754761D01*
X174142857Y-114707142D01*
X174238095Y-114564285D01*
X174285714Y-114373809D01*
X174285714Y-113992857D01*
X174238095Y-113897619D01*
X174190476Y-113850000D01*
X174095238Y-113802380D01*
X173904761Y-113802380D01*
X173809523Y-113850000D01*
X173761904Y-113897619D01*
X173714285Y-113992857D01*
X173714285Y-114230952D01*
X173761904Y-114326190D01*
X173809523Y-114373809D01*
X173904761Y-114421428D01*
X174095238Y-114421428D01*
X174190476Y-114373809D01*
X174238095Y-114326190D01*
X174285714Y-114230952D01*
X157802380Y-108642857D02*
X157326190Y-108976190D01*
X157802380Y-109214285D02*
X156802380Y-109214285D01*
X156802380Y-108833333D01*
X156850000Y-108738095D01*
X156897619Y-108690476D01*
X156992857Y-108642857D01*
X157135714Y-108642857D01*
X157230952Y-108690476D01*
X157278571Y-108738095D01*
X157326190Y-108833333D01*
X157326190Y-109214285D01*
X157802380Y-107690476D02*
X157802380Y-108261904D01*
X157802380Y-107976190D02*
X156802380Y-107976190D01*
X156945238Y-108071428D01*
X157040476Y-108166666D01*
X157088095Y-108261904D01*
X156802380Y-107071428D02*
X156802380Y-106976190D01*
X156850000Y-106880952D01*
X156897619Y-106833333D01*
X156992857Y-106785714D01*
X157183333Y-106738095D01*
X157421428Y-106738095D01*
X157611904Y-106785714D01*
X157707142Y-106833333D01*
X157754761Y-106880952D01*
X157802380Y-106976190D01*
X157802380Y-107071428D01*
X157754761Y-107166666D01*
X157707142Y-107214285D01*
X157611904Y-107261904D01*
X157421428Y-107309523D01*
X157183333Y-107309523D01*
X156992857Y-107261904D01*
X156897619Y-107214285D01*
X156850000Y-107166666D01*
X156802380Y-107071428D01*
X183157142Y-121402380D02*
X182823809Y-120926190D01*
X182585714Y-121402380D02*
X182585714Y-120402380D01*
X182966666Y-120402380D01*
X183061904Y-120450000D01*
X183109523Y-120497619D01*
X183157142Y-120592857D01*
X183157142Y-120735714D01*
X183109523Y-120830952D01*
X183061904Y-120878571D01*
X182966666Y-120926190D01*
X182585714Y-120926190D01*
X184109523Y-121402380D02*
X183538095Y-121402380D01*
X183823809Y-121402380D02*
X183823809Y-120402380D01*
X183728571Y-120545238D01*
X183633333Y-120640476D01*
X183538095Y-120688095D01*
X185061904Y-121402380D02*
X184490476Y-121402380D01*
X184776190Y-121402380D02*
X184776190Y-120402380D01*
X184680952Y-120545238D01*
X184585714Y-120640476D01*
X184490476Y-120688095D01*
X180002380Y-106742857D02*
X179526190Y-107076190D01*
X180002380Y-107314285D02*
X179002380Y-107314285D01*
X179002380Y-106933333D01*
X179050000Y-106838095D01*
X179097619Y-106790476D01*
X179192857Y-106742857D01*
X179335714Y-106742857D01*
X179430952Y-106790476D01*
X179478571Y-106838095D01*
X179526190Y-106933333D01*
X179526190Y-107314285D01*
X180002380Y-105790476D02*
X180002380Y-106361904D01*
X180002380Y-106076190D02*
X179002380Y-106076190D01*
X179145238Y-106171428D01*
X179240476Y-106266666D01*
X179288095Y-106361904D01*
X179097619Y-105409523D02*
X179050000Y-105361904D01*
X179002380Y-105266666D01*
X179002380Y-105028571D01*
X179050000Y-104933333D01*
X179097619Y-104885714D01*
X179192857Y-104838095D01*
X179288095Y-104838095D01*
X179430952Y-104885714D01*
X180002380Y-105457142D01*
X180002380Y-104838095D01*
X184002380Y-106742857D02*
X183526190Y-107076190D01*
X184002380Y-107314285D02*
X183002380Y-107314285D01*
X183002380Y-106933333D01*
X183050000Y-106838095D01*
X183097619Y-106790476D01*
X183192857Y-106742857D01*
X183335714Y-106742857D01*
X183430952Y-106790476D01*
X183478571Y-106838095D01*
X183526190Y-106933333D01*
X183526190Y-107314285D01*
X184002380Y-105790476D02*
X184002380Y-106361904D01*
X184002380Y-106076190D02*
X183002380Y-106076190D01*
X183145238Y-106171428D01*
X183240476Y-106266666D01*
X183288095Y-106361904D01*
X183002380Y-105457142D02*
X183002380Y-104838095D01*
X183383333Y-105171428D01*
X183383333Y-105028571D01*
X183430952Y-104933333D01*
X183478571Y-104885714D01*
X183573809Y-104838095D01*
X183811904Y-104838095D01*
X183907142Y-104885714D01*
X183954761Y-104933333D01*
X184002380Y-105028571D01*
X184002380Y-105314285D01*
X183954761Y-105409523D01*
X183907142Y-105457142D01*
X165052380Y-122533333D02*
X165766666Y-122533333D01*
X165909523Y-122580952D01*
X166004761Y-122676190D01*
X166052380Y-122819047D01*
X166052380Y-122914285D01*
X166052380Y-121533333D02*
X166052380Y-122104761D01*
X166052380Y-121819047D02*
X165052380Y-121819047D01*
X165195238Y-121914285D01*
X165290476Y-122009523D01*
X165338095Y-122104761D01*
X180438095Y-112204761D02*
X180580952Y-112252380D01*
X180819047Y-112252380D01*
X180914285Y-112204761D01*
X180961904Y-112157142D01*
X181009523Y-112061904D01*
X181009523Y-111966666D01*
X180961904Y-111871428D01*
X180914285Y-111823809D01*
X180819047Y-111776190D01*
X180628571Y-111728571D01*
X180533333Y-111680952D01*
X180485714Y-111633333D01*
X180438095Y-111538095D01*
X180438095Y-111442857D01*
X180485714Y-111347619D01*
X180533333Y-111300000D01*
X180628571Y-111252380D01*
X180866666Y-111252380D01*
X181009523Y-111300000D01*
X181961904Y-112252380D02*
X181390476Y-112252380D01*
X181676190Y-112252380D02*
X181676190Y-111252380D01*
X181580952Y-111395238D01*
X181485714Y-111490476D01*
X181390476Y-111538095D01*
M02*
