G04 #@! TF.GenerationSoftware,KiCad,Pcbnew,(5.1.5)-3*
G04 #@! TF.CreationDate,2020-04-26T14:17:37-06:00*
G04 #@! TF.ProjectId,Dog Collar Light R1,446f6720-436f-46c6-9c61-72204c696768,rev?*
G04 #@! TF.SameCoordinates,Original*
G04 #@! TF.FileFunction,Copper,L2,Bot*
G04 #@! TF.FilePolarity,Positive*
%FSLAX46Y46*%
G04 Gerber Fmt 4.6, Leading zero omitted, Abs format (unit mm)*
G04 Created by KiCad (PCBNEW (5.1.5)-3) date 2020-04-26 14:17:37*
%MOMM*%
%LPD*%
G04 APERTURE LIST*
%ADD10R,5.080000X5.080000*%
%ADD11C,10.000000*%
%ADD12C,0.100000*%
%ADD13O,1.700000X1.700000*%
%ADD14R,1.700000X1.700000*%
%ADD15C,0.800000*%
%ADD16C,0.250000*%
%ADD17C,0.254000*%
G04 APERTURE END LIST*
D10*
X195725000Y-115800000D03*
X166625000Y-115800000D03*
D11*
X181125000Y-115800000D03*
G04 #@! TA.AperFunction,SMDPad,CuDef*
D12*
G36*
X200924505Y-109801204D02*
G01*
X200948773Y-109804804D01*
X200972572Y-109810765D01*
X200995671Y-109819030D01*
X201017850Y-109829520D01*
X201038893Y-109842132D01*
X201058599Y-109856747D01*
X201076777Y-109873223D01*
X201093253Y-109891401D01*
X201107868Y-109911107D01*
X201120480Y-109932150D01*
X201130970Y-109954329D01*
X201139235Y-109977428D01*
X201145196Y-110001227D01*
X201148796Y-110025495D01*
X201150000Y-110049999D01*
X201150000Y-110950001D01*
X201148796Y-110974505D01*
X201145196Y-110998773D01*
X201139235Y-111022572D01*
X201130970Y-111045671D01*
X201120480Y-111067850D01*
X201107868Y-111088893D01*
X201093253Y-111108599D01*
X201076777Y-111126777D01*
X201058599Y-111143253D01*
X201038893Y-111157868D01*
X201017850Y-111170480D01*
X200995671Y-111180970D01*
X200972572Y-111189235D01*
X200948773Y-111195196D01*
X200924505Y-111198796D01*
X200900001Y-111200000D01*
X200249999Y-111200000D01*
X200225495Y-111198796D01*
X200201227Y-111195196D01*
X200177428Y-111189235D01*
X200154329Y-111180970D01*
X200132150Y-111170480D01*
X200111107Y-111157868D01*
X200091401Y-111143253D01*
X200073223Y-111126777D01*
X200056747Y-111108599D01*
X200042132Y-111088893D01*
X200029520Y-111067850D01*
X200019030Y-111045671D01*
X200010765Y-111022572D01*
X200004804Y-110998773D01*
X200001204Y-110974505D01*
X200000000Y-110950001D01*
X200000000Y-110049999D01*
X200001204Y-110025495D01*
X200004804Y-110001227D01*
X200010765Y-109977428D01*
X200019030Y-109954329D01*
X200029520Y-109932150D01*
X200042132Y-109911107D01*
X200056747Y-109891401D01*
X200073223Y-109873223D01*
X200091401Y-109856747D01*
X200111107Y-109842132D01*
X200132150Y-109829520D01*
X200154329Y-109819030D01*
X200177428Y-109810765D01*
X200201227Y-109804804D01*
X200225495Y-109801204D01*
X200249999Y-109800000D01*
X200900001Y-109800000D01*
X200924505Y-109801204D01*
G37*
G04 #@! TD.AperFunction*
G04 #@! TA.AperFunction,SMDPad,CuDef*
G36*
X202974505Y-109801204D02*
G01*
X202998773Y-109804804D01*
X203022572Y-109810765D01*
X203045671Y-109819030D01*
X203067850Y-109829520D01*
X203088893Y-109842132D01*
X203108599Y-109856747D01*
X203126777Y-109873223D01*
X203143253Y-109891401D01*
X203157868Y-109911107D01*
X203170480Y-109932150D01*
X203180970Y-109954329D01*
X203189235Y-109977428D01*
X203195196Y-110001227D01*
X203198796Y-110025495D01*
X203200000Y-110049999D01*
X203200000Y-110950001D01*
X203198796Y-110974505D01*
X203195196Y-110998773D01*
X203189235Y-111022572D01*
X203180970Y-111045671D01*
X203170480Y-111067850D01*
X203157868Y-111088893D01*
X203143253Y-111108599D01*
X203126777Y-111126777D01*
X203108599Y-111143253D01*
X203088893Y-111157868D01*
X203067850Y-111170480D01*
X203045671Y-111180970D01*
X203022572Y-111189235D01*
X202998773Y-111195196D01*
X202974505Y-111198796D01*
X202950001Y-111200000D01*
X202299999Y-111200000D01*
X202275495Y-111198796D01*
X202251227Y-111195196D01*
X202227428Y-111189235D01*
X202204329Y-111180970D01*
X202182150Y-111170480D01*
X202161107Y-111157868D01*
X202141401Y-111143253D01*
X202123223Y-111126777D01*
X202106747Y-111108599D01*
X202092132Y-111088893D01*
X202079520Y-111067850D01*
X202069030Y-111045671D01*
X202060765Y-111022572D01*
X202054804Y-110998773D01*
X202051204Y-110974505D01*
X202050000Y-110950001D01*
X202050000Y-110049999D01*
X202051204Y-110025495D01*
X202054804Y-110001227D01*
X202060765Y-109977428D01*
X202069030Y-109954329D01*
X202079520Y-109932150D01*
X202092132Y-109911107D01*
X202106747Y-109891401D01*
X202123223Y-109873223D01*
X202141401Y-109856747D01*
X202161107Y-109842132D01*
X202182150Y-109829520D01*
X202204329Y-109819030D01*
X202227428Y-109810765D01*
X202251227Y-109804804D01*
X202275495Y-109801204D01*
X202299999Y-109800000D01*
X202950001Y-109800000D01*
X202974505Y-109801204D01*
G37*
G04 #@! TD.AperFunction*
G04 #@! TA.AperFunction,SMDPad,CuDef*
G36*
X200924505Y-106301204D02*
G01*
X200948773Y-106304804D01*
X200972572Y-106310765D01*
X200995671Y-106319030D01*
X201017850Y-106329520D01*
X201038893Y-106342132D01*
X201058599Y-106356747D01*
X201076777Y-106373223D01*
X201093253Y-106391401D01*
X201107868Y-106411107D01*
X201120480Y-106432150D01*
X201130970Y-106454329D01*
X201139235Y-106477428D01*
X201145196Y-106501227D01*
X201148796Y-106525495D01*
X201150000Y-106549999D01*
X201150000Y-107450001D01*
X201148796Y-107474505D01*
X201145196Y-107498773D01*
X201139235Y-107522572D01*
X201130970Y-107545671D01*
X201120480Y-107567850D01*
X201107868Y-107588893D01*
X201093253Y-107608599D01*
X201076777Y-107626777D01*
X201058599Y-107643253D01*
X201038893Y-107657868D01*
X201017850Y-107670480D01*
X200995671Y-107680970D01*
X200972572Y-107689235D01*
X200948773Y-107695196D01*
X200924505Y-107698796D01*
X200900001Y-107700000D01*
X200249999Y-107700000D01*
X200225495Y-107698796D01*
X200201227Y-107695196D01*
X200177428Y-107689235D01*
X200154329Y-107680970D01*
X200132150Y-107670480D01*
X200111107Y-107657868D01*
X200091401Y-107643253D01*
X200073223Y-107626777D01*
X200056747Y-107608599D01*
X200042132Y-107588893D01*
X200029520Y-107567850D01*
X200019030Y-107545671D01*
X200010765Y-107522572D01*
X200004804Y-107498773D01*
X200001204Y-107474505D01*
X200000000Y-107450001D01*
X200000000Y-106549999D01*
X200001204Y-106525495D01*
X200004804Y-106501227D01*
X200010765Y-106477428D01*
X200019030Y-106454329D01*
X200029520Y-106432150D01*
X200042132Y-106411107D01*
X200056747Y-106391401D01*
X200073223Y-106373223D01*
X200091401Y-106356747D01*
X200111107Y-106342132D01*
X200132150Y-106329520D01*
X200154329Y-106319030D01*
X200177428Y-106310765D01*
X200201227Y-106304804D01*
X200225495Y-106301204D01*
X200249999Y-106300000D01*
X200900001Y-106300000D01*
X200924505Y-106301204D01*
G37*
G04 #@! TD.AperFunction*
G04 #@! TA.AperFunction,SMDPad,CuDef*
G36*
X202974505Y-106301204D02*
G01*
X202998773Y-106304804D01*
X203022572Y-106310765D01*
X203045671Y-106319030D01*
X203067850Y-106329520D01*
X203088893Y-106342132D01*
X203108599Y-106356747D01*
X203126777Y-106373223D01*
X203143253Y-106391401D01*
X203157868Y-106411107D01*
X203170480Y-106432150D01*
X203180970Y-106454329D01*
X203189235Y-106477428D01*
X203195196Y-106501227D01*
X203198796Y-106525495D01*
X203200000Y-106549999D01*
X203200000Y-107450001D01*
X203198796Y-107474505D01*
X203195196Y-107498773D01*
X203189235Y-107522572D01*
X203180970Y-107545671D01*
X203170480Y-107567850D01*
X203157868Y-107588893D01*
X203143253Y-107608599D01*
X203126777Y-107626777D01*
X203108599Y-107643253D01*
X203088893Y-107657868D01*
X203067850Y-107670480D01*
X203045671Y-107680970D01*
X203022572Y-107689235D01*
X202998773Y-107695196D01*
X202974505Y-107698796D01*
X202950001Y-107700000D01*
X202299999Y-107700000D01*
X202275495Y-107698796D01*
X202251227Y-107695196D01*
X202227428Y-107689235D01*
X202204329Y-107680970D01*
X202182150Y-107670480D01*
X202161107Y-107657868D01*
X202141401Y-107643253D01*
X202123223Y-107626777D01*
X202106747Y-107608599D01*
X202092132Y-107588893D01*
X202079520Y-107567850D01*
X202069030Y-107545671D01*
X202060765Y-107522572D01*
X202054804Y-107498773D01*
X202051204Y-107474505D01*
X202050000Y-107450001D01*
X202050000Y-106549999D01*
X202051204Y-106525495D01*
X202054804Y-106501227D01*
X202060765Y-106477428D01*
X202069030Y-106454329D01*
X202079520Y-106432150D01*
X202092132Y-106411107D01*
X202106747Y-106391401D01*
X202123223Y-106373223D01*
X202141401Y-106356747D01*
X202161107Y-106342132D01*
X202182150Y-106329520D01*
X202204329Y-106319030D01*
X202227428Y-106310765D01*
X202251227Y-106304804D01*
X202275495Y-106301204D01*
X202299999Y-106300000D01*
X202950001Y-106300000D01*
X202974505Y-106301204D01*
G37*
G04 #@! TD.AperFunction*
G04 #@! TA.AperFunction,SMDPad,CuDef*
G36*
X200924505Y-113301204D02*
G01*
X200948773Y-113304804D01*
X200972572Y-113310765D01*
X200995671Y-113319030D01*
X201017850Y-113329520D01*
X201038893Y-113342132D01*
X201058599Y-113356747D01*
X201076777Y-113373223D01*
X201093253Y-113391401D01*
X201107868Y-113411107D01*
X201120480Y-113432150D01*
X201130970Y-113454329D01*
X201139235Y-113477428D01*
X201145196Y-113501227D01*
X201148796Y-113525495D01*
X201150000Y-113549999D01*
X201150000Y-114450001D01*
X201148796Y-114474505D01*
X201145196Y-114498773D01*
X201139235Y-114522572D01*
X201130970Y-114545671D01*
X201120480Y-114567850D01*
X201107868Y-114588893D01*
X201093253Y-114608599D01*
X201076777Y-114626777D01*
X201058599Y-114643253D01*
X201038893Y-114657868D01*
X201017850Y-114670480D01*
X200995671Y-114680970D01*
X200972572Y-114689235D01*
X200948773Y-114695196D01*
X200924505Y-114698796D01*
X200900001Y-114700000D01*
X200249999Y-114700000D01*
X200225495Y-114698796D01*
X200201227Y-114695196D01*
X200177428Y-114689235D01*
X200154329Y-114680970D01*
X200132150Y-114670480D01*
X200111107Y-114657868D01*
X200091401Y-114643253D01*
X200073223Y-114626777D01*
X200056747Y-114608599D01*
X200042132Y-114588893D01*
X200029520Y-114567850D01*
X200019030Y-114545671D01*
X200010765Y-114522572D01*
X200004804Y-114498773D01*
X200001204Y-114474505D01*
X200000000Y-114450001D01*
X200000000Y-113549999D01*
X200001204Y-113525495D01*
X200004804Y-113501227D01*
X200010765Y-113477428D01*
X200019030Y-113454329D01*
X200029520Y-113432150D01*
X200042132Y-113411107D01*
X200056747Y-113391401D01*
X200073223Y-113373223D01*
X200091401Y-113356747D01*
X200111107Y-113342132D01*
X200132150Y-113329520D01*
X200154329Y-113319030D01*
X200177428Y-113310765D01*
X200201227Y-113304804D01*
X200225495Y-113301204D01*
X200249999Y-113300000D01*
X200900001Y-113300000D01*
X200924505Y-113301204D01*
G37*
G04 #@! TD.AperFunction*
G04 #@! TA.AperFunction,SMDPad,CuDef*
G36*
X202974505Y-113301204D02*
G01*
X202998773Y-113304804D01*
X203022572Y-113310765D01*
X203045671Y-113319030D01*
X203067850Y-113329520D01*
X203088893Y-113342132D01*
X203108599Y-113356747D01*
X203126777Y-113373223D01*
X203143253Y-113391401D01*
X203157868Y-113411107D01*
X203170480Y-113432150D01*
X203180970Y-113454329D01*
X203189235Y-113477428D01*
X203195196Y-113501227D01*
X203198796Y-113525495D01*
X203200000Y-113549999D01*
X203200000Y-114450001D01*
X203198796Y-114474505D01*
X203195196Y-114498773D01*
X203189235Y-114522572D01*
X203180970Y-114545671D01*
X203170480Y-114567850D01*
X203157868Y-114588893D01*
X203143253Y-114608599D01*
X203126777Y-114626777D01*
X203108599Y-114643253D01*
X203088893Y-114657868D01*
X203067850Y-114670480D01*
X203045671Y-114680970D01*
X203022572Y-114689235D01*
X202998773Y-114695196D01*
X202974505Y-114698796D01*
X202950001Y-114700000D01*
X202299999Y-114700000D01*
X202275495Y-114698796D01*
X202251227Y-114695196D01*
X202227428Y-114689235D01*
X202204329Y-114680970D01*
X202182150Y-114670480D01*
X202161107Y-114657868D01*
X202141401Y-114643253D01*
X202123223Y-114626777D01*
X202106747Y-114608599D01*
X202092132Y-114588893D01*
X202079520Y-114567850D01*
X202069030Y-114545671D01*
X202060765Y-114522572D01*
X202054804Y-114498773D01*
X202051204Y-114474505D01*
X202050000Y-114450001D01*
X202050000Y-113549999D01*
X202051204Y-113525495D01*
X202054804Y-113501227D01*
X202060765Y-113477428D01*
X202069030Y-113454329D01*
X202079520Y-113432150D01*
X202092132Y-113411107D01*
X202106747Y-113391401D01*
X202123223Y-113373223D01*
X202141401Y-113356747D01*
X202161107Y-113342132D01*
X202182150Y-113329520D01*
X202204329Y-113319030D01*
X202227428Y-113310765D01*
X202251227Y-113304804D01*
X202275495Y-113301204D01*
X202299999Y-113300000D01*
X202950001Y-113300000D01*
X202974505Y-113301204D01*
G37*
G04 #@! TD.AperFunction*
G04 #@! TA.AperFunction,SMDPad,CuDef*
G36*
X200924505Y-116901204D02*
G01*
X200948773Y-116904804D01*
X200972572Y-116910765D01*
X200995671Y-116919030D01*
X201017850Y-116929520D01*
X201038893Y-116942132D01*
X201058599Y-116956747D01*
X201076777Y-116973223D01*
X201093253Y-116991401D01*
X201107868Y-117011107D01*
X201120480Y-117032150D01*
X201130970Y-117054329D01*
X201139235Y-117077428D01*
X201145196Y-117101227D01*
X201148796Y-117125495D01*
X201150000Y-117149999D01*
X201150000Y-118050001D01*
X201148796Y-118074505D01*
X201145196Y-118098773D01*
X201139235Y-118122572D01*
X201130970Y-118145671D01*
X201120480Y-118167850D01*
X201107868Y-118188893D01*
X201093253Y-118208599D01*
X201076777Y-118226777D01*
X201058599Y-118243253D01*
X201038893Y-118257868D01*
X201017850Y-118270480D01*
X200995671Y-118280970D01*
X200972572Y-118289235D01*
X200948773Y-118295196D01*
X200924505Y-118298796D01*
X200900001Y-118300000D01*
X200249999Y-118300000D01*
X200225495Y-118298796D01*
X200201227Y-118295196D01*
X200177428Y-118289235D01*
X200154329Y-118280970D01*
X200132150Y-118270480D01*
X200111107Y-118257868D01*
X200091401Y-118243253D01*
X200073223Y-118226777D01*
X200056747Y-118208599D01*
X200042132Y-118188893D01*
X200029520Y-118167850D01*
X200019030Y-118145671D01*
X200010765Y-118122572D01*
X200004804Y-118098773D01*
X200001204Y-118074505D01*
X200000000Y-118050001D01*
X200000000Y-117149999D01*
X200001204Y-117125495D01*
X200004804Y-117101227D01*
X200010765Y-117077428D01*
X200019030Y-117054329D01*
X200029520Y-117032150D01*
X200042132Y-117011107D01*
X200056747Y-116991401D01*
X200073223Y-116973223D01*
X200091401Y-116956747D01*
X200111107Y-116942132D01*
X200132150Y-116929520D01*
X200154329Y-116919030D01*
X200177428Y-116910765D01*
X200201227Y-116904804D01*
X200225495Y-116901204D01*
X200249999Y-116900000D01*
X200900001Y-116900000D01*
X200924505Y-116901204D01*
G37*
G04 #@! TD.AperFunction*
G04 #@! TA.AperFunction,SMDPad,CuDef*
G36*
X202974505Y-116901204D02*
G01*
X202998773Y-116904804D01*
X203022572Y-116910765D01*
X203045671Y-116919030D01*
X203067850Y-116929520D01*
X203088893Y-116942132D01*
X203108599Y-116956747D01*
X203126777Y-116973223D01*
X203143253Y-116991401D01*
X203157868Y-117011107D01*
X203170480Y-117032150D01*
X203180970Y-117054329D01*
X203189235Y-117077428D01*
X203195196Y-117101227D01*
X203198796Y-117125495D01*
X203200000Y-117149999D01*
X203200000Y-118050001D01*
X203198796Y-118074505D01*
X203195196Y-118098773D01*
X203189235Y-118122572D01*
X203180970Y-118145671D01*
X203170480Y-118167850D01*
X203157868Y-118188893D01*
X203143253Y-118208599D01*
X203126777Y-118226777D01*
X203108599Y-118243253D01*
X203088893Y-118257868D01*
X203067850Y-118270480D01*
X203045671Y-118280970D01*
X203022572Y-118289235D01*
X202998773Y-118295196D01*
X202974505Y-118298796D01*
X202950001Y-118300000D01*
X202299999Y-118300000D01*
X202275495Y-118298796D01*
X202251227Y-118295196D01*
X202227428Y-118289235D01*
X202204329Y-118280970D01*
X202182150Y-118270480D01*
X202161107Y-118257868D01*
X202141401Y-118243253D01*
X202123223Y-118226777D01*
X202106747Y-118208599D01*
X202092132Y-118188893D01*
X202079520Y-118167850D01*
X202069030Y-118145671D01*
X202060765Y-118122572D01*
X202054804Y-118098773D01*
X202051204Y-118074505D01*
X202050000Y-118050001D01*
X202050000Y-117149999D01*
X202051204Y-117125495D01*
X202054804Y-117101227D01*
X202060765Y-117077428D01*
X202069030Y-117054329D01*
X202079520Y-117032150D01*
X202092132Y-117011107D01*
X202106747Y-116991401D01*
X202123223Y-116973223D01*
X202141401Y-116956747D01*
X202161107Y-116942132D01*
X202182150Y-116929520D01*
X202204329Y-116919030D01*
X202227428Y-116910765D01*
X202251227Y-116904804D01*
X202275495Y-116901204D01*
X202299999Y-116900000D01*
X202950001Y-116900000D01*
X202974505Y-116901204D01*
G37*
G04 #@! TD.AperFunction*
D13*
X163080000Y-121460000D03*
X163080000Y-124000000D03*
X160540000Y-121460000D03*
X160540000Y-124000000D03*
X158000000Y-121460000D03*
D14*
X158000000Y-124000000D03*
D15*
X161200000Y-119000000D03*
X156800000Y-119000000D03*
X197200000Y-112659998D03*
X163150000Y-116950002D03*
X159341848Y-117008152D03*
X179400000Y-114600000D03*
X197600000Y-105400000D03*
X197600000Y-107600000D03*
X199600000Y-119000000D03*
X203900000Y-119900000D03*
X196100000Y-120800000D03*
X196100000Y-112000000D03*
X189650000Y-120300000D03*
X172100000Y-121850000D03*
X202000000Y-105400000D03*
X193200000Y-105200000D03*
X167000000Y-123600000D03*
X167229847Y-120220153D03*
X194400000Y-106200000D03*
X194400000Y-111200000D03*
X199400000Y-106200000D03*
X193000000Y-108600000D03*
X165200000Y-111600000D03*
X192600000Y-106400000D03*
X161800000Y-105200000D03*
X165600000Y-124325000D03*
X163275000Y-104475000D03*
X167000000Y-125050000D03*
X159587347Y-104787347D03*
X191587347Y-106412653D03*
X200187347Y-104612653D03*
D16*
X194900000Y-116625000D02*
X195725000Y-115800000D01*
X194900000Y-119850000D02*
X194900000Y-116625000D01*
X194120000Y-119850000D02*
X194044999Y-119925001D01*
X194044999Y-119925001D02*
X194044999Y-123444999D01*
X194900000Y-119850000D02*
X194120000Y-119850000D01*
X202625000Y-107700000D02*
X202625000Y-110500000D01*
X202625000Y-107000000D02*
X202625000Y-107700000D01*
X202625000Y-114000000D02*
X202625000Y-113300000D01*
X202625000Y-114000000D02*
X202625000Y-117600000D01*
X161200000Y-119000000D02*
X156800000Y-119000000D01*
X202625000Y-113300000D02*
X202625000Y-110500000D01*
X198590001Y-120396829D02*
X195875010Y-123111820D01*
X197515003Y-111648187D02*
X197515003Y-111925001D01*
X202163190Y-107000000D02*
X197515003Y-111648187D01*
X202625000Y-107000000D02*
X202163190Y-107000000D01*
X197850000Y-112575683D02*
X197850000Y-112300000D01*
X197765685Y-112659998D02*
X197850000Y-112575683D01*
X197200000Y-112659998D02*
X197765685Y-112659998D01*
X197515003Y-111925001D02*
X197850000Y-112300000D01*
X197850000Y-112300000D02*
X198590001Y-112999999D01*
X198590001Y-112999999D02*
X198590001Y-120396829D01*
X195588180Y-123111820D02*
X193950000Y-124750000D01*
X195875010Y-123111820D02*
X195588180Y-123111820D01*
X193155001Y-124594999D02*
X193000000Y-124750000D01*
X193155001Y-123444999D02*
X193155001Y-124594999D01*
X193155001Y-123444999D02*
X171444999Y-123444999D01*
X193950000Y-124750000D02*
X193000000Y-124750000D01*
X194044999Y-123444999D02*
X193155001Y-123444999D01*
X166625000Y-115800000D02*
X163835000Y-115800000D01*
X161200000Y-118866304D02*
X161200000Y-119000000D01*
X159341848Y-117008152D02*
X161200000Y-118866304D01*
X163835000Y-116265002D02*
X163150000Y-116950002D01*
X163835000Y-115800000D02*
X163835000Y-116265002D01*
X165032698Y-116950002D02*
X163715685Y-116950002D01*
X171374999Y-123374999D02*
X171374999Y-123292303D01*
X163715685Y-116950002D02*
X163150000Y-116950002D01*
X171374999Y-123292303D02*
X165032698Y-116950002D01*
X171444999Y-123444999D02*
X171374999Y-123374999D01*
X200575000Y-106300000D02*
X199675000Y-105400000D01*
X200575000Y-107000000D02*
X200575000Y-106300000D01*
X199675000Y-105400000D02*
X198600000Y-105400000D01*
X198600000Y-105400000D02*
X198200000Y-105400000D01*
X198200000Y-105400000D02*
X197600000Y-105400000D01*
X200575000Y-117600000D02*
X200575000Y-118025000D01*
X200575000Y-118025000D02*
X199600000Y-119000000D01*
X194900000Y-120800000D02*
X196100000Y-120800000D01*
X198200000Y-107000000D02*
X197600000Y-107600000D01*
X200575000Y-107000000D02*
X198200000Y-107000000D01*
X194525001Y-103874999D02*
X193200000Y-105200000D01*
X202000000Y-105400000D02*
X200474999Y-103874999D01*
X200474999Y-103874999D02*
X194525001Y-103874999D01*
X167229847Y-123370153D02*
X167000000Y-123600000D01*
X167229847Y-120220153D02*
X167229847Y-123370153D01*
X194400000Y-106200000D02*
X194400000Y-111200000D01*
X199400000Y-106200000D02*
X194400000Y-106200000D01*
X193000000Y-108600000D02*
X168200000Y-108600000D01*
X168200000Y-108600000D02*
X165200000Y-111600000D01*
X192600000Y-106400000D02*
X191400000Y-105200000D01*
X191400000Y-105200000D02*
X161800000Y-105200000D01*
X165600000Y-124325000D02*
X165600000Y-120440002D01*
X161074999Y-104851999D02*
X161451998Y-104475000D01*
X161451998Y-104475000D02*
X163275000Y-104475000D01*
X163275000Y-104475000D02*
X163400000Y-104475000D01*
X161074999Y-115915001D02*
X161074999Y-104851999D01*
X165600000Y-120440002D02*
X161074999Y-115915001D01*
X165251998Y-125050000D02*
X164255001Y-124053003D01*
X164255001Y-124053003D02*
X164255001Y-120895999D01*
X167000000Y-125050000D02*
X165251998Y-125050000D01*
X159587347Y-116228345D02*
X159587347Y-104787347D01*
X164255001Y-120895999D02*
X159587347Y-116228345D01*
X192299695Y-107125001D02*
X192962651Y-107125001D01*
X191587347Y-106412653D02*
X192299695Y-107125001D01*
X192962651Y-107125001D02*
X193674999Y-106412653D01*
X193674999Y-106412653D02*
X193674999Y-105851999D01*
X193674999Y-105851999D02*
X194926998Y-104600000D01*
X200187347Y-104612653D02*
X195412653Y-104612653D01*
X195412653Y-104612653D02*
X195400000Y-104600000D01*
X194926998Y-104600000D02*
X195400000Y-104600000D01*
X195400000Y-104600000D02*
X195600000Y-104600000D01*
D17*
G36*
X205540000Y-106673381D02*
G01*
X205540001Y-122726618D01*
X203126620Y-125140000D01*
X194634801Y-125140000D01*
X195901961Y-123872841D01*
X195912332Y-123871820D01*
X195912343Y-123871820D01*
X196023996Y-123860823D01*
X196167257Y-123817366D01*
X196299286Y-123746794D01*
X196415011Y-123651821D01*
X196438814Y-123622817D01*
X199101004Y-120960628D01*
X199130002Y-120936830D01*
X199218703Y-120828748D01*
X199224975Y-120821106D01*
X199295547Y-120689076D01*
X199313301Y-120630547D01*
X199339004Y-120545815D01*
X199350001Y-120434162D01*
X199350001Y-120434153D01*
X199353677Y-120396830D01*
X199350001Y-120359507D01*
X199350001Y-118300000D01*
X199361928Y-118300000D01*
X199374188Y-118424482D01*
X199410498Y-118544180D01*
X199469463Y-118654494D01*
X199548815Y-118751185D01*
X199645506Y-118830537D01*
X199755820Y-118889502D01*
X199875518Y-118925812D01*
X200000000Y-118938072D01*
X200289250Y-118935000D01*
X200448000Y-118776250D01*
X200448000Y-117727000D01*
X199523750Y-117727000D01*
X199365000Y-117885750D01*
X199361928Y-118300000D01*
X199350001Y-118300000D01*
X199350001Y-116900000D01*
X199361928Y-116900000D01*
X199365000Y-117314250D01*
X199523750Y-117473000D01*
X200448000Y-117473000D01*
X200448000Y-116423750D01*
X200289250Y-116265000D01*
X200000000Y-116261928D01*
X199875518Y-116274188D01*
X199755820Y-116310498D01*
X199645506Y-116369463D01*
X199548815Y-116448815D01*
X199469463Y-116545506D01*
X199410498Y-116655820D01*
X199374188Y-116775518D01*
X199361928Y-116900000D01*
X199350001Y-116900000D01*
X199350001Y-114700000D01*
X199361928Y-114700000D01*
X199374188Y-114824482D01*
X199410498Y-114944180D01*
X199469463Y-115054494D01*
X199548815Y-115151185D01*
X199645506Y-115230537D01*
X199755820Y-115289502D01*
X199875518Y-115325812D01*
X200000000Y-115338072D01*
X200289250Y-115335000D01*
X200448000Y-115176250D01*
X200448000Y-114127000D01*
X199523750Y-114127000D01*
X199365000Y-114285750D01*
X199361928Y-114700000D01*
X199350001Y-114700000D01*
X199350001Y-113300000D01*
X199361928Y-113300000D01*
X199365000Y-113714250D01*
X199523750Y-113873000D01*
X200448000Y-113873000D01*
X200448000Y-112823750D01*
X200289250Y-112665000D01*
X200000000Y-112661928D01*
X199875518Y-112674188D01*
X199755820Y-112710498D01*
X199645506Y-112769463D01*
X199548815Y-112848815D01*
X199469463Y-112945506D01*
X199410498Y-113055820D01*
X199374188Y-113175518D01*
X199361928Y-113300000D01*
X199350001Y-113300000D01*
X199350001Y-113026752D01*
X199353383Y-112978793D01*
X199345308Y-112915014D01*
X199339004Y-112851013D01*
X199335915Y-112840828D01*
X199334578Y-112830272D01*
X199314213Y-112769286D01*
X199295547Y-112707752D01*
X199290531Y-112698368D01*
X199287160Y-112688273D01*
X199255279Y-112632416D01*
X199224975Y-112575723D01*
X199218226Y-112567499D01*
X199212949Y-112558254D01*
X199170785Y-112509692D01*
X199130002Y-112459998D01*
X199092837Y-112429498D01*
X198432825Y-111805166D01*
X199364348Y-110873643D01*
X199361928Y-111200000D01*
X199374188Y-111324482D01*
X199410498Y-111444180D01*
X199469463Y-111554494D01*
X199548815Y-111651185D01*
X199645506Y-111730537D01*
X199755820Y-111789502D01*
X199875518Y-111825812D01*
X200000000Y-111838072D01*
X200289250Y-111835000D01*
X200448000Y-111676250D01*
X200448000Y-110627000D01*
X200428000Y-110627000D01*
X200428000Y-110373000D01*
X200448000Y-110373000D01*
X200448000Y-110353000D01*
X200702000Y-110353000D01*
X200702000Y-110373000D01*
X200722000Y-110373000D01*
X200722000Y-110627000D01*
X200702000Y-110627000D01*
X200702000Y-111676250D01*
X200860750Y-111835000D01*
X201150000Y-111838072D01*
X201274482Y-111825812D01*
X201394180Y-111789502D01*
X201504494Y-111730537D01*
X201601185Y-111651185D01*
X201666658Y-111571406D01*
X201672038Y-111577962D01*
X201806613Y-111688405D01*
X201865001Y-111719614D01*
X201865000Y-112780386D01*
X201806613Y-112811595D01*
X201672038Y-112922038D01*
X201666658Y-112928594D01*
X201601185Y-112848815D01*
X201504494Y-112769463D01*
X201394180Y-112710498D01*
X201274482Y-112674188D01*
X201150000Y-112661928D01*
X200860750Y-112665000D01*
X200702000Y-112823750D01*
X200702000Y-113873000D01*
X200722000Y-113873000D01*
X200722000Y-114127000D01*
X200702000Y-114127000D01*
X200702000Y-115176250D01*
X200860750Y-115335000D01*
X201150000Y-115338072D01*
X201274482Y-115325812D01*
X201394180Y-115289502D01*
X201504494Y-115230537D01*
X201601185Y-115151185D01*
X201666658Y-115071406D01*
X201672038Y-115077962D01*
X201806613Y-115188405D01*
X201865000Y-115219614D01*
X201865001Y-116380386D01*
X201806613Y-116411595D01*
X201672038Y-116522038D01*
X201666658Y-116528594D01*
X201601185Y-116448815D01*
X201504494Y-116369463D01*
X201394180Y-116310498D01*
X201274482Y-116274188D01*
X201150000Y-116261928D01*
X200860750Y-116265000D01*
X200702000Y-116423750D01*
X200702000Y-117473000D01*
X200722000Y-117473000D01*
X200722000Y-117727000D01*
X200702000Y-117727000D01*
X200702000Y-118776250D01*
X200860750Y-118935000D01*
X201150000Y-118938072D01*
X201274482Y-118925812D01*
X201394180Y-118889502D01*
X201504494Y-118830537D01*
X201601185Y-118751185D01*
X201666658Y-118671406D01*
X201672038Y-118677962D01*
X201806613Y-118788405D01*
X201960149Y-118870472D01*
X202126745Y-118921008D01*
X202299999Y-118938072D01*
X202950001Y-118938072D01*
X203123255Y-118921008D01*
X203289851Y-118870472D01*
X203443387Y-118788405D01*
X203577962Y-118677962D01*
X203688405Y-118543387D01*
X203770472Y-118389851D01*
X203821008Y-118223255D01*
X203838072Y-118050001D01*
X203838072Y-117149999D01*
X203821008Y-116976745D01*
X203770472Y-116810149D01*
X203688405Y-116656613D01*
X203577962Y-116522038D01*
X203443387Y-116411595D01*
X203385000Y-116380386D01*
X203385000Y-115219614D01*
X203443387Y-115188405D01*
X203577962Y-115077962D01*
X203688405Y-114943387D01*
X203770472Y-114789851D01*
X203821008Y-114623255D01*
X203838072Y-114450001D01*
X203838072Y-113549999D01*
X203821008Y-113376745D01*
X203770472Y-113210149D01*
X203688405Y-113056613D01*
X203577962Y-112922038D01*
X203443387Y-112811595D01*
X203385000Y-112780386D01*
X203385000Y-111719614D01*
X203443387Y-111688405D01*
X203577962Y-111577962D01*
X203688405Y-111443387D01*
X203770472Y-111289851D01*
X203821008Y-111123255D01*
X203838072Y-110950001D01*
X203838072Y-110049999D01*
X203821008Y-109876745D01*
X203770472Y-109710149D01*
X203688405Y-109556613D01*
X203577962Y-109422038D01*
X203443387Y-109311595D01*
X203385000Y-109280386D01*
X203385000Y-108219614D01*
X203443387Y-108188405D01*
X203577962Y-108077962D01*
X203688405Y-107943387D01*
X203770472Y-107789851D01*
X203821008Y-107623255D01*
X203838072Y-107450001D01*
X203838072Y-106549999D01*
X203821008Y-106376745D01*
X203770472Y-106210149D01*
X203688405Y-106056613D01*
X203577962Y-105922038D01*
X203443387Y-105811595D01*
X203289851Y-105729528D01*
X203123255Y-105678992D01*
X203002155Y-105667065D01*
X203035000Y-105501939D01*
X203035000Y-105298061D01*
X202995226Y-105098102D01*
X202917205Y-104909744D01*
X202803937Y-104740226D01*
X202659774Y-104596063D01*
X202490256Y-104482795D01*
X202301898Y-104404774D01*
X202101939Y-104365000D01*
X202039802Y-104365000D01*
X201534801Y-103860000D01*
X202726620Y-103860000D01*
X205540000Y-106673381D01*
G37*
X205540000Y-106673381D02*
X205540001Y-122726618D01*
X203126620Y-125140000D01*
X194634801Y-125140000D01*
X195901961Y-123872841D01*
X195912332Y-123871820D01*
X195912343Y-123871820D01*
X196023996Y-123860823D01*
X196167257Y-123817366D01*
X196299286Y-123746794D01*
X196415011Y-123651821D01*
X196438814Y-123622817D01*
X199101004Y-120960628D01*
X199130002Y-120936830D01*
X199218703Y-120828748D01*
X199224975Y-120821106D01*
X199295547Y-120689076D01*
X199313301Y-120630547D01*
X199339004Y-120545815D01*
X199350001Y-120434162D01*
X199350001Y-120434153D01*
X199353677Y-120396830D01*
X199350001Y-120359507D01*
X199350001Y-118300000D01*
X199361928Y-118300000D01*
X199374188Y-118424482D01*
X199410498Y-118544180D01*
X199469463Y-118654494D01*
X199548815Y-118751185D01*
X199645506Y-118830537D01*
X199755820Y-118889502D01*
X199875518Y-118925812D01*
X200000000Y-118938072D01*
X200289250Y-118935000D01*
X200448000Y-118776250D01*
X200448000Y-117727000D01*
X199523750Y-117727000D01*
X199365000Y-117885750D01*
X199361928Y-118300000D01*
X199350001Y-118300000D01*
X199350001Y-116900000D01*
X199361928Y-116900000D01*
X199365000Y-117314250D01*
X199523750Y-117473000D01*
X200448000Y-117473000D01*
X200448000Y-116423750D01*
X200289250Y-116265000D01*
X200000000Y-116261928D01*
X199875518Y-116274188D01*
X199755820Y-116310498D01*
X199645506Y-116369463D01*
X199548815Y-116448815D01*
X199469463Y-116545506D01*
X199410498Y-116655820D01*
X199374188Y-116775518D01*
X199361928Y-116900000D01*
X199350001Y-116900000D01*
X199350001Y-114700000D01*
X199361928Y-114700000D01*
X199374188Y-114824482D01*
X199410498Y-114944180D01*
X199469463Y-115054494D01*
X199548815Y-115151185D01*
X199645506Y-115230537D01*
X199755820Y-115289502D01*
X199875518Y-115325812D01*
X200000000Y-115338072D01*
X200289250Y-115335000D01*
X200448000Y-115176250D01*
X200448000Y-114127000D01*
X199523750Y-114127000D01*
X199365000Y-114285750D01*
X199361928Y-114700000D01*
X199350001Y-114700000D01*
X199350001Y-113300000D01*
X199361928Y-113300000D01*
X199365000Y-113714250D01*
X199523750Y-113873000D01*
X200448000Y-113873000D01*
X200448000Y-112823750D01*
X200289250Y-112665000D01*
X200000000Y-112661928D01*
X199875518Y-112674188D01*
X199755820Y-112710498D01*
X199645506Y-112769463D01*
X199548815Y-112848815D01*
X199469463Y-112945506D01*
X199410498Y-113055820D01*
X199374188Y-113175518D01*
X199361928Y-113300000D01*
X199350001Y-113300000D01*
X199350001Y-113026752D01*
X199353383Y-112978793D01*
X199345308Y-112915014D01*
X199339004Y-112851013D01*
X199335915Y-112840828D01*
X199334578Y-112830272D01*
X199314213Y-112769286D01*
X199295547Y-112707752D01*
X199290531Y-112698368D01*
X199287160Y-112688273D01*
X199255279Y-112632416D01*
X199224975Y-112575723D01*
X199218226Y-112567499D01*
X199212949Y-112558254D01*
X199170785Y-112509692D01*
X199130002Y-112459998D01*
X199092837Y-112429498D01*
X198432825Y-111805166D01*
X199364348Y-110873643D01*
X199361928Y-111200000D01*
X199374188Y-111324482D01*
X199410498Y-111444180D01*
X199469463Y-111554494D01*
X199548815Y-111651185D01*
X199645506Y-111730537D01*
X199755820Y-111789502D01*
X199875518Y-111825812D01*
X200000000Y-111838072D01*
X200289250Y-111835000D01*
X200448000Y-111676250D01*
X200448000Y-110627000D01*
X200428000Y-110627000D01*
X200428000Y-110373000D01*
X200448000Y-110373000D01*
X200448000Y-110353000D01*
X200702000Y-110353000D01*
X200702000Y-110373000D01*
X200722000Y-110373000D01*
X200722000Y-110627000D01*
X200702000Y-110627000D01*
X200702000Y-111676250D01*
X200860750Y-111835000D01*
X201150000Y-111838072D01*
X201274482Y-111825812D01*
X201394180Y-111789502D01*
X201504494Y-111730537D01*
X201601185Y-111651185D01*
X201666658Y-111571406D01*
X201672038Y-111577962D01*
X201806613Y-111688405D01*
X201865001Y-111719614D01*
X201865000Y-112780386D01*
X201806613Y-112811595D01*
X201672038Y-112922038D01*
X201666658Y-112928594D01*
X201601185Y-112848815D01*
X201504494Y-112769463D01*
X201394180Y-112710498D01*
X201274482Y-112674188D01*
X201150000Y-112661928D01*
X200860750Y-112665000D01*
X200702000Y-112823750D01*
X200702000Y-113873000D01*
X200722000Y-113873000D01*
X200722000Y-114127000D01*
X200702000Y-114127000D01*
X200702000Y-115176250D01*
X200860750Y-115335000D01*
X201150000Y-115338072D01*
X201274482Y-115325812D01*
X201394180Y-115289502D01*
X201504494Y-115230537D01*
X201601185Y-115151185D01*
X201666658Y-115071406D01*
X201672038Y-115077962D01*
X201806613Y-115188405D01*
X201865000Y-115219614D01*
X201865001Y-116380386D01*
X201806613Y-116411595D01*
X201672038Y-116522038D01*
X201666658Y-116528594D01*
X201601185Y-116448815D01*
X201504494Y-116369463D01*
X201394180Y-116310498D01*
X201274482Y-116274188D01*
X201150000Y-116261928D01*
X200860750Y-116265000D01*
X200702000Y-116423750D01*
X200702000Y-117473000D01*
X200722000Y-117473000D01*
X200722000Y-117727000D01*
X200702000Y-117727000D01*
X200702000Y-118776250D01*
X200860750Y-118935000D01*
X201150000Y-118938072D01*
X201274482Y-118925812D01*
X201394180Y-118889502D01*
X201504494Y-118830537D01*
X201601185Y-118751185D01*
X201666658Y-118671406D01*
X201672038Y-118677962D01*
X201806613Y-118788405D01*
X201960149Y-118870472D01*
X202126745Y-118921008D01*
X202299999Y-118938072D01*
X202950001Y-118938072D01*
X203123255Y-118921008D01*
X203289851Y-118870472D01*
X203443387Y-118788405D01*
X203577962Y-118677962D01*
X203688405Y-118543387D01*
X203770472Y-118389851D01*
X203821008Y-118223255D01*
X203838072Y-118050001D01*
X203838072Y-117149999D01*
X203821008Y-116976745D01*
X203770472Y-116810149D01*
X203688405Y-116656613D01*
X203577962Y-116522038D01*
X203443387Y-116411595D01*
X203385000Y-116380386D01*
X203385000Y-115219614D01*
X203443387Y-115188405D01*
X203577962Y-115077962D01*
X203688405Y-114943387D01*
X203770472Y-114789851D01*
X203821008Y-114623255D01*
X203838072Y-114450001D01*
X203838072Y-113549999D01*
X203821008Y-113376745D01*
X203770472Y-113210149D01*
X203688405Y-113056613D01*
X203577962Y-112922038D01*
X203443387Y-112811595D01*
X203385000Y-112780386D01*
X203385000Y-111719614D01*
X203443387Y-111688405D01*
X203577962Y-111577962D01*
X203688405Y-111443387D01*
X203770472Y-111289851D01*
X203821008Y-111123255D01*
X203838072Y-110950001D01*
X203838072Y-110049999D01*
X203821008Y-109876745D01*
X203770472Y-109710149D01*
X203688405Y-109556613D01*
X203577962Y-109422038D01*
X203443387Y-109311595D01*
X203385000Y-109280386D01*
X203385000Y-108219614D01*
X203443387Y-108188405D01*
X203577962Y-108077962D01*
X203688405Y-107943387D01*
X203770472Y-107789851D01*
X203821008Y-107623255D01*
X203838072Y-107450001D01*
X203838072Y-106549999D01*
X203821008Y-106376745D01*
X203770472Y-106210149D01*
X203688405Y-106056613D01*
X203577962Y-105922038D01*
X203443387Y-105811595D01*
X203289851Y-105729528D01*
X203123255Y-105678992D01*
X203002155Y-105667065D01*
X203035000Y-105501939D01*
X203035000Y-105298061D01*
X202995226Y-105098102D01*
X202917205Y-104909744D01*
X202803937Y-104740226D01*
X202659774Y-104596063D01*
X202490256Y-104482795D01*
X202301898Y-104404774D01*
X202101939Y-104365000D01*
X202039802Y-104365000D01*
X201534801Y-103860000D01*
X202726620Y-103860000D01*
X205540000Y-106673381D01*
G36*
X197830002Y-120082026D02*
G01*
X195561231Y-122350798D01*
X195550856Y-122351820D01*
X195550847Y-122351820D01*
X195439194Y-122362817D01*
X195295933Y-122406274D01*
X195163904Y-122476846D01*
X195163902Y-122476847D01*
X195163903Y-122476847D01*
X195077176Y-122548021D01*
X195077172Y-122548025D01*
X195048179Y-122571819D01*
X195024385Y-122600812D01*
X194804999Y-122820198D01*
X194804999Y-120610000D01*
X194862667Y-120610000D01*
X194900000Y-120613677D01*
X194937333Y-120610000D01*
X195048986Y-120599003D01*
X195192247Y-120555546D01*
X195324276Y-120484974D01*
X195440001Y-120390001D01*
X195534974Y-120274276D01*
X195605546Y-120142247D01*
X195649003Y-119998986D01*
X195663677Y-119850000D01*
X195660000Y-119812667D01*
X195660000Y-118978072D01*
X197830002Y-118978072D01*
X197830002Y-120082026D01*
G37*
X197830002Y-120082026D02*
X195561231Y-122350798D01*
X195550856Y-122351820D01*
X195550847Y-122351820D01*
X195439194Y-122362817D01*
X195295933Y-122406274D01*
X195163904Y-122476846D01*
X195163902Y-122476847D01*
X195163903Y-122476847D01*
X195077176Y-122548021D01*
X195077172Y-122548025D01*
X195048179Y-122571819D01*
X195024385Y-122600812D01*
X194804999Y-122820198D01*
X194804999Y-120610000D01*
X194862667Y-120610000D01*
X194900000Y-120613677D01*
X194937333Y-120610000D01*
X195048986Y-120599003D01*
X195192247Y-120555546D01*
X195324276Y-120484974D01*
X195440001Y-120390001D01*
X195534974Y-120274276D01*
X195605546Y-120142247D01*
X195649003Y-119998986D01*
X195663677Y-119850000D01*
X195660000Y-119812667D01*
X195660000Y-118978072D01*
X197830002Y-118978072D01*
X197830002Y-120082026D01*
G36*
X198740226Y-107003937D02*
G01*
X198909744Y-107117205D01*
X199098102Y-107195226D01*
X199298061Y-107235000D01*
X199415750Y-107235000D01*
X199365000Y-107285750D01*
X199361928Y-107700000D01*
X199374188Y-107824482D01*
X199410498Y-107944180D01*
X199469463Y-108054494D01*
X199548815Y-108151185D01*
X199645506Y-108230537D01*
X199755820Y-108289502D01*
X199788863Y-108299525D01*
X197004006Y-111084383D01*
X196975002Y-111108186D01*
X196944269Y-111145635D01*
X196880029Y-111223911D01*
X196856909Y-111267166D01*
X196809457Y-111355941D01*
X196766000Y-111499202D01*
X196755003Y-111610855D01*
X196755003Y-111610865D01*
X196751327Y-111648187D01*
X196755003Y-111685509D01*
X196755003Y-111724046D01*
X196709744Y-111742793D01*
X196540226Y-111856061D01*
X196396063Y-112000224D01*
X196282795Y-112169742D01*
X196204774Y-112358100D01*
X196165000Y-112558059D01*
X196165000Y-112621928D01*
X193185000Y-112621928D01*
X193060518Y-112634188D01*
X192940820Y-112670498D01*
X192830506Y-112729463D01*
X192733815Y-112808815D01*
X192654463Y-112905506D01*
X192595498Y-113015820D01*
X192559188Y-113135518D01*
X192546928Y-113260000D01*
X192546928Y-118340000D01*
X192559188Y-118464482D01*
X192595498Y-118584180D01*
X192654463Y-118694494D01*
X192733815Y-118791185D01*
X192830506Y-118870537D01*
X192940820Y-118929502D01*
X193060518Y-118965812D01*
X193185000Y-118978072D01*
X194140000Y-118978072D01*
X194140000Y-119088294D01*
X194119999Y-119086324D01*
X194082677Y-119090000D01*
X194082667Y-119090000D01*
X193971014Y-119100997D01*
X193827753Y-119144454D01*
X193695724Y-119215026D01*
X193579999Y-119309999D01*
X193556199Y-119338999D01*
X193533999Y-119361199D01*
X193504998Y-119385000D01*
X193449870Y-119452175D01*
X193410025Y-119500725D01*
X193379543Y-119557753D01*
X193339453Y-119632755D01*
X193295996Y-119776016D01*
X193284999Y-119887669D01*
X193284999Y-119887679D01*
X193281323Y-119925001D01*
X193284999Y-119962324D01*
X193285000Y-122684999D01*
X193192334Y-122684999D01*
X193155001Y-122681322D01*
X193117668Y-122684999D01*
X171842497Y-122684999D01*
X168937837Y-119780339D01*
X177324266Y-119780339D01*
X177900387Y-120454365D01*
X178870368Y-120994024D01*
X179926994Y-121334079D01*
X181029659Y-121461462D01*
X182135987Y-121371279D01*
X183203464Y-121066994D01*
X184191067Y-120560302D01*
X184349613Y-120454365D01*
X184925734Y-119780339D01*
X181125000Y-115979605D01*
X177324266Y-119780339D01*
X168937837Y-119780339D01*
X168135569Y-118978072D01*
X169165000Y-118978072D01*
X169289482Y-118965812D01*
X169409180Y-118929502D01*
X169519494Y-118870537D01*
X169616185Y-118791185D01*
X169695537Y-118694494D01*
X169754502Y-118584180D01*
X169790812Y-118464482D01*
X169803072Y-118340000D01*
X169803072Y-115704659D01*
X175463538Y-115704659D01*
X175553721Y-116810987D01*
X175858006Y-117878464D01*
X176364698Y-118866067D01*
X176470635Y-119024613D01*
X177144661Y-119600734D01*
X180945395Y-115800000D01*
X181304605Y-115800000D01*
X185105339Y-119600734D01*
X185779365Y-119024613D01*
X186319024Y-118054632D01*
X186659079Y-116998006D01*
X186786462Y-115895341D01*
X186696279Y-114789013D01*
X186391994Y-113721536D01*
X185885302Y-112733933D01*
X185779365Y-112575387D01*
X185105339Y-111999266D01*
X181304605Y-115800000D01*
X180945395Y-115800000D01*
X177144661Y-111999266D01*
X176470635Y-112575387D01*
X175930976Y-113545368D01*
X175590921Y-114601994D01*
X175463538Y-115704659D01*
X169803072Y-115704659D01*
X169803072Y-113260000D01*
X169790812Y-113135518D01*
X169754502Y-113015820D01*
X169695537Y-112905506D01*
X169616185Y-112808815D01*
X169519494Y-112729463D01*
X169409180Y-112670498D01*
X169289482Y-112634188D01*
X169165000Y-112621928D01*
X165367657Y-112621928D01*
X165501898Y-112595226D01*
X165690256Y-112517205D01*
X165859774Y-112403937D01*
X166003937Y-112259774D01*
X166117205Y-112090256D01*
X166195226Y-111901898D01*
X166211583Y-111819661D01*
X177324266Y-111819661D01*
X181125000Y-115620395D01*
X184925734Y-111819661D01*
X184349613Y-111145635D01*
X183379632Y-110605976D01*
X182323006Y-110265921D01*
X181220341Y-110138538D01*
X180114013Y-110228721D01*
X179046536Y-110533006D01*
X178058933Y-111039698D01*
X177900387Y-111145635D01*
X177324266Y-111819661D01*
X166211583Y-111819661D01*
X166235000Y-111701939D01*
X166235000Y-111639801D01*
X168514802Y-109360000D01*
X192296289Y-109360000D01*
X192340226Y-109403937D01*
X192509744Y-109517205D01*
X192698102Y-109595226D01*
X192898061Y-109635000D01*
X193101939Y-109635000D01*
X193301898Y-109595226D01*
X193490256Y-109517205D01*
X193640001Y-109417149D01*
X193640001Y-110496288D01*
X193596063Y-110540226D01*
X193482795Y-110709744D01*
X193404774Y-110898102D01*
X193365000Y-111098061D01*
X193365000Y-111301939D01*
X193404774Y-111501898D01*
X193482795Y-111690256D01*
X193596063Y-111859774D01*
X193740226Y-112003937D01*
X193909744Y-112117205D01*
X194098102Y-112195226D01*
X194298061Y-112235000D01*
X194501939Y-112235000D01*
X194701898Y-112195226D01*
X194890256Y-112117205D01*
X195059774Y-112003937D01*
X195203937Y-111859774D01*
X195317205Y-111690256D01*
X195395226Y-111501898D01*
X195435000Y-111301939D01*
X195435000Y-111098061D01*
X195395226Y-110898102D01*
X195317205Y-110709744D01*
X195203937Y-110540226D01*
X195160000Y-110496289D01*
X195160000Y-106960000D01*
X198696289Y-106960000D01*
X198740226Y-107003937D01*
G37*
X198740226Y-107003937D02*
X198909744Y-107117205D01*
X199098102Y-107195226D01*
X199298061Y-107235000D01*
X199415750Y-107235000D01*
X199365000Y-107285750D01*
X199361928Y-107700000D01*
X199374188Y-107824482D01*
X199410498Y-107944180D01*
X199469463Y-108054494D01*
X199548815Y-108151185D01*
X199645506Y-108230537D01*
X199755820Y-108289502D01*
X199788863Y-108299525D01*
X197004006Y-111084383D01*
X196975002Y-111108186D01*
X196944269Y-111145635D01*
X196880029Y-111223911D01*
X196856909Y-111267166D01*
X196809457Y-111355941D01*
X196766000Y-111499202D01*
X196755003Y-111610855D01*
X196755003Y-111610865D01*
X196751327Y-111648187D01*
X196755003Y-111685509D01*
X196755003Y-111724046D01*
X196709744Y-111742793D01*
X196540226Y-111856061D01*
X196396063Y-112000224D01*
X196282795Y-112169742D01*
X196204774Y-112358100D01*
X196165000Y-112558059D01*
X196165000Y-112621928D01*
X193185000Y-112621928D01*
X193060518Y-112634188D01*
X192940820Y-112670498D01*
X192830506Y-112729463D01*
X192733815Y-112808815D01*
X192654463Y-112905506D01*
X192595498Y-113015820D01*
X192559188Y-113135518D01*
X192546928Y-113260000D01*
X192546928Y-118340000D01*
X192559188Y-118464482D01*
X192595498Y-118584180D01*
X192654463Y-118694494D01*
X192733815Y-118791185D01*
X192830506Y-118870537D01*
X192940820Y-118929502D01*
X193060518Y-118965812D01*
X193185000Y-118978072D01*
X194140000Y-118978072D01*
X194140000Y-119088294D01*
X194119999Y-119086324D01*
X194082677Y-119090000D01*
X194082667Y-119090000D01*
X193971014Y-119100997D01*
X193827753Y-119144454D01*
X193695724Y-119215026D01*
X193579999Y-119309999D01*
X193556199Y-119338999D01*
X193533999Y-119361199D01*
X193504998Y-119385000D01*
X193449870Y-119452175D01*
X193410025Y-119500725D01*
X193379543Y-119557753D01*
X193339453Y-119632755D01*
X193295996Y-119776016D01*
X193284999Y-119887669D01*
X193284999Y-119887679D01*
X193281323Y-119925001D01*
X193284999Y-119962324D01*
X193285000Y-122684999D01*
X193192334Y-122684999D01*
X193155001Y-122681322D01*
X193117668Y-122684999D01*
X171842497Y-122684999D01*
X168937837Y-119780339D01*
X177324266Y-119780339D01*
X177900387Y-120454365D01*
X178870368Y-120994024D01*
X179926994Y-121334079D01*
X181029659Y-121461462D01*
X182135987Y-121371279D01*
X183203464Y-121066994D01*
X184191067Y-120560302D01*
X184349613Y-120454365D01*
X184925734Y-119780339D01*
X181125000Y-115979605D01*
X177324266Y-119780339D01*
X168937837Y-119780339D01*
X168135569Y-118978072D01*
X169165000Y-118978072D01*
X169289482Y-118965812D01*
X169409180Y-118929502D01*
X169519494Y-118870537D01*
X169616185Y-118791185D01*
X169695537Y-118694494D01*
X169754502Y-118584180D01*
X169790812Y-118464482D01*
X169803072Y-118340000D01*
X169803072Y-115704659D01*
X175463538Y-115704659D01*
X175553721Y-116810987D01*
X175858006Y-117878464D01*
X176364698Y-118866067D01*
X176470635Y-119024613D01*
X177144661Y-119600734D01*
X180945395Y-115800000D01*
X181304605Y-115800000D01*
X185105339Y-119600734D01*
X185779365Y-119024613D01*
X186319024Y-118054632D01*
X186659079Y-116998006D01*
X186786462Y-115895341D01*
X186696279Y-114789013D01*
X186391994Y-113721536D01*
X185885302Y-112733933D01*
X185779365Y-112575387D01*
X185105339Y-111999266D01*
X181304605Y-115800000D01*
X180945395Y-115800000D01*
X177144661Y-111999266D01*
X176470635Y-112575387D01*
X175930976Y-113545368D01*
X175590921Y-114601994D01*
X175463538Y-115704659D01*
X169803072Y-115704659D01*
X169803072Y-113260000D01*
X169790812Y-113135518D01*
X169754502Y-113015820D01*
X169695537Y-112905506D01*
X169616185Y-112808815D01*
X169519494Y-112729463D01*
X169409180Y-112670498D01*
X169289482Y-112634188D01*
X169165000Y-112621928D01*
X165367657Y-112621928D01*
X165501898Y-112595226D01*
X165690256Y-112517205D01*
X165859774Y-112403937D01*
X166003937Y-112259774D01*
X166117205Y-112090256D01*
X166195226Y-111901898D01*
X166211583Y-111819661D01*
X177324266Y-111819661D01*
X181125000Y-115620395D01*
X184925734Y-111819661D01*
X184349613Y-111145635D01*
X183379632Y-110605976D01*
X182323006Y-110265921D01*
X181220341Y-110138538D01*
X180114013Y-110228721D01*
X179046536Y-110533006D01*
X178058933Y-111039698D01*
X177900387Y-111145635D01*
X177324266Y-111819661D01*
X166211583Y-111819661D01*
X166235000Y-111701939D01*
X166235000Y-111639801D01*
X168514802Y-109360000D01*
X192296289Y-109360000D01*
X192340226Y-109403937D01*
X192509744Y-109517205D01*
X192698102Y-109595226D01*
X192898061Y-109635000D01*
X193101939Y-109635000D01*
X193301898Y-109595226D01*
X193490256Y-109517205D01*
X193640001Y-109417149D01*
X193640001Y-110496288D01*
X193596063Y-110540226D01*
X193482795Y-110709744D01*
X193404774Y-110898102D01*
X193365000Y-111098061D01*
X193365000Y-111301939D01*
X193404774Y-111501898D01*
X193482795Y-111690256D01*
X193596063Y-111859774D01*
X193740226Y-112003937D01*
X193909744Y-112117205D01*
X194098102Y-112195226D01*
X194298061Y-112235000D01*
X194501939Y-112235000D01*
X194701898Y-112195226D01*
X194890256Y-112117205D01*
X195059774Y-112003937D01*
X195203937Y-111859774D01*
X195317205Y-111690256D01*
X195395226Y-111501898D01*
X195435000Y-111301939D01*
X195435000Y-111098061D01*
X195395226Y-110898102D01*
X195317205Y-110709744D01*
X195203937Y-110540226D01*
X195160000Y-110496289D01*
X195160000Y-106960000D01*
X198696289Y-106960000D01*
X198740226Y-107003937D01*
G36*
X163207000Y-121333000D02*
G01*
X163227000Y-121333000D01*
X163227000Y-121587000D01*
X163207000Y-121587000D01*
X163207000Y-121607000D01*
X162953000Y-121607000D01*
X162953000Y-121587000D01*
X162933000Y-121587000D01*
X162933000Y-121333000D01*
X162953000Y-121333000D01*
X162953000Y-121313000D01*
X163207000Y-121313000D01*
X163207000Y-121333000D01*
G37*
X163207000Y-121333000D02*
X163227000Y-121333000D01*
X163227000Y-121587000D01*
X163207000Y-121587000D01*
X163207000Y-121607000D01*
X162953000Y-121607000D01*
X162953000Y-121587000D01*
X162933000Y-121587000D01*
X162933000Y-121333000D01*
X162953000Y-121333000D01*
X162953000Y-121313000D01*
X163207000Y-121313000D01*
X163207000Y-121333000D01*
G36*
X200965000Y-105439802D02*
G01*
X200965000Y-105501939D01*
X200997146Y-105663551D01*
X200860750Y-105665000D01*
X200702000Y-105823750D01*
X200702000Y-106873000D01*
X200722000Y-106873000D01*
X200722000Y-107127000D01*
X200702000Y-107127000D01*
X200702000Y-107147000D01*
X200448000Y-107147000D01*
X200448000Y-107127000D01*
X200428000Y-107127000D01*
X200428000Y-106873000D01*
X200448000Y-106873000D01*
X200448000Y-105823750D01*
X200289250Y-105665000D01*
X200287294Y-105664979D01*
X200275717Y-105647653D01*
X200289286Y-105647653D01*
X200489245Y-105607879D01*
X200677603Y-105529858D01*
X200847121Y-105416590D01*
X200894455Y-105369256D01*
X200965000Y-105439802D01*
G37*
X200965000Y-105439802D02*
X200965000Y-105501939D01*
X200997146Y-105663551D01*
X200860750Y-105665000D01*
X200702000Y-105823750D01*
X200702000Y-106873000D01*
X200722000Y-106873000D01*
X200722000Y-107127000D01*
X200702000Y-107127000D01*
X200702000Y-107147000D01*
X200448000Y-107147000D01*
X200448000Y-107127000D01*
X200428000Y-107127000D01*
X200428000Y-106873000D01*
X200448000Y-106873000D01*
X200448000Y-105823750D01*
X200289250Y-105665000D01*
X200287294Y-105664979D01*
X200275717Y-105647653D01*
X200289286Y-105647653D01*
X200489245Y-105607879D01*
X200677603Y-105529858D01*
X200847121Y-105416590D01*
X200894455Y-105369256D01*
X200965000Y-105439802D01*
G36*
X195263667Y-105361656D02*
G01*
X195375320Y-105372653D01*
X195375330Y-105372653D01*
X195412652Y-105376329D01*
X195449975Y-105372653D01*
X198775262Y-105372653D01*
X198740226Y-105396063D01*
X198696289Y-105440000D01*
X195161800Y-105440000D01*
X195241800Y-105360000D01*
X195258208Y-105360000D01*
X195263667Y-105361656D01*
G37*
X195263667Y-105361656D02*
X195375320Y-105372653D01*
X195375330Y-105372653D01*
X195412652Y-105376329D01*
X195449975Y-105372653D01*
X198775262Y-105372653D01*
X198740226Y-105396063D01*
X198696289Y-105440000D01*
X195161800Y-105440000D01*
X195241800Y-105360000D01*
X195258208Y-105360000D01*
X195263667Y-105361656D01*
M02*
