G04 #@! TF.GenerationSoftware,KiCad,Pcbnew,(5.1.5)-3*
G04 #@! TF.CreationDate,2020-04-26T14:17:37-06:00*
G04 #@! TF.ProjectId,Dog Collar Light R1,446f6720-436f-46c6-9c61-72204c696768,rev?*
G04 #@! TF.SameCoordinates,Original*
G04 #@! TF.FileFunction,Copper,L1,Top*
G04 #@! TF.FilePolarity,Positive*
%FSLAX46Y46*%
G04 Gerber Fmt 4.6, Leading zero omitted, Abs format (unit mm)*
G04 Created by KiCad (PCBNEW (5.1.5)-3) date 2020-04-26 14:17:37*
%MOMM*%
%LPD*%
G04 APERTURE LIST*
%ADD10C,0.100000*%
%ADD11R,2.000000X1.100000*%
%ADD12R,0.600000X0.420000*%
%ADD13O,1.700000X1.700000*%
%ADD14R,1.700000X1.700000*%
%ADD15R,2.800000X1.000000*%
%ADD16C,0.800000*%
%ADD17C,0.250000*%
%ADD18C,0.254000*%
G04 APERTURE END LIST*
G04 #@! TA.AperFunction,SMDPad,CuDef*
D10*
G36*
X196174703Y-121700722D02*
G01*
X196189264Y-121702882D01*
X196203543Y-121706459D01*
X196217403Y-121711418D01*
X196230710Y-121717712D01*
X196243336Y-121725280D01*
X196255159Y-121734048D01*
X196266066Y-121743934D01*
X196275952Y-121754841D01*
X196284720Y-121766664D01*
X196292288Y-121779290D01*
X196298582Y-121792597D01*
X196303541Y-121806457D01*
X196307118Y-121820736D01*
X196309278Y-121835297D01*
X196310000Y-121850000D01*
X196310000Y-123500000D01*
X196309278Y-123514703D01*
X196307118Y-123529264D01*
X196303541Y-123543543D01*
X196298582Y-123557403D01*
X196292288Y-123570710D01*
X196284720Y-123583336D01*
X196275952Y-123595159D01*
X196266066Y-123606066D01*
X196255159Y-123615952D01*
X196243336Y-123624720D01*
X196230710Y-123632288D01*
X196217403Y-123638582D01*
X196203543Y-123643541D01*
X196189264Y-123647118D01*
X196174703Y-123649278D01*
X196160000Y-123650000D01*
X195860000Y-123650000D01*
X195845297Y-123649278D01*
X195830736Y-123647118D01*
X195816457Y-123643541D01*
X195802597Y-123638582D01*
X195789290Y-123632288D01*
X195776664Y-123624720D01*
X195764841Y-123615952D01*
X195753934Y-123606066D01*
X195744048Y-123595159D01*
X195735280Y-123583336D01*
X195727712Y-123570710D01*
X195721418Y-123557403D01*
X195716459Y-123543543D01*
X195712882Y-123529264D01*
X195710722Y-123514703D01*
X195710000Y-123500000D01*
X195710000Y-121850000D01*
X195710722Y-121835297D01*
X195712882Y-121820736D01*
X195716459Y-121806457D01*
X195721418Y-121792597D01*
X195727712Y-121779290D01*
X195735280Y-121766664D01*
X195744048Y-121754841D01*
X195753934Y-121743934D01*
X195764841Y-121734048D01*
X195776664Y-121725280D01*
X195789290Y-121717712D01*
X195802597Y-121711418D01*
X195816457Y-121706459D01*
X195830736Y-121702882D01*
X195845297Y-121700722D01*
X195860000Y-121700000D01*
X196160000Y-121700000D01*
X196174703Y-121700722D01*
G37*
G04 #@! TD.AperFunction*
G04 #@! TA.AperFunction,SMDPad,CuDef*
G36*
X194904703Y-121700722D02*
G01*
X194919264Y-121702882D01*
X194933543Y-121706459D01*
X194947403Y-121711418D01*
X194960710Y-121717712D01*
X194973336Y-121725280D01*
X194985159Y-121734048D01*
X194996066Y-121743934D01*
X195005952Y-121754841D01*
X195014720Y-121766664D01*
X195022288Y-121779290D01*
X195028582Y-121792597D01*
X195033541Y-121806457D01*
X195037118Y-121820736D01*
X195039278Y-121835297D01*
X195040000Y-121850000D01*
X195040000Y-123500000D01*
X195039278Y-123514703D01*
X195037118Y-123529264D01*
X195033541Y-123543543D01*
X195028582Y-123557403D01*
X195022288Y-123570710D01*
X195014720Y-123583336D01*
X195005952Y-123595159D01*
X194996066Y-123606066D01*
X194985159Y-123615952D01*
X194973336Y-123624720D01*
X194960710Y-123632288D01*
X194947403Y-123638582D01*
X194933543Y-123643541D01*
X194919264Y-123647118D01*
X194904703Y-123649278D01*
X194890000Y-123650000D01*
X194590000Y-123650000D01*
X194575297Y-123649278D01*
X194560736Y-123647118D01*
X194546457Y-123643541D01*
X194532597Y-123638582D01*
X194519290Y-123632288D01*
X194506664Y-123624720D01*
X194494841Y-123615952D01*
X194483934Y-123606066D01*
X194474048Y-123595159D01*
X194465280Y-123583336D01*
X194457712Y-123570710D01*
X194451418Y-123557403D01*
X194446459Y-123543543D01*
X194442882Y-123529264D01*
X194440722Y-123514703D01*
X194440000Y-123500000D01*
X194440000Y-121850000D01*
X194440722Y-121835297D01*
X194442882Y-121820736D01*
X194446459Y-121806457D01*
X194451418Y-121792597D01*
X194457712Y-121779290D01*
X194465280Y-121766664D01*
X194474048Y-121754841D01*
X194483934Y-121743934D01*
X194494841Y-121734048D01*
X194506664Y-121725280D01*
X194519290Y-121717712D01*
X194532597Y-121711418D01*
X194546457Y-121706459D01*
X194560736Y-121702882D01*
X194575297Y-121700722D01*
X194590000Y-121700000D01*
X194890000Y-121700000D01*
X194904703Y-121700722D01*
G37*
G04 #@! TD.AperFunction*
G04 #@! TA.AperFunction,SMDPad,CuDef*
G36*
X193634703Y-121700722D02*
G01*
X193649264Y-121702882D01*
X193663543Y-121706459D01*
X193677403Y-121711418D01*
X193690710Y-121717712D01*
X193703336Y-121725280D01*
X193715159Y-121734048D01*
X193726066Y-121743934D01*
X193735952Y-121754841D01*
X193744720Y-121766664D01*
X193752288Y-121779290D01*
X193758582Y-121792597D01*
X193763541Y-121806457D01*
X193767118Y-121820736D01*
X193769278Y-121835297D01*
X193770000Y-121850000D01*
X193770000Y-123500000D01*
X193769278Y-123514703D01*
X193767118Y-123529264D01*
X193763541Y-123543543D01*
X193758582Y-123557403D01*
X193752288Y-123570710D01*
X193744720Y-123583336D01*
X193735952Y-123595159D01*
X193726066Y-123606066D01*
X193715159Y-123615952D01*
X193703336Y-123624720D01*
X193690710Y-123632288D01*
X193677403Y-123638582D01*
X193663543Y-123643541D01*
X193649264Y-123647118D01*
X193634703Y-123649278D01*
X193620000Y-123650000D01*
X193320000Y-123650000D01*
X193305297Y-123649278D01*
X193290736Y-123647118D01*
X193276457Y-123643541D01*
X193262597Y-123638582D01*
X193249290Y-123632288D01*
X193236664Y-123624720D01*
X193224841Y-123615952D01*
X193213934Y-123606066D01*
X193204048Y-123595159D01*
X193195280Y-123583336D01*
X193187712Y-123570710D01*
X193181418Y-123557403D01*
X193176459Y-123543543D01*
X193172882Y-123529264D01*
X193170722Y-123514703D01*
X193170000Y-123500000D01*
X193170000Y-121850000D01*
X193170722Y-121835297D01*
X193172882Y-121820736D01*
X193176459Y-121806457D01*
X193181418Y-121792597D01*
X193187712Y-121779290D01*
X193195280Y-121766664D01*
X193204048Y-121754841D01*
X193213934Y-121743934D01*
X193224841Y-121734048D01*
X193236664Y-121725280D01*
X193249290Y-121717712D01*
X193262597Y-121711418D01*
X193276457Y-121706459D01*
X193290736Y-121702882D01*
X193305297Y-121700722D01*
X193320000Y-121700000D01*
X193620000Y-121700000D01*
X193634703Y-121700722D01*
G37*
G04 #@! TD.AperFunction*
G04 #@! TA.AperFunction,SMDPad,CuDef*
G36*
X192364703Y-121700722D02*
G01*
X192379264Y-121702882D01*
X192393543Y-121706459D01*
X192407403Y-121711418D01*
X192420710Y-121717712D01*
X192433336Y-121725280D01*
X192445159Y-121734048D01*
X192456066Y-121743934D01*
X192465952Y-121754841D01*
X192474720Y-121766664D01*
X192482288Y-121779290D01*
X192488582Y-121792597D01*
X192493541Y-121806457D01*
X192497118Y-121820736D01*
X192499278Y-121835297D01*
X192500000Y-121850000D01*
X192500000Y-123500000D01*
X192499278Y-123514703D01*
X192497118Y-123529264D01*
X192493541Y-123543543D01*
X192488582Y-123557403D01*
X192482288Y-123570710D01*
X192474720Y-123583336D01*
X192465952Y-123595159D01*
X192456066Y-123606066D01*
X192445159Y-123615952D01*
X192433336Y-123624720D01*
X192420710Y-123632288D01*
X192407403Y-123638582D01*
X192393543Y-123643541D01*
X192379264Y-123647118D01*
X192364703Y-123649278D01*
X192350000Y-123650000D01*
X192050000Y-123650000D01*
X192035297Y-123649278D01*
X192020736Y-123647118D01*
X192006457Y-123643541D01*
X191992597Y-123638582D01*
X191979290Y-123632288D01*
X191966664Y-123624720D01*
X191954841Y-123615952D01*
X191943934Y-123606066D01*
X191934048Y-123595159D01*
X191925280Y-123583336D01*
X191917712Y-123570710D01*
X191911418Y-123557403D01*
X191906459Y-123543543D01*
X191902882Y-123529264D01*
X191900722Y-123514703D01*
X191900000Y-123500000D01*
X191900000Y-121850000D01*
X191900722Y-121835297D01*
X191902882Y-121820736D01*
X191906459Y-121806457D01*
X191911418Y-121792597D01*
X191917712Y-121779290D01*
X191925280Y-121766664D01*
X191934048Y-121754841D01*
X191943934Y-121743934D01*
X191954841Y-121734048D01*
X191966664Y-121725280D01*
X191979290Y-121717712D01*
X191992597Y-121711418D01*
X192006457Y-121706459D01*
X192020736Y-121702882D01*
X192035297Y-121700722D01*
X192050000Y-121700000D01*
X192350000Y-121700000D01*
X192364703Y-121700722D01*
G37*
G04 #@! TD.AperFunction*
G04 #@! TA.AperFunction,SMDPad,CuDef*
G36*
X191094703Y-121700722D02*
G01*
X191109264Y-121702882D01*
X191123543Y-121706459D01*
X191137403Y-121711418D01*
X191150710Y-121717712D01*
X191163336Y-121725280D01*
X191175159Y-121734048D01*
X191186066Y-121743934D01*
X191195952Y-121754841D01*
X191204720Y-121766664D01*
X191212288Y-121779290D01*
X191218582Y-121792597D01*
X191223541Y-121806457D01*
X191227118Y-121820736D01*
X191229278Y-121835297D01*
X191230000Y-121850000D01*
X191230000Y-123500000D01*
X191229278Y-123514703D01*
X191227118Y-123529264D01*
X191223541Y-123543543D01*
X191218582Y-123557403D01*
X191212288Y-123570710D01*
X191204720Y-123583336D01*
X191195952Y-123595159D01*
X191186066Y-123606066D01*
X191175159Y-123615952D01*
X191163336Y-123624720D01*
X191150710Y-123632288D01*
X191137403Y-123638582D01*
X191123543Y-123643541D01*
X191109264Y-123647118D01*
X191094703Y-123649278D01*
X191080000Y-123650000D01*
X190780000Y-123650000D01*
X190765297Y-123649278D01*
X190750736Y-123647118D01*
X190736457Y-123643541D01*
X190722597Y-123638582D01*
X190709290Y-123632288D01*
X190696664Y-123624720D01*
X190684841Y-123615952D01*
X190673934Y-123606066D01*
X190664048Y-123595159D01*
X190655280Y-123583336D01*
X190647712Y-123570710D01*
X190641418Y-123557403D01*
X190636459Y-123543543D01*
X190632882Y-123529264D01*
X190630722Y-123514703D01*
X190630000Y-123500000D01*
X190630000Y-121850000D01*
X190630722Y-121835297D01*
X190632882Y-121820736D01*
X190636459Y-121806457D01*
X190641418Y-121792597D01*
X190647712Y-121779290D01*
X190655280Y-121766664D01*
X190664048Y-121754841D01*
X190673934Y-121743934D01*
X190684841Y-121734048D01*
X190696664Y-121725280D01*
X190709290Y-121717712D01*
X190722597Y-121711418D01*
X190736457Y-121706459D01*
X190750736Y-121702882D01*
X190765297Y-121700722D01*
X190780000Y-121700000D01*
X191080000Y-121700000D01*
X191094703Y-121700722D01*
G37*
G04 #@! TD.AperFunction*
G04 #@! TA.AperFunction,SMDPad,CuDef*
G36*
X189824703Y-121700722D02*
G01*
X189839264Y-121702882D01*
X189853543Y-121706459D01*
X189867403Y-121711418D01*
X189880710Y-121717712D01*
X189893336Y-121725280D01*
X189905159Y-121734048D01*
X189916066Y-121743934D01*
X189925952Y-121754841D01*
X189934720Y-121766664D01*
X189942288Y-121779290D01*
X189948582Y-121792597D01*
X189953541Y-121806457D01*
X189957118Y-121820736D01*
X189959278Y-121835297D01*
X189960000Y-121850000D01*
X189960000Y-123500000D01*
X189959278Y-123514703D01*
X189957118Y-123529264D01*
X189953541Y-123543543D01*
X189948582Y-123557403D01*
X189942288Y-123570710D01*
X189934720Y-123583336D01*
X189925952Y-123595159D01*
X189916066Y-123606066D01*
X189905159Y-123615952D01*
X189893336Y-123624720D01*
X189880710Y-123632288D01*
X189867403Y-123638582D01*
X189853543Y-123643541D01*
X189839264Y-123647118D01*
X189824703Y-123649278D01*
X189810000Y-123650000D01*
X189510000Y-123650000D01*
X189495297Y-123649278D01*
X189480736Y-123647118D01*
X189466457Y-123643541D01*
X189452597Y-123638582D01*
X189439290Y-123632288D01*
X189426664Y-123624720D01*
X189414841Y-123615952D01*
X189403934Y-123606066D01*
X189394048Y-123595159D01*
X189385280Y-123583336D01*
X189377712Y-123570710D01*
X189371418Y-123557403D01*
X189366459Y-123543543D01*
X189362882Y-123529264D01*
X189360722Y-123514703D01*
X189360000Y-123500000D01*
X189360000Y-121850000D01*
X189360722Y-121835297D01*
X189362882Y-121820736D01*
X189366459Y-121806457D01*
X189371418Y-121792597D01*
X189377712Y-121779290D01*
X189385280Y-121766664D01*
X189394048Y-121754841D01*
X189403934Y-121743934D01*
X189414841Y-121734048D01*
X189426664Y-121725280D01*
X189439290Y-121717712D01*
X189452597Y-121711418D01*
X189466457Y-121706459D01*
X189480736Y-121702882D01*
X189495297Y-121700722D01*
X189510000Y-121700000D01*
X189810000Y-121700000D01*
X189824703Y-121700722D01*
G37*
G04 #@! TD.AperFunction*
G04 #@! TA.AperFunction,SMDPad,CuDef*
G36*
X188554703Y-121700722D02*
G01*
X188569264Y-121702882D01*
X188583543Y-121706459D01*
X188597403Y-121711418D01*
X188610710Y-121717712D01*
X188623336Y-121725280D01*
X188635159Y-121734048D01*
X188646066Y-121743934D01*
X188655952Y-121754841D01*
X188664720Y-121766664D01*
X188672288Y-121779290D01*
X188678582Y-121792597D01*
X188683541Y-121806457D01*
X188687118Y-121820736D01*
X188689278Y-121835297D01*
X188690000Y-121850000D01*
X188690000Y-123500000D01*
X188689278Y-123514703D01*
X188687118Y-123529264D01*
X188683541Y-123543543D01*
X188678582Y-123557403D01*
X188672288Y-123570710D01*
X188664720Y-123583336D01*
X188655952Y-123595159D01*
X188646066Y-123606066D01*
X188635159Y-123615952D01*
X188623336Y-123624720D01*
X188610710Y-123632288D01*
X188597403Y-123638582D01*
X188583543Y-123643541D01*
X188569264Y-123647118D01*
X188554703Y-123649278D01*
X188540000Y-123650000D01*
X188240000Y-123650000D01*
X188225297Y-123649278D01*
X188210736Y-123647118D01*
X188196457Y-123643541D01*
X188182597Y-123638582D01*
X188169290Y-123632288D01*
X188156664Y-123624720D01*
X188144841Y-123615952D01*
X188133934Y-123606066D01*
X188124048Y-123595159D01*
X188115280Y-123583336D01*
X188107712Y-123570710D01*
X188101418Y-123557403D01*
X188096459Y-123543543D01*
X188092882Y-123529264D01*
X188090722Y-123514703D01*
X188090000Y-123500000D01*
X188090000Y-121850000D01*
X188090722Y-121835297D01*
X188092882Y-121820736D01*
X188096459Y-121806457D01*
X188101418Y-121792597D01*
X188107712Y-121779290D01*
X188115280Y-121766664D01*
X188124048Y-121754841D01*
X188133934Y-121743934D01*
X188144841Y-121734048D01*
X188156664Y-121725280D01*
X188169290Y-121717712D01*
X188182597Y-121711418D01*
X188196457Y-121706459D01*
X188210736Y-121702882D01*
X188225297Y-121700722D01*
X188240000Y-121700000D01*
X188540000Y-121700000D01*
X188554703Y-121700722D01*
G37*
G04 #@! TD.AperFunction*
G04 #@! TA.AperFunction,SMDPad,CuDef*
G36*
X188554703Y-116750722D02*
G01*
X188569264Y-116752882D01*
X188583543Y-116756459D01*
X188597403Y-116761418D01*
X188610710Y-116767712D01*
X188623336Y-116775280D01*
X188635159Y-116784048D01*
X188646066Y-116793934D01*
X188655952Y-116804841D01*
X188664720Y-116816664D01*
X188672288Y-116829290D01*
X188678582Y-116842597D01*
X188683541Y-116856457D01*
X188687118Y-116870736D01*
X188689278Y-116885297D01*
X188690000Y-116900000D01*
X188690000Y-118550000D01*
X188689278Y-118564703D01*
X188687118Y-118579264D01*
X188683541Y-118593543D01*
X188678582Y-118607403D01*
X188672288Y-118620710D01*
X188664720Y-118633336D01*
X188655952Y-118645159D01*
X188646066Y-118656066D01*
X188635159Y-118665952D01*
X188623336Y-118674720D01*
X188610710Y-118682288D01*
X188597403Y-118688582D01*
X188583543Y-118693541D01*
X188569264Y-118697118D01*
X188554703Y-118699278D01*
X188540000Y-118700000D01*
X188240000Y-118700000D01*
X188225297Y-118699278D01*
X188210736Y-118697118D01*
X188196457Y-118693541D01*
X188182597Y-118688582D01*
X188169290Y-118682288D01*
X188156664Y-118674720D01*
X188144841Y-118665952D01*
X188133934Y-118656066D01*
X188124048Y-118645159D01*
X188115280Y-118633336D01*
X188107712Y-118620710D01*
X188101418Y-118607403D01*
X188096459Y-118593543D01*
X188092882Y-118579264D01*
X188090722Y-118564703D01*
X188090000Y-118550000D01*
X188090000Y-116900000D01*
X188090722Y-116885297D01*
X188092882Y-116870736D01*
X188096459Y-116856457D01*
X188101418Y-116842597D01*
X188107712Y-116829290D01*
X188115280Y-116816664D01*
X188124048Y-116804841D01*
X188133934Y-116793934D01*
X188144841Y-116784048D01*
X188156664Y-116775280D01*
X188169290Y-116767712D01*
X188182597Y-116761418D01*
X188196457Y-116756459D01*
X188210736Y-116752882D01*
X188225297Y-116750722D01*
X188240000Y-116750000D01*
X188540000Y-116750000D01*
X188554703Y-116750722D01*
G37*
G04 #@! TD.AperFunction*
G04 #@! TA.AperFunction,SMDPad,CuDef*
G36*
X189824703Y-116750722D02*
G01*
X189839264Y-116752882D01*
X189853543Y-116756459D01*
X189867403Y-116761418D01*
X189880710Y-116767712D01*
X189893336Y-116775280D01*
X189905159Y-116784048D01*
X189916066Y-116793934D01*
X189925952Y-116804841D01*
X189934720Y-116816664D01*
X189942288Y-116829290D01*
X189948582Y-116842597D01*
X189953541Y-116856457D01*
X189957118Y-116870736D01*
X189959278Y-116885297D01*
X189960000Y-116900000D01*
X189960000Y-118550000D01*
X189959278Y-118564703D01*
X189957118Y-118579264D01*
X189953541Y-118593543D01*
X189948582Y-118607403D01*
X189942288Y-118620710D01*
X189934720Y-118633336D01*
X189925952Y-118645159D01*
X189916066Y-118656066D01*
X189905159Y-118665952D01*
X189893336Y-118674720D01*
X189880710Y-118682288D01*
X189867403Y-118688582D01*
X189853543Y-118693541D01*
X189839264Y-118697118D01*
X189824703Y-118699278D01*
X189810000Y-118700000D01*
X189510000Y-118700000D01*
X189495297Y-118699278D01*
X189480736Y-118697118D01*
X189466457Y-118693541D01*
X189452597Y-118688582D01*
X189439290Y-118682288D01*
X189426664Y-118674720D01*
X189414841Y-118665952D01*
X189403934Y-118656066D01*
X189394048Y-118645159D01*
X189385280Y-118633336D01*
X189377712Y-118620710D01*
X189371418Y-118607403D01*
X189366459Y-118593543D01*
X189362882Y-118579264D01*
X189360722Y-118564703D01*
X189360000Y-118550000D01*
X189360000Y-116900000D01*
X189360722Y-116885297D01*
X189362882Y-116870736D01*
X189366459Y-116856457D01*
X189371418Y-116842597D01*
X189377712Y-116829290D01*
X189385280Y-116816664D01*
X189394048Y-116804841D01*
X189403934Y-116793934D01*
X189414841Y-116784048D01*
X189426664Y-116775280D01*
X189439290Y-116767712D01*
X189452597Y-116761418D01*
X189466457Y-116756459D01*
X189480736Y-116752882D01*
X189495297Y-116750722D01*
X189510000Y-116750000D01*
X189810000Y-116750000D01*
X189824703Y-116750722D01*
G37*
G04 #@! TD.AperFunction*
G04 #@! TA.AperFunction,SMDPad,CuDef*
G36*
X191094703Y-116750722D02*
G01*
X191109264Y-116752882D01*
X191123543Y-116756459D01*
X191137403Y-116761418D01*
X191150710Y-116767712D01*
X191163336Y-116775280D01*
X191175159Y-116784048D01*
X191186066Y-116793934D01*
X191195952Y-116804841D01*
X191204720Y-116816664D01*
X191212288Y-116829290D01*
X191218582Y-116842597D01*
X191223541Y-116856457D01*
X191227118Y-116870736D01*
X191229278Y-116885297D01*
X191230000Y-116900000D01*
X191230000Y-118550000D01*
X191229278Y-118564703D01*
X191227118Y-118579264D01*
X191223541Y-118593543D01*
X191218582Y-118607403D01*
X191212288Y-118620710D01*
X191204720Y-118633336D01*
X191195952Y-118645159D01*
X191186066Y-118656066D01*
X191175159Y-118665952D01*
X191163336Y-118674720D01*
X191150710Y-118682288D01*
X191137403Y-118688582D01*
X191123543Y-118693541D01*
X191109264Y-118697118D01*
X191094703Y-118699278D01*
X191080000Y-118700000D01*
X190780000Y-118700000D01*
X190765297Y-118699278D01*
X190750736Y-118697118D01*
X190736457Y-118693541D01*
X190722597Y-118688582D01*
X190709290Y-118682288D01*
X190696664Y-118674720D01*
X190684841Y-118665952D01*
X190673934Y-118656066D01*
X190664048Y-118645159D01*
X190655280Y-118633336D01*
X190647712Y-118620710D01*
X190641418Y-118607403D01*
X190636459Y-118593543D01*
X190632882Y-118579264D01*
X190630722Y-118564703D01*
X190630000Y-118550000D01*
X190630000Y-116900000D01*
X190630722Y-116885297D01*
X190632882Y-116870736D01*
X190636459Y-116856457D01*
X190641418Y-116842597D01*
X190647712Y-116829290D01*
X190655280Y-116816664D01*
X190664048Y-116804841D01*
X190673934Y-116793934D01*
X190684841Y-116784048D01*
X190696664Y-116775280D01*
X190709290Y-116767712D01*
X190722597Y-116761418D01*
X190736457Y-116756459D01*
X190750736Y-116752882D01*
X190765297Y-116750722D01*
X190780000Y-116750000D01*
X191080000Y-116750000D01*
X191094703Y-116750722D01*
G37*
G04 #@! TD.AperFunction*
G04 #@! TA.AperFunction,SMDPad,CuDef*
G36*
X192364703Y-116750722D02*
G01*
X192379264Y-116752882D01*
X192393543Y-116756459D01*
X192407403Y-116761418D01*
X192420710Y-116767712D01*
X192433336Y-116775280D01*
X192445159Y-116784048D01*
X192456066Y-116793934D01*
X192465952Y-116804841D01*
X192474720Y-116816664D01*
X192482288Y-116829290D01*
X192488582Y-116842597D01*
X192493541Y-116856457D01*
X192497118Y-116870736D01*
X192499278Y-116885297D01*
X192500000Y-116900000D01*
X192500000Y-118550000D01*
X192499278Y-118564703D01*
X192497118Y-118579264D01*
X192493541Y-118593543D01*
X192488582Y-118607403D01*
X192482288Y-118620710D01*
X192474720Y-118633336D01*
X192465952Y-118645159D01*
X192456066Y-118656066D01*
X192445159Y-118665952D01*
X192433336Y-118674720D01*
X192420710Y-118682288D01*
X192407403Y-118688582D01*
X192393543Y-118693541D01*
X192379264Y-118697118D01*
X192364703Y-118699278D01*
X192350000Y-118700000D01*
X192050000Y-118700000D01*
X192035297Y-118699278D01*
X192020736Y-118697118D01*
X192006457Y-118693541D01*
X191992597Y-118688582D01*
X191979290Y-118682288D01*
X191966664Y-118674720D01*
X191954841Y-118665952D01*
X191943934Y-118656066D01*
X191934048Y-118645159D01*
X191925280Y-118633336D01*
X191917712Y-118620710D01*
X191911418Y-118607403D01*
X191906459Y-118593543D01*
X191902882Y-118579264D01*
X191900722Y-118564703D01*
X191900000Y-118550000D01*
X191900000Y-116900000D01*
X191900722Y-116885297D01*
X191902882Y-116870736D01*
X191906459Y-116856457D01*
X191911418Y-116842597D01*
X191917712Y-116829290D01*
X191925280Y-116816664D01*
X191934048Y-116804841D01*
X191943934Y-116793934D01*
X191954841Y-116784048D01*
X191966664Y-116775280D01*
X191979290Y-116767712D01*
X191992597Y-116761418D01*
X192006457Y-116756459D01*
X192020736Y-116752882D01*
X192035297Y-116750722D01*
X192050000Y-116750000D01*
X192350000Y-116750000D01*
X192364703Y-116750722D01*
G37*
G04 #@! TD.AperFunction*
G04 #@! TA.AperFunction,SMDPad,CuDef*
G36*
X193634703Y-116750722D02*
G01*
X193649264Y-116752882D01*
X193663543Y-116756459D01*
X193677403Y-116761418D01*
X193690710Y-116767712D01*
X193703336Y-116775280D01*
X193715159Y-116784048D01*
X193726066Y-116793934D01*
X193735952Y-116804841D01*
X193744720Y-116816664D01*
X193752288Y-116829290D01*
X193758582Y-116842597D01*
X193763541Y-116856457D01*
X193767118Y-116870736D01*
X193769278Y-116885297D01*
X193770000Y-116900000D01*
X193770000Y-118550000D01*
X193769278Y-118564703D01*
X193767118Y-118579264D01*
X193763541Y-118593543D01*
X193758582Y-118607403D01*
X193752288Y-118620710D01*
X193744720Y-118633336D01*
X193735952Y-118645159D01*
X193726066Y-118656066D01*
X193715159Y-118665952D01*
X193703336Y-118674720D01*
X193690710Y-118682288D01*
X193677403Y-118688582D01*
X193663543Y-118693541D01*
X193649264Y-118697118D01*
X193634703Y-118699278D01*
X193620000Y-118700000D01*
X193320000Y-118700000D01*
X193305297Y-118699278D01*
X193290736Y-118697118D01*
X193276457Y-118693541D01*
X193262597Y-118688582D01*
X193249290Y-118682288D01*
X193236664Y-118674720D01*
X193224841Y-118665952D01*
X193213934Y-118656066D01*
X193204048Y-118645159D01*
X193195280Y-118633336D01*
X193187712Y-118620710D01*
X193181418Y-118607403D01*
X193176459Y-118593543D01*
X193172882Y-118579264D01*
X193170722Y-118564703D01*
X193170000Y-118550000D01*
X193170000Y-116900000D01*
X193170722Y-116885297D01*
X193172882Y-116870736D01*
X193176459Y-116856457D01*
X193181418Y-116842597D01*
X193187712Y-116829290D01*
X193195280Y-116816664D01*
X193204048Y-116804841D01*
X193213934Y-116793934D01*
X193224841Y-116784048D01*
X193236664Y-116775280D01*
X193249290Y-116767712D01*
X193262597Y-116761418D01*
X193276457Y-116756459D01*
X193290736Y-116752882D01*
X193305297Y-116750722D01*
X193320000Y-116750000D01*
X193620000Y-116750000D01*
X193634703Y-116750722D01*
G37*
G04 #@! TD.AperFunction*
G04 #@! TA.AperFunction,SMDPad,CuDef*
G36*
X194904703Y-116750722D02*
G01*
X194919264Y-116752882D01*
X194933543Y-116756459D01*
X194947403Y-116761418D01*
X194960710Y-116767712D01*
X194973336Y-116775280D01*
X194985159Y-116784048D01*
X194996066Y-116793934D01*
X195005952Y-116804841D01*
X195014720Y-116816664D01*
X195022288Y-116829290D01*
X195028582Y-116842597D01*
X195033541Y-116856457D01*
X195037118Y-116870736D01*
X195039278Y-116885297D01*
X195040000Y-116900000D01*
X195040000Y-118550000D01*
X195039278Y-118564703D01*
X195037118Y-118579264D01*
X195033541Y-118593543D01*
X195028582Y-118607403D01*
X195022288Y-118620710D01*
X195014720Y-118633336D01*
X195005952Y-118645159D01*
X194996066Y-118656066D01*
X194985159Y-118665952D01*
X194973336Y-118674720D01*
X194960710Y-118682288D01*
X194947403Y-118688582D01*
X194933543Y-118693541D01*
X194919264Y-118697118D01*
X194904703Y-118699278D01*
X194890000Y-118700000D01*
X194590000Y-118700000D01*
X194575297Y-118699278D01*
X194560736Y-118697118D01*
X194546457Y-118693541D01*
X194532597Y-118688582D01*
X194519290Y-118682288D01*
X194506664Y-118674720D01*
X194494841Y-118665952D01*
X194483934Y-118656066D01*
X194474048Y-118645159D01*
X194465280Y-118633336D01*
X194457712Y-118620710D01*
X194451418Y-118607403D01*
X194446459Y-118593543D01*
X194442882Y-118579264D01*
X194440722Y-118564703D01*
X194440000Y-118550000D01*
X194440000Y-116900000D01*
X194440722Y-116885297D01*
X194442882Y-116870736D01*
X194446459Y-116856457D01*
X194451418Y-116842597D01*
X194457712Y-116829290D01*
X194465280Y-116816664D01*
X194474048Y-116804841D01*
X194483934Y-116793934D01*
X194494841Y-116784048D01*
X194506664Y-116775280D01*
X194519290Y-116767712D01*
X194532597Y-116761418D01*
X194546457Y-116756459D01*
X194560736Y-116752882D01*
X194575297Y-116750722D01*
X194590000Y-116750000D01*
X194890000Y-116750000D01*
X194904703Y-116750722D01*
G37*
G04 #@! TD.AperFunction*
G04 #@! TA.AperFunction,SMDPad,CuDef*
G36*
X196174703Y-116750722D02*
G01*
X196189264Y-116752882D01*
X196203543Y-116756459D01*
X196217403Y-116761418D01*
X196230710Y-116767712D01*
X196243336Y-116775280D01*
X196255159Y-116784048D01*
X196266066Y-116793934D01*
X196275952Y-116804841D01*
X196284720Y-116816664D01*
X196292288Y-116829290D01*
X196298582Y-116842597D01*
X196303541Y-116856457D01*
X196307118Y-116870736D01*
X196309278Y-116885297D01*
X196310000Y-116900000D01*
X196310000Y-118550000D01*
X196309278Y-118564703D01*
X196307118Y-118579264D01*
X196303541Y-118593543D01*
X196298582Y-118607403D01*
X196292288Y-118620710D01*
X196284720Y-118633336D01*
X196275952Y-118645159D01*
X196266066Y-118656066D01*
X196255159Y-118665952D01*
X196243336Y-118674720D01*
X196230710Y-118682288D01*
X196217403Y-118688582D01*
X196203543Y-118693541D01*
X196189264Y-118697118D01*
X196174703Y-118699278D01*
X196160000Y-118700000D01*
X195860000Y-118700000D01*
X195845297Y-118699278D01*
X195830736Y-118697118D01*
X195816457Y-118693541D01*
X195802597Y-118688582D01*
X195789290Y-118682288D01*
X195776664Y-118674720D01*
X195764841Y-118665952D01*
X195753934Y-118656066D01*
X195744048Y-118645159D01*
X195735280Y-118633336D01*
X195727712Y-118620710D01*
X195721418Y-118607403D01*
X195716459Y-118593543D01*
X195712882Y-118579264D01*
X195710722Y-118564703D01*
X195710000Y-118550000D01*
X195710000Y-116900000D01*
X195710722Y-116885297D01*
X195712882Y-116870736D01*
X195716459Y-116856457D01*
X195721418Y-116842597D01*
X195727712Y-116829290D01*
X195735280Y-116816664D01*
X195744048Y-116804841D01*
X195753934Y-116793934D01*
X195764841Y-116784048D01*
X195776664Y-116775280D01*
X195789290Y-116767712D01*
X195802597Y-116761418D01*
X195816457Y-116756459D01*
X195830736Y-116752882D01*
X195845297Y-116750722D01*
X195860000Y-116750000D01*
X196160000Y-116750000D01*
X196174703Y-116750722D01*
G37*
G04 #@! TD.AperFunction*
G04 #@! TA.AperFunction,SMDPad,CuDef*
G36*
X198474505Y-119201204D02*
G01*
X198498773Y-119204804D01*
X198522572Y-119210765D01*
X198545671Y-119219030D01*
X198567850Y-119229520D01*
X198588893Y-119242132D01*
X198608599Y-119256747D01*
X198626777Y-119273223D01*
X198643253Y-119291401D01*
X198657868Y-119311107D01*
X198670480Y-119332150D01*
X198680970Y-119354329D01*
X198689235Y-119377428D01*
X198695196Y-119401227D01*
X198698796Y-119425495D01*
X198700000Y-119449999D01*
X198700000Y-120100001D01*
X198698796Y-120124505D01*
X198695196Y-120148773D01*
X198689235Y-120172572D01*
X198680970Y-120195671D01*
X198670480Y-120217850D01*
X198657868Y-120238893D01*
X198643253Y-120258599D01*
X198626777Y-120276777D01*
X198608599Y-120293253D01*
X198588893Y-120307868D01*
X198567850Y-120320480D01*
X198545671Y-120330970D01*
X198522572Y-120339235D01*
X198498773Y-120345196D01*
X198474505Y-120348796D01*
X198450001Y-120350000D01*
X197549999Y-120350000D01*
X197525495Y-120348796D01*
X197501227Y-120345196D01*
X197477428Y-120339235D01*
X197454329Y-120330970D01*
X197432150Y-120320480D01*
X197411107Y-120307868D01*
X197391401Y-120293253D01*
X197373223Y-120276777D01*
X197356747Y-120258599D01*
X197342132Y-120238893D01*
X197329520Y-120217850D01*
X197319030Y-120195671D01*
X197310765Y-120172572D01*
X197304804Y-120148773D01*
X197301204Y-120124505D01*
X197300000Y-120100001D01*
X197300000Y-119449999D01*
X197301204Y-119425495D01*
X197304804Y-119401227D01*
X197310765Y-119377428D01*
X197319030Y-119354329D01*
X197329520Y-119332150D01*
X197342132Y-119311107D01*
X197356747Y-119291401D01*
X197373223Y-119273223D01*
X197391401Y-119256747D01*
X197411107Y-119242132D01*
X197432150Y-119229520D01*
X197454329Y-119219030D01*
X197477428Y-119210765D01*
X197501227Y-119204804D01*
X197525495Y-119201204D01*
X197549999Y-119200000D01*
X198450001Y-119200000D01*
X198474505Y-119201204D01*
G37*
G04 #@! TD.AperFunction*
G04 #@! TA.AperFunction,SMDPad,CuDef*
G36*
X198474505Y-121251204D02*
G01*
X198498773Y-121254804D01*
X198522572Y-121260765D01*
X198545671Y-121269030D01*
X198567850Y-121279520D01*
X198588893Y-121292132D01*
X198608599Y-121306747D01*
X198626777Y-121323223D01*
X198643253Y-121341401D01*
X198657868Y-121361107D01*
X198670480Y-121382150D01*
X198680970Y-121404329D01*
X198689235Y-121427428D01*
X198695196Y-121451227D01*
X198698796Y-121475495D01*
X198700000Y-121499999D01*
X198700000Y-122150001D01*
X198698796Y-122174505D01*
X198695196Y-122198773D01*
X198689235Y-122222572D01*
X198680970Y-122245671D01*
X198670480Y-122267850D01*
X198657868Y-122288893D01*
X198643253Y-122308599D01*
X198626777Y-122326777D01*
X198608599Y-122343253D01*
X198588893Y-122357868D01*
X198567850Y-122370480D01*
X198545671Y-122380970D01*
X198522572Y-122389235D01*
X198498773Y-122395196D01*
X198474505Y-122398796D01*
X198450001Y-122400000D01*
X197549999Y-122400000D01*
X197525495Y-122398796D01*
X197501227Y-122395196D01*
X197477428Y-122389235D01*
X197454329Y-122380970D01*
X197432150Y-122370480D01*
X197411107Y-122357868D01*
X197391401Y-122343253D01*
X197373223Y-122326777D01*
X197356747Y-122308599D01*
X197342132Y-122288893D01*
X197329520Y-122267850D01*
X197319030Y-122245671D01*
X197310765Y-122222572D01*
X197304804Y-122198773D01*
X197301204Y-122174505D01*
X197300000Y-122150001D01*
X197300000Y-121499999D01*
X197301204Y-121475495D01*
X197304804Y-121451227D01*
X197310765Y-121427428D01*
X197319030Y-121404329D01*
X197329520Y-121382150D01*
X197342132Y-121361107D01*
X197356747Y-121341401D01*
X197373223Y-121323223D01*
X197391401Y-121306747D01*
X197411107Y-121292132D01*
X197432150Y-121279520D01*
X197454329Y-121269030D01*
X197477428Y-121260765D01*
X197501227Y-121254804D01*
X197525495Y-121251204D01*
X197549999Y-121250000D01*
X198450001Y-121250000D01*
X198474505Y-121251204D01*
G37*
G04 #@! TD.AperFunction*
D11*
X157800000Y-115800000D03*
X157800000Y-114000000D03*
X157800000Y-112200000D03*
X162600000Y-112200000D03*
X162600000Y-115800000D03*
X162600000Y-114000000D03*
X204275000Y-112325000D03*
X204275000Y-114125000D03*
X204275000Y-115925000D03*
X199475000Y-115925000D03*
X199475000Y-112325000D03*
X199475000Y-114125000D03*
D12*
X190650000Y-105450000D03*
X190650000Y-106100000D03*
X190650000Y-106750000D03*
X188750000Y-105450000D03*
X188750000Y-106100000D03*
X188750000Y-106750000D03*
G04 #@! TA.AperFunction,SMDPad,CuDef*
D10*
G36*
X166074505Y-108451204D02*
G01*
X166098773Y-108454804D01*
X166122572Y-108460765D01*
X166145671Y-108469030D01*
X166167850Y-108479520D01*
X166188893Y-108492132D01*
X166208599Y-108506747D01*
X166226777Y-108523223D01*
X166243253Y-108541401D01*
X166257868Y-108561107D01*
X166270480Y-108582150D01*
X166280970Y-108604329D01*
X166289235Y-108627428D01*
X166295196Y-108651227D01*
X166298796Y-108675495D01*
X166300000Y-108699999D01*
X166300000Y-109350001D01*
X166298796Y-109374505D01*
X166295196Y-109398773D01*
X166289235Y-109422572D01*
X166280970Y-109445671D01*
X166270480Y-109467850D01*
X166257868Y-109488893D01*
X166243253Y-109508599D01*
X166226777Y-109526777D01*
X166208599Y-109543253D01*
X166188893Y-109557868D01*
X166167850Y-109570480D01*
X166145671Y-109580970D01*
X166122572Y-109589235D01*
X166098773Y-109595196D01*
X166074505Y-109598796D01*
X166050001Y-109600000D01*
X165149999Y-109600000D01*
X165125495Y-109598796D01*
X165101227Y-109595196D01*
X165077428Y-109589235D01*
X165054329Y-109580970D01*
X165032150Y-109570480D01*
X165011107Y-109557868D01*
X164991401Y-109543253D01*
X164973223Y-109526777D01*
X164956747Y-109508599D01*
X164942132Y-109488893D01*
X164929520Y-109467850D01*
X164919030Y-109445671D01*
X164910765Y-109422572D01*
X164904804Y-109398773D01*
X164901204Y-109374505D01*
X164900000Y-109350001D01*
X164900000Y-108699999D01*
X164901204Y-108675495D01*
X164904804Y-108651227D01*
X164910765Y-108627428D01*
X164919030Y-108604329D01*
X164929520Y-108582150D01*
X164942132Y-108561107D01*
X164956747Y-108541401D01*
X164973223Y-108523223D01*
X164991401Y-108506747D01*
X165011107Y-108492132D01*
X165032150Y-108479520D01*
X165054329Y-108469030D01*
X165077428Y-108460765D01*
X165101227Y-108454804D01*
X165125495Y-108451204D01*
X165149999Y-108450000D01*
X166050001Y-108450000D01*
X166074505Y-108451204D01*
G37*
G04 #@! TD.AperFunction*
G04 #@! TA.AperFunction,SMDPad,CuDef*
G36*
X166074505Y-106401204D02*
G01*
X166098773Y-106404804D01*
X166122572Y-106410765D01*
X166145671Y-106419030D01*
X166167850Y-106429520D01*
X166188893Y-106442132D01*
X166208599Y-106456747D01*
X166226777Y-106473223D01*
X166243253Y-106491401D01*
X166257868Y-106511107D01*
X166270480Y-106532150D01*
X166280970Y-106554329D01*
X166289235Y-106577428D01*
X166295196Y-106601227D01*
X166298796Y-106625495D01*
X166300000Y-106649999D01*
X166300000Y-107300001D01*
X166298796Y-107324505D01*
X166295196Y-107348773D01*
X166289235Y-107372572D01*
X166280970Y-107395671D01*
X166270480Y-107417850D01*
X166257868Y-107438893D01*
X166243253Y-107458599D01*
X166226777Y-107476777D01*
X166208599Y-107493253D01*
X166188893Y-107507868D01*
X166167850Y-107520480D01*
X166145671Y-107530970D01*
X166122572Y-107539235D01*
X166098773Y-107545196D01*
X166074505Y-107548796D01*
X166050001Y-107550000D01*
X165149999Y-107550000D01*
X165125495Y-107548796D01*
X165101227Y-107545196D01*
X165077428Y-107539235D01*
X165054329Y-107530970D01*
X165032150Y-107520480D01*
X165011107Y-107507868D01*
X164991401Y-107493253D01*
X164973223Y-107476777D01*
X164956747Y-107458599D01*
X164942132Y-107438893D01*
X164929520Y-107417850D01*
X164919030Y-107395671D01*
X164910765Y-107372572D01*
X164904804Y-107348773D01*
X164901204Y-107324505D01*
X164900000Y-107300001D01*
X164900000Y-106649999D01*
X164901204Y-106625495D01*
X164904804Y-106601227D01*
X164910765Y-106577428D01*
X164919030Y-106554329D01*
X164929520Y-106532150D01*
X164942132Y-106511107D01*
X164956747Y-106491401D01*
X164973223Y-106473223D01*
X164991401Y-106456747D01*
X165011107Y-106442132D01*
X165032150Y-106429520D01*
X165054329Y-106419030D01*
X165077428Y-106410765D01*
X165101227Y-106404804D01*
X165125495Y-106401204D01*
X165149999Y-106400000D01*
X166050001Y-106400000D01*
X166074505Y-106401204D01*
G37*
G04 #@! TD.AperFunction*
G04 #@! TA.AperFunction,SMDPad,CuDef*
G36*
X169674505Y-108451204D02*
G01*
X169698773Y-108454804D01*
X169722572Y-108460765D01*
X169745671Y-108469030D01*
X169767850Y-108479520D01*
X169788893Y-108492132D01*
X169808599Y-108506747D01*
X169826777Y-108523223D01*
X169843253Y-108541401D01*
X169857868Y-108561107D01*
X169870480Y-108582150D01*
X169880970Y-108604329D01*
X169889235Y-108627428D01*
X169895196Y-108651227D01*
X169898796Y-108675495D01*
X169900000Y-108699999D01*
X169900000Y-109350001D01*
X169898796Y-109374505D01*
X169895196Y-109398773D01*
X169889235Y-109422572D01*
X169880970Y-109445671D01*
X169870480Y-109467850D01*
X169857868Y-109488893D01*
X169843253Y-109508599D01*
X169826777Y-109526777D01*
X169808599Y-109543253D01*
X169788893Y-109557868D01*
X169767850Y-109570480D01*
X169745671Y-109580970D01*
X169722572Y-109589235D01*
X169698773Y-109595196D01*
X169674505Y-109598796D01*
X169650001Y-109600000D01*
X168749999Y-109600000D01*
X168725495Y-109598796D01*
X168701227Y-109595196D01*
X168677428Y-109589235D01*
X168654329Y-109580970D01*
X168632150Y-109570480D01*
X168611107Y-109557868D01*
X168591401Y-109543253D01*
X168573223Y-109526777D01*
X168556747Y-109508599D01*
X168542132Y-109488893D01*
X168529520Y-109467850D01*
X168519030Y-109445671D01*
X168510765Y-109422572D01*
X168504804Y-109398773D01*
X168501204Y-109374505D01*
X168500000Y-109350001D01*
X168500000Y-108699999D01*
X168501204Y-108675495D01*
X168504804Y-108651227D01*
X168510765Y-108627428D01*
X168519030Y-108604329D01*
X168529520Y-108582150D01*
X168542132Y-108561107D01*
X168556747Y-108541401D01*
X168573223Y-108523223D01*
X168591401Y-108506747D01*
X168611107Y-108492132D01*
X168632150Y-108479520D01*
X168654329Y-108469030D01*
X168677428Y-108460765D01*
X168701227Y-108454804D01*
X168725495Y-108451204D01*
X168749999Y-108450000D01*
X169650001Y-108450000D01*
X169674505Y-108451204D01*
G37*
G04 #@! TD.AperFunction*
G04 #@! TA.AperFunction,SMDPad,CuDef*
G36*
X169674505Y-106401204D02*
G01*
X169698773Y-106404804D01*
X169722572Y-106410765D01*
X169745671Y-106419030D01*
X169767850Y-106429520D01*
X169788893Y-106442132D01*
X169808599Y-106456747D01*
X169826777Y-106473223D01*
X169843253Y-106491401D01*
X169857868Y-106511107D01*
X169870480Y-106532150D01*
X169880970Y-106554329D01*
X169889235Y-106577428D01*
X169895196Y-106601227D01*
X169898796Y-106625495D01*
X169900000Y-106649999D01*
X169900000Y-107300001D01*
X169898796Y-107324505D01*
X169895196Y-107348773D01*
X169889235Y-107372572D01*
X169880970Y-107395671D01*
X169870480Y-107417850D01*
X169857868Y-107438893D01*
X169843253Y-107458599D01*
X169826777Y-107476777D01*
X169808599Y-107493253D01*
X169788893Y-107507868D01*
X169767850Y-107520480D01*
X169745671Y-107530970D01*
X169722572Y-107539235D01*
X169698773Y-107545196D01*
X169674505Y-107548796D01*
X169650001Y-107550000D01*
X168749999Y-107550000D01*
X168725495Y-107548796D01*
X168701227Y-107545196D01*
X168677428Y-107539235D01*
X168654329Y-107530970D01*
X168632150Y-107520480D01*
X168611107Y-107507868D01*
X168591401Y-107493253D01*
X168573223Y-107476777D01*
X168556747Y-107458599D01*
X168542132Y-107438893D01*
X168529520Y-107417850D01*
X168519030Y-107395671D01*
X168510765Y-107372572D01*
X168504804Y-107348773D01*
X168501204Y-107324505D01*
X168500000Y-107300001D01*
X168500000Y-106649999D01*
X168501204Y-106625495D01*
X168504804Y-106601227D01*
X168510765Y-106577428D01*
X168519030Y-106554329D01*
X168529520Y-106532150D01*
X168542132Y-106511107D01*
X168556747Y-106491401D01*
X168573223Y-106473223D01*
X168591401Y-106456747D01*
X168611107Y-106442132D01*
X168632150Y-106429520D01*
X168654329Y-106419030D01*
X168677428Y-106410765D01*
X168701227Y-106404804D01*
X168725495Y-106401204D01*
X168749999Y-106400000D01*
X169650001Y-106400000D01*
X169674505Y-106401204D01*
G37*
G04 #@! TD.AperFunction*
G04 #@! TA.AperFunction,SMDPad,CuDef*
G36*
X162674505Y-108451204D02*
G01*
X162698773Y-108454804D01*
X162722572Y-108460765D01*
X162745671Y-108469030D01*
X162767850Y-108479520D01*
X162788893Y-108492132D01*
X162808599Y-108506747D01*
X162826777Y-108523223D01*
X162843253Y-108541401D01*
X162857868Y-108561107D01*
X162870480Y-108582150D01*
X162880970Y-108604329D01*
X162889235Y-108627428D01*
X162895196Y-108651227D01*
X162898796Y-108675495D01*
X162900000Y-108699999D01*
X162900000Y-109350001D01*
X162898796Y-109374505D01*
X162895196Y-109398773D01*
X162889235Y-109422572D01*
X162880970Y-109445671D01*
X162870480Y-109467850D01*
X162857868Y-109488893D01*
X162843253Y-109508599D01*
X162826777Y-109526777D01*
X162808599Y-109543253D01*
X162788893Y-109557868D01*
X162767850Y-109570480D01*
X162745671Y-109580970D01*
X162722572Y-109589235D01*
X162698773Y-109595196D01*
X162674505Y-109598796D01*
X162650001Y-109600000D01*
X161749999Y-109600000D01*
X161725495Y-109598796D01*
X161701227Y-109595196D01*
X161677428Y-109589235D01*
X161654329Y-109580970D01*
X161632150Y-109570480D01*
X161611107Y-109557868D01*
X161591401Y-109543253D01*
X161573223Y-109526777D01*
X161556747Y-109508599D01*
X161542132Y-109488893D01*
X161529520Y-109467850D01*
X161519030Y-109445671D01*
X161510765Y-109422572D01*
X161504804Y-109398773D01*
X161501204Y-109374505D01*
X161500000Y-109350001D01*
X161500000Y-108699999D01*
X161501204Y-108675495D01*
X161504804Y-108651227D01*
X161510765Y-108627428D01*
X161519030Y-108604329D01*
X161529520Y-108582150D01*
X161542132Y-108561107D01*
X161556747Y-108541401D01*
X161573223Y-108523223D01*
X161591401Y-108506747D01*
X161611107Y-108492132D01*
X161632150Y-108479520D01*
X161654329Y-108469030D01*
X161677428Y-108460765D01*
X161701227Y-108454804D01*
X161725495Y-108451204D01*
X161749999Y-108450000D01*
X162650001Y-108450000D01*
X162674505Y-108451204D01*
G37*
G04 #@! TD.AperFunction*
G04 #@! TA.AperFunction,SMDPad,CuDef*
G36*
X162674505Y-106401204D02*
G01*
X162698773Y-106404804D01*
X162722572Y-106410765D01*
X162745671Y-106419030D01*
X162767850Y-106429520D01*
X162788893Y-106442132D01*
X162808599Y-106456747D01*
X162826777Y-106473223D01*
X162843253Y-106491401D01*
X162857868Y-106511107D01*
X162870480Y-106532150D01*
X162880970Y-106554329D01*
X162889235Y-106577428D01*
X162895196Y-106601227D01*
X162898796Y-106625495D01*
X162900000Y-106649999D01*
X162900000Y-107300001D01*
X162898796Y-107324505D01*
X162895196Y-107348773D01*
X162889235Y-107372572D01*
X162880970Y-107395671D01*
X162870480Y-107417850D01*
X162857868Y-107438893D01*
X162843253Y-107458599D01*
X162826777Y-107476777D01*
X162808599Y-107493253D01*
X162788893Y-107507868D01*
X162767850Y-107520480D01*
X162745671Y-107530970D01*
X162722572Y-107539235D01*
X162698773Y-107545196D01*
X162674505Y-107548796D01*
X162650001Y-107550000D01*
X161749999Y-107550000D01*
X161725495Y-107548796D01*
X161701227Y-107545196D01*
X161677428Y-107539235D01*
X161654329Y-107530970D01*
X161632150Y-107520480D01*
X161611107Y-107507868D01*
X161591401Y-107493253D01*
X161573223Y-107476777D01*
X161556747Y-107458599D01*
X161542132Y-107438893D01*
X161529520Y-107417850D01*
X161519030Y-107395671D01*
X161510765Y-107372572D01*
X161504804Y-107348773D01*
X161501204Y-107324505D01*
X161500000Y-107300001D01*
X161500000Y-106649999D01*
X161501204Y-106625495D01*
X161504804Y-106601227D01*
X161510765Y-106577428D01*
X161519030Y-106554329D01*
X161529520Y-106532150D01*
X161542132Y-106511107D01*
X161556747Y-106491401D01*
X161573223Y-106473223D01*
X161591401Y-106456747D01*
X161611107Y-106442132D01*
X161632150Y-106429520D01*
X161654329Y-106419030D01*
X161677428Y-106410765D01*
X161701227Y-106404804D01*
X161725495Y-106401204D01*
X161749999Y-106400000D01*
X162650001Y-106400000D01*
X162674505Y-106401204D01*
G37*
G04 #@! TD.AperFunction*
G04 #@! TA.AperFunction,SMDPad,CuDef*
G36*
X203974505Y-108951204D02*
G01*
X203998773Y-108954804D01*
X204022572Y-108960765D01*
X204045671Y-108969030D01*
X204067850Y-108979520D01*
X204088893Y-108992132D01*
X204108599Y-109006747D01*
X204126777Y-109023223D01*
X204143253Y-109041401D01*
X204157868Y-109061107D01*
X204170480Y-109082150D01*
X204180970Y-109104329D01*
X204189235Y-109127428D01*
X204195196Y-109151227D01*
X204198796Y-109175495D01*
X204200000Y-109199999D01*
X204200000Y-109850001D01*
X204198796Y-109874505D01*
X204195196Y-109898773D01*
X204189235Y-109922572D01*
X204180970Y-109945671D01*
X204170480Y-109967850D01*
X204157868Y-109988893D01*
X204143253Y-110008599D01*
X204126777Y-110026777D01*
X204108599Y-110043253D01*
X204088893Y-110057868D01*
X204067850Y-110070480D01*
X204045671Y-110080970D01*
X204022572Y-110089235D01*
X203998773Y-110095196D01*
X203974505Y-110098796D01*
X203950001Y-110100000D01*
X203049999Y-110100000D01*
X203025495Y-110098796D01*
X203001227Y-110095196D01*
X202977428Y-110089235D01*
X202954329Y-110080970D01*
X202932150Y-110070480D01*
X202911107Y-110057868D01*
X202891401Y-110043253D01*
X202873223Y-110026777D01*
X202856747Y-110008599D01*
X202842132Y-109988893D01*
X202829520Y-109967850D01*
X202819030Y-109945671D01*
X202810765Y-109922572D01*
X202804804Y-109898773D01*
X202801204Y-109874505D01*
X202800000Y-109850001D01*
X202800000Y-109199999D01*
X202801204Y-109175495D01*
X202804804Y-109151227D01*
X202810765Y-109127428D01*
X202819030Y-109104329D01*
X202829520Y-109082150D01*
X202842132Y-109061107D01*
X202856747Y-109041401D01*
X202873223Y-109023223D01*
X202891401Y-109006747D01*
X202911107Y-108992132D01*
X202932150Y-108979520D01*
X202954329Y-108969030D01*
X202977428Y-108960765D01*
X203001227Y-108954804D01*
X203025495Y-108951204D01*
X203049999Y-108950000D01*
X203950001Y-108950000D01*
X203974505Y-108951204D01*
G37*
G04 #@! TD.AperFunction*
G04 #@! TA.AperFunction,SMDPad,CuDef*
G36*
X203974505Y-106901204D02*
G01*
X203998773Y-106904804D01*
X204022572Y-106910765D01*
X204045671Y-106919030D01*
X204067850Y-106929520D01*
X204088893Y-106942132D01*
X204108599Y-106956747D01*
X204126777Y-106973223D01*
X204143253Y-106991401D01*
X204157868Y-107011107D01*
X204170480Y-107032150D01*
X204180970Y-107054329D01*
X204189235Y-107077428D01*
X204195196Y-107101227D01*
X204198796Y-107125495D01*
X204200000Y-107149999D01*
X204200000Y-107800001D01*
X204198796Y-107824505D01*
X204195196Y-107848773D01*
X204189235Y-107872572D01*
X204180970Y-107895671D01*
X204170480Y-107917850D01*
X204157868Y-107938893D01*
X204143253Y-107958599D01*
X204126777Y-107976777D01*
X204108599Y-107993253D01*
X204088893Y-108007868D01*
X204067850Y-108020480D01*
X204045671Y-108030970D01*
X204022572Y-108039235D01*
X203998773Y-108045196D01*
X203974505Y-108048796D01*
X203950001Y-108050000D01*
X203049999Y-108050000D01*
X203025495Y-108048796D01*
X203001227Y-108045196D01*
X202977428Y-108039235D01*
X202954329Y-108030970D01*
X202932150Y-108020480D01*
X202911107Y-108007868D01*
X202891401Y-107993253D01*
X202873223Y-107976777D01*
X202856747Y-107958599D01*
X202842132Y-107938893D01*
X202829520Y-107917850D01*
X202819030Y-107895671D01*
X202810765Y-107872572D01*
X202804804Y-107848773D01*
X202801204Y-107824505D01*
X202800000Y-107800001D01*
X202800000Y-107149999D01*
X202801204Y-107125495D01*
X202804804Y-107101227D01*
X202810765Y-107077428D01*
X202819030Y-107054329D01*
X202829520Y-107032150D01*
X202842132Y-107011107D01*
X202856747Y-106991401D01*
X202873223Y-106973223D01*
X202891401Y-106956747D01*
X202911107Y-106942132D01*
X202932150Y-106929520D01*
X202954329Y-106919030D01*
X202977428Y-106910765D01*
X203001227Y-106904804D01*
X203025495Y-106901204D01*
X203049999Y-106900000D01*
X203950001Y-106900000D01*
X203974505Y-106901204D01*
G37*
G04 #@! TD.AperFunction*
G04 #@! TA.AperFunction,SMDPad,CuDef*
G36*
X199974505Y-108951204D02*
G01*
X199998773Y-108954804D01*
X200022572Y-108960765D01*
X200045671Y-108969030D01*
X200067850Y-108979520D01*
X200088893Y-108992132D01*
X200108599Y-109006747D01*
X200126777Y-109023223D01*
X200143253Y-109041401D01*
X200157868Y-109061107D01*
X200170480Y-109082150D01*
X200180970Y-109104329D01*
X200189235Y-109127428D01*
X200195196Y-109151227D01*
X200198796Y-109175495D01*
X200200000Y-109199999D01*
X200200000Y-109850001D01*
X200198796Y-109874505D01*
X200195196Y-109898773D01*
X200189235Y-109922572D01*
X200180970Y-109945671D01*
X200170480Y-109967850D01*
X200157868Y-109988893D01*
X200143253Y-110008599D01*
X200126777Y-110026777D01*
X200108599Y-110043253D01*
X200088893Y-110057868D01*
X200067850Y-110070480D01*
X200045671Y-110080970D01*
X200022572Y-110089235D01*
X199998773Y-110095196D01*
X199974505Y-110098796D01*
X199950001Y-110100000D01*
X199049999Y-110100000D01*
X199025495Y-110098796D01*
X199001227Y-110095196D01*
X198977428Y-110089235D01*
X198954329Y-110080970D01*
X198932150Y-110070480D01*
X198911107Y-110057868D01*
X198891401Y-110043253D01*
X198873223Y-110026777D01*
X198856747Y-110008599D01*
X198842132Y-109988893D01*
X198829520Y-109967850D01*
X198819030Y-109945671D01*
X198810765Y-109922572D01*
X198804804Y-109898773D01*
X198801204Y-109874505D01*
X198800000Y-109850001D01*
X198800000Y-109199999D01*
X198801204Y-109175495D01*
X198804804Y-109151227D01*
X198810765Y-109127428D01*
X198819030Y-109104329D01*
X198829520Y-109082150D01*
X198842132Y-109061107D01*
X198856747Y-109041401D01*
X198873223Y-109023223D01*
X198891401Y-109006747D01*
X198911107Y-108992132D01*
X198932150Y-108979520D01*
X198954329Y-108969030D01*
X198977428Y-108960765D01*
X199001227Y-108954804D01*
X199025495Y-108951204D01*
X199049999Y-108950000D01*
X199950001Y-108950000D01*
X199974505Y-108951204D01*
G37*
G04 #@! TD.AperFunction*
G04 #@! TA.AperFunction,SMDPad,CuDef*
G36*
X199974505Y-106901204D02*
G01*
X199998773Y-106904804D01*
X200022572Y-106910765D01*
X200045671Y-106919030D01*
X200067850Y-106929520D01*
X200088893Y-106942132D01*
X200108599Y-106956747D01*
X200126777Y-106973223D01*
X200143253Y-106991401D01*
X200157868Y-107011107D01*
X200170480Y-107032150D01*
X200180970Y-107054329D01*
X200189235Y-107077428D01*
X200195196Y-107101227D01*
X200198796Y-107125495D01*
X200200000Y-107149999D01*
X200200000Y-107800001D01*
X200198796Y-107824505D01*
X200195196Y-107848773D01*
X200189235Y-107872572D01*
X200180970Y-107895671D01*
X200170480Y-107917850D01*
X200157868Y-107938893D01*
X200143253Y-107958599D01*
X200126777Y-107976777D01*
X200108599Y-107993253D01*
X200088893Y-108007868D01*
X200067850Y-108020480D01*
X200045671Y-108030970D01*
X200022572Y-108039235D01*
X199998773Y-108045196D01*
X199974505Y-108048796D01*
X199950001Y-108050000D01*
X199049999Y-108050000D01*
X199025495Y-108048796D01*
X199001227Y-108045196D01*
X198977428Y-108039235D01*
X198954329Y-108030970D01*
X198932150Y-108020480D01*
X198911107Y-108007868D01*
X198891401Y-107993253D01*
X198873223Y-107976777D01*
X198856747Y-107958599D01*
X198842132Y-107938893D01*
X198829520Y-107917850D01*
X198819030Y-107895671D01*
X198810765Y-107872572D01*
X198804804Y-107848773D01*
X198801204Y-107824505D01*
X198800000Y-107800001D01*
X198800000Y-107149999D01*
X198801204Y-107125495D01*
X198804804Y-107101227D01*
X198810765Y-107077428D01*
X198819030Y-107054329D01*
X198829520Y-107032150D01*
X198842132Y-107011107D01*
X198856747Y-106991401D01*
X198873223Y-106973223D01*
X198891401Y-106956747D01*
X198911107Y-106942132D01*
X198932150Y-106929520D01*
X198954329Y-106919030D01*
X198977428Y-106910765D01*
X199001227Y-106904804D01*
X199025495Y-106901204D01*
X199049999Y-106900000D01*
X199950001Y-106900000D01*
X199974505Y-106901204D01*
G37*
G04 #@! TD.AperFunction*
G04 #@! TA.AperFunction,SMDPad,CuDef*
G36*
X196474505Y-108951204D02*
G01*
X196498773Y-108954804D01*
X196522572Y-108960765D01*
X196545671Y-108969030D01*
X196567850Y-108979520D01*
X196588893Y-108992132D01*
X196608599Y-109006747D01*
X196626777Y-109023223D01*
X196643253Y-109041401D01*
X196657868Y-109061107D01*
X196670480Y-109082150D01*
X196680970Y-109104329D01*
X196689235Y-109127428D01*
X196695196Y-109151227D01*
X196698796Y-109175495D01*
X196700000Y-109199999D01*
X196700000Y-109850001D01*
X196698796Y-109874505D01*
X196695196Y-109898773D01*
X196689235Y-109922572D01*
X196680970Y-109945671D01*
X196670480Y-109967850D01*
X196657868Y-109988893D01*
X196643253Y-110008599D01*
X196626777Y-110026777D01*
X196608599Y-110043253D01*
X196588893Y-110057868D01*
X196567850Y-110070480D01*
X196545671Y-110080970D01*
X196522572Y-110089235D01*
X196498773Y-110095196D01*
X196474505Y-110098796D01*
X196450001Y-110100000D01*
X195549999Y-110100000D01*
X195525495Y-110098796D01*
X195501227Y-110095196D01*
X195477428Y-110089235D01*
X195454329Y-110080970D01*
X195432150Y-110070480D01*
X195411107Y-110057868D01*
X195391401Y-110043253D01*
X195373223Y-110026777D01*
X195356747Y-110008599D01*
X195342132Y-109988893D01*
X195329520Y-109967850D01*
X195319030Y-109945671D01*
X195310765Y-109922572D01*
X195304804Y-109898773D01*
X195301204Y-109874505D01*
X195300000Y-109850001D01*
X195300000Y-109199999D01*
X195301204Y-109175495D01*
X195304804Y-109151227D01*
X195310765Y-109127428D01*
X195319030Y-109104329D01*
X195329520Y-109082150D01*
X195342132Y-109061107D01*
X195356747Y-109041401D01*
X195373223Y-109023223D01*
X195391401Y-109006747D01*
X195411107Y-108992132D01*
X195432150Y-108979520D01*
X195454329Y-108969030D01*
X195477428Y-108960765D01*
X195501227Y-108954804D01*
X195525495Y-108951204D01*
X195549999Y-108950000D01*
X196450001Y-108950000D01*
X196474505Y-108951204D01*
G37*
G04 #@! TD.AperFunction*
G04 #@! TA.AperFunction,SMDPad,CuDef*
G36*
X196474505Y-106901204D02*
G01*
X196498773Y-106904804D01*
X196522572Y-106910765D01*
X196545671Y-106919030D01*
X196567850Y-106929520D01*
X196588893Y-106942132D01*
X196608599Y-106956747D01*
X196626777Y-106973223D01*
X196643253Y-106991401D01*
X196657868Y-107011107D01*
X196670480Y-107032150D01*
X196680970Y-107054329D01*
X196689235Y-107077428D01*
X196695196Y-107101227D01*
X196698796Y-107125495D01*
X196700000Y-107149999D01*
X196700000Y-107800001D01*
X196698796Y-107824505D01*
X196695196Y-107848773D01*
X196689235Y-107872572D01*
X196680970Y-107895671D01*
X196670480Y-107917850D01*
X196657868Y-107938893D01*
X196643253Y-107958599D01*
X196626777Y-107976777D01*
X196608599Y-107993253D01*
X196588893Y-108007868D01*
X196567850Y-108020480D01*
X196545671Y-108030970D01*
X196522572Y-108039235D01*
X196498773Y-108045196D01*
X196474505Y-108048796D01*
X196450001Y-108050000D01*
X195549999Y-108050000D01*
X195525495Y-108048796D01*
X195501227Y-108045196D01*
X195477428Y-108039235D01*
X195454329Y-108030970D01*
X195432150Y-108020480D01*
X195411107Y-108007868D01*
X195391401Y-107993253D01*
X195373223Y-107976777D01*
X195356747Y-107958599D01*
X195342132Y-107938893D01*
X195329520Y-107917850D01*
X195319030Y-107895671D01*
X195310765Y-107872572D01*
X195304804Y-107848773D01*
X195301204Y-107824505D01*
X195300000Y-107800001D01*
X195300000Y-107149999D01*
X195301204Y-107125495D01*
X195304804Y-107101227D01*
X195310765Y-107077428D01*
X195319030Y-107054329D01*
X195329520Y-107032150D01*
X195342132Y-107011107D01*
X195356747Y-106991401D01*
X195373223Y-106973223D01*
X195391401Y-106956747D01*
X195411107Y-106942132D01*
X195432150Y-106929520D01*
X195454329Y-106919030D01*
X195477428Y-106910765D01*
X195501227Y-106904804D01*
X195525495Y-106901204D01*
X195549999Y-106900000D01*
X196450001Y-106900000D01*
X196474505Y-106901204D01*
G37*
G04 #@! TD.AperFunction*
G04 #@! TA.AperFunction,SMDPad,CuDef*
G36*
X176124505Y-120101204D02*
G01*
X176148773Y-120104804D01*
X176172572Y-120110765D01*
X176195671Y-120119030D01*
X176217850Y-120129520D01*
X176238893Y-120142132D01*
X176258599Y-120156747D01*
X176276777Y-120173223D01*
X176293253Y-120191401D01*
X176307868Y-120211107D01*
X176320480Y-120232150D01*
X176330970Y-120254329D01*
X176339235Y-120277428D01*
X176345196Y-120301227D01*
X176348796Y-120325495D01*
X176350000Y-120349999D01*
X176350000Y-121000001D01*
X176348796Y-121024505D01*
X176345196Y-121048773D01*
X176339235Y-121072572D01*
X176330970Y-121095671D01*
X176320480Y-121117850D01*
X176307868Y-121138893D01*
X176293253Y-121158599D01*
X176276777Y-121176777D01*
X176258599Y-121193253D01*
X176238893Y-121207868D01*
X176217850Y-121220480D01*
X176195671Y-121230970D01*
X176172572Y-121239235D01*
X176148773Y-121245196D01*
X176124505Y-121248796D01*
X176100001Y-121250000D01*
X175199999Y-121250000D01*
X175175495Y-121248796D01*
X175151227Y-121245196D01*
X175127428Y-121239235D01*
X175104329Y-121230970D01*
X175082150Y-121220480D01*
X175061107Y-121207868D01*
X175041401Y-121193253D01*
X175023223Y-121176777D01*
X175006747Y-121158599D01*
X174992132Y-121138893D01*
X174979520Y-121117850D01*
X174969030Y-121095671D01*
X174960765Y-121072572D01*
X174954804Y-121048773D01*
X174951204Y-121024505D01*
X174950000Y-121000001D01*
X174950000Y-120349999D01*
X174951204Y-120325495D01*
X174954804Y-120301227D01*
X174960765Y-120277428D01*
X174969030Y-120254329D01*
X174979520Y-120232150D01*
X174992132Y-120211107D01*
X175006747Y-120191401D01*
X175023223Y-120173223D01*
X175041401Y-120156747D01*
X175061107Y-120142132D01*
X175082150Y-120129520D01*
X175104329Y-120119030D01*
X175127428Y-120110765D01*
X175151227Y-120104804D01*
X175175495Y-120101204D01*
X175199999Y-120100000D01*
X176100001Y-120100000D01*
X176124505Y-120101204D01*
G37*
G04 #@! TD.AperFunction*
G04 #@! TA.AperFunction,SMDPad,CuDef*
G36*
X176124505Y-122151204D02*
G01*
X176148773Y-122154804D01*
X176172572Y-122160765D01*
X176195671Y-122169030D01*
X176217850Y-122179520D01*
X176238893Y-122192132D01*
X176258599Y-122206747D01*
X176276777Y-122223223D01*
X176293253Y-122241401D01*
X176307868Y-122261107D01*
X176320480Y-122282150D01*
X176330970Y-122304329D01*
X176339235Y-122327428D01*
X176345196Y-122351227D01*
X176348796Y-122375495D01*
X176350000Y-122399999D01*
X176350000Y-123050001D01*
X176348796Y-123074505D01*
X176345196Y-123098773D01*
X176339235Y-123122572D01*
X176330970Y-123145671D01*
X176320480Y-123167850D01*
X176307868Y-123188893D01*
X176293253Y-123208599D01*
X176276777Y-123226777D01*
X176258599Y-123243253D01*
X176238893Y-123257868D01*
X176217850Y-123270480D01*
X176195671Y-123280970D01*
X176172572Y-123289235D01*
X176148773Y-123295196D01*
X176124505Y-123298796D01*
X176100001Y-123300000D01*
X175199999Y-123300000D01*
X175175495Y-123298796D01*
X175151227Y-123295196D01*
X175127428Y-123289235D01*
X175104329Y-123280970D01*
X175082150Y-123270480D01*
X175061107Y-123257868D01*
X175041401Y-123243253D01*
X175023223Y-123226777D01*
X175006747Y-123208599D01*
X174992132Y-123188893D01*
X174979520Y-123167850D01*
X174969030Y-123145671D01*
X174960765Y-123122572D01*
X174954804Y-123098773D01*
X174951204Y-123074505D01*
X174950000Y-123050001D01*
X174950000Y-122399999D01*
X174951204Y-122375495D01*
X174954804Y-122351227D01*
X174960765Y-122327428D01*
X174969030Y-122304329D01*
X174979520Y-122282150D01*
X174992132Y-122261107D01*
X175006747Y-122241401D01*
X175023223Y-122223223D01*
X175041401Y-122206747D01*
X175061107Y-122192132D01*
X175082150Y-122179520D01*
X175104329Y-122169030D01*
X175127428Y-122160765D01*
X175151227Y-122154804D01*
X175175495Y-122151204D01*
X175199999Y-122150000D01*
X176100001Y-122150000D01*
X176124505Y-122151204D01*
G37*
G04 #@! TD.AperFunction*
G04 #@! TA.AperFunction,SMDPad,CuDef*
G36*
X194574505Y-112701204D02*
G01*
X194598773Y-112704804D01*
X194622572Y-112710765D01*
X194645671Y-112719030D01*
X194667850Y-112729520D01*
X194688893Y-112742132D01*
X194708599Y-112756747D01*
X194726777Y-112773223D01*
X194743253Y-112791401D01*
X194757868Y-112811107D01*
X194770480Y-112832150D01*
X194780970Y-112854329D01*
X194789235Y-112877428D01*
X194795196Y-112901227D01*
X194798796Y-112925495D01*
X194800000Y-112949999D01*
X194800000Y-113850001D01*
X194798796Y-113874505D01*
X194795196Y-113898773D01*
X194789235Y-113922572D01*
X194780970Y-113945671D01*
X194770480Y-113967850D01*
X194757868Y-113988893D01*
X194743253Y-114008599D01*
X194726777Y-114026777D01*
X194708599Y-114043253D01*
X194688893Y-114057868D01*
X194667850Y-114070480D01*
X194645671Y-114080970D01*
X194622572Y-114089235D01*
X194598773Y-114095196D01*
X194574505Y-114098796D01*
X194550001Y-114100000D01*
X193899999Y-114100000D01*
X193875495Y-114098796D01*
X193851227Y-114095196D01*
X193827428Y-114089235D01*
X193804329Y-114080970D01*
X193782150Y-114070480D01*
X193761107Y-114057868D01*
X193741401Y-114043253D01*
X193723223Y-114026777D01*
X193706747Y-114008599D01*
X193692132Y-113988893D01*
X193679520Y-113967850D01*
X193669030Y-113945671D01*
X193660765Y-113922572D01*
X193654804Y-113898773D01*
X193651204Y-113874505D01*
X193650000Y-113850001D01*
X193650000Y-112949999D01*
X193651204Y-112925495D01*
X193654804Y-112901227D01*
X193660765Y-112877428D01*
X193669030Y-112854329D01*
X193679520Y-112832150D01*
X193692132Y-112811107D01*
X193706747Y-112791401D01*
X193723223Y-112773223D01*
X193741401Y-112756747D01*
X193761107Y-112742132D01*
X193782150Y-112729520D01*
X193804329Y-112719030D01*
X193827428Y-112710765D01*
X193851227Y-112704804D01*
X193875495Y-112701204D01*
X193899999Y-112700000D01*
X194550001Y-112700000D01*
X194574505Y-112701204D01*
G37*
G04 #@! TD.AperFunction*
G04 #@! TA.AperFunction,SMDPad,CuDef*
G36*
X192524505Y-112701204D02*
G01*
X192548773Y-112704804D01*
X192572572Y-112710765D01*
X192595671Y-112719030D01*
X192617850Y-112729520D01*
X192638893Y-112742132D01*
X192658599Y-112756747D01*
X192676777Y-112773223D01*
X192693253Y-112791401D01*
X192707868Y-112811107D01*
X192720480Y-112832150D01*
X192730970Y-112854329D01*
X192739235Y-112877428D01*
X192745196Y-112901227D01*
X192748796Y-112925495D01*
X192750000Y-112949999D01*
X192750000Y-113850001D01*
X192748796Y-113874505D01*
X192745196Y-113898773D01*
X192739235Y-113922572D01*
X192730970Y-113945671D01*
X192720480Y-113967850D01*
X192707868Y-113988893D01*
X192693253Y-114008599D01*
X192676777Y-114026777D01*
X192658599Y-114043253D01*
X192638893Y-114057868D01*
X192617850Y-114070480D01*
X192595671Y-114080970D01*
X192572572Y-114089235D01*
X192548773Y-114095196D01*
X192524505Y-114098796D01*
X192500001Y-114100000D01*
X191849999Y-114100000D01*
X191825495Y-114098796D01*
X191801227Y-114095196D01*
X191777428Y-114089235D01*
X191754329Y-114080970D01*
X191732150Y-114070480D01*
X191711107Y-114057868D01*
X191691401Y-114043253D01*
X191673223Y-114026777D01*
X191656747Y-114008599D01*
X191642132Y-113988893D01*
X191629520Y-113967850D01*
X191619030Y-113945671D01*
X191610765Y-113922572D01*
X191604804Y-113898773D01*
X191601204Y-113874505D01*
X191600000Y-113850001D01*
X191600000Y-112949999D01*
X191601204Y-112925495D01*
X191604804Y-112901227D01*
X191610765Y-112877428D01*
X191619030Y-112854329D01*
X191629520Y-112832150D01*
X191642132Y-112811107D01*
X191656747Y-112791401D01*
X191673223Y-112773223D01*
X191691401Y-112756747D01*
X191711107Y-112742132D01*
X191732150Y-112729520D01*
X191754329Y-112719030D01*
X191777428Y-112710765D01*
X191801227Y-112704804D01*
X191825495Y-112701204D01*
X191849999Y-112700000D01*
X192500001Y-112700000D01*
X192524505Y-112701204D01*
G37*
G04 #@! TD.AperFunction*
G04 #@! TA.AperFunction,SMDPad,CuDef*
G36*
X174874505Y-115301204D02*
G01*
X174898773Y-115304804D01*
X174922572Y-115310765D01*
X174945671Y-115319030D01*
X174967850Y-115329520D01*
X174988893Y-115342132D01*
X175008599Y-115356747D01*
X175026777Y-115373223D01*
X175043253Y-115391401D01*
X175057868Y-115411107D01*
X175070480Y-115432150D01*
X175080970Y-115454329D01*
X175089235Y-115477428D01*
X175095196Y-115501227D01*
X175098796Y-115525495D01*
X175100000Y-115549999D01*
X175100000Y-116450001D01*
X175098796Y-116474505D01*
X175095196Y-116498773D01*
X175089235Y-116522572D01*
X175080970Y-116545671D01*
X175070480Y-116567850D01*
X175057868Y-116588893D01*
X175043253Y-116608599D01*
X175026777Y-116626777D01*
X175008599Y-116643253D01*
X174988893Y-116657868D01*
X174967850Y-116670480D01*
X174945671Y-116680970D01*
X174922572Y-116689235D01*
X174898773Y-116695196D01*
X174874505Y-116698796D01*
X174850001Y-116700000D01*
X174199999Y-116700000D01*
X174175495Y-116698796D01*
X174151227Y-116695196D01*
X174127428Y-116689235D01*
X174104329Y-116680970D01*
X174082150Y-116670480D01*
X174061107Y-116657868D01*
X174041401Y-116643253D01*
X174023223Y-116626777D01*
X174006747Y-116608599D01*
X173992132Y-116588893D01*
X173979520Y-116567850D01*
X173969030Y-116545671D01*
X173960765Y-116522572D01*
X173954804Y-116498773D01*
X173951204Y-116474505D01*
X173950000Y-116450001D01*
X173950000Y-115549999D01*
X173951204Y-115525495D01*
X173954804Y-115501227D01*
X173960765Y-115477428D01*
X173969030Y-115454329D01*
X173979520Y-115432150D01*
X173992132Y-115411107D01*
X174006747Y-115391401D01*
X174023223Y-115373223D01*
X174041401Y-115356747D01*
X174061107Y-115342132D01*
X174082150Y-115329520D01*
X174104329Y-115319030D01*
X174127428Y-115310765D01*
X174151227Y-115304804D01*
X174175495Y-115301204D01*
X174199999Y-115300000D01*
X174850001Y-115300000D01*
X174874505Y-115301204D01*
G37*
G04 #@! TD.AperFunction*
G04 #@! TA.AperFunction,SMDPad,CuDef*
G36*
X172824505Y-115301204D02*
G01*
X172848773Y-115304804D01*
X172872572Y-115310765D01*
X172895671Y-115319030D01*
X172917850Y-115329520D01*
X172938893Y-115342132D01*
X172958599Y-115356747D01*
X172976777Y-115373223D01*
X172993253Y-115391401D01*
X173007868Y-115411107D01*
X173020480Y-115432150D01*
X173030970Y-115454329D01*
X173039235Y-115477428D01*
X173045196Y-115501227D01*
X173048796Y-115525495D01*
X173050000Y-115549999D01*
X173050000Y-116450001D01*
X173048796Y-116474505D01*
X173045196Y-116498773D01*
X173039235Y-116522572D01*
X173030970Y-116545671D01*
X173020480Y-116567850D01*
X173007868Y-116588893D01*
X172993253Y-116608599D01*
X172976777Y-116626777D01*
X172958599Y-116643253D01*
X172938893Y-116657868D01*
X172917850Y-116670480D01*
X172895671Y-116680970D01*
X172872572Y-116689235D01*
X172848773Y-116695196D01*
X172824505Y-116698796D01*
X172800001Y-116700000D01*
X172149999Y-116700000D01*
X172125495Y-116698796D01*
X172101227Y-116695196D01*
X172077428Y-116689235D01*
X172054329Y-116680970D01*
X172032150Y-116670480D01*
X172011107Y-116657868D01*
X171991401Y-116643253D01*
X171973223Y-116626777D01*
X171956747Y-116608599D01*
X171942132Y-116588893D01*
X171929520Y-116567850D01*
X171919030Y-116545671D01*
X171910765Y-116522572D01*
X171904804Y-116498773D01*
X171901204Y-116474505D01*
X171900000Y-116450001D01*
X171900000Y-115549999D01*
X171901204Y-115525495D01*
X171904804Y-115501227D01*
X171910765Y-115477428D01*
X171919030Y-115454329D01*
X171929520Y-115432150D01*
X171942132Y-115411107D01*
X171956747Y-115391401D01*
X171973223Y-115373223D01*
X171991401Y-115356747D01*
X172011107Y-115342132D01*
X172032150Y-115329520D01*
X172054329Y-115319030D01*
X172077428Y-115310765D01*
X172101227Y-115304804D01*
X172125495Y-115301204D01*
X172149999Y-115300000D01*
X172800001Y-115300000D01*
X172824505Y-115301204D01*
G37*
G04 #@! TD.AperFunction*
G04 #@! TA.AperFunction,SMDPad,CuDef*
G36*
X159474505Y-106401204D02*
G01*
X159498773Y-106404804D01*
X159522572Y-106410765D01*
X159545671Y-106419030D01*
X159567850Y-106429520D01*
X159588893Y-106442132D01*
X159608599Y-106456747D01*
X159626777Y-106473223D01*
X159643253Y-106491401D01*
X159657868Y-106511107D01*
X159670480Y-106532150D01*
X159680970Y-106554329D01*
X159689235Y-106577428D01*
X159695196Y-106601227D01*
X159698796Y-106625495D01*
X159700000Y-106649999D01*
X159700000Y-107300001D01*
X159698796Y-107324505D01*
X159695196Y-107348773D01*
X159689235Y-107372572D01*
X159680970Y-107395671D01*
X159670480Y-107417850D01*
X159657868Y-107438893D01*
X159643253Y-107458599D01*
X159626777Y-107476777D01*
X159608599Y-107493253D01*
X159588893Y-107507868D01*
X159567850Y-107520480D01*
X159545671Y-107530970D01*
X159522572Y-107539235D01*
X159498773Y-107545196D01*
X159474505Y-107548796D01*
X159450001Y-107550000D01*
X158549999Y-107550000D01*
X158525495Y-107548796D01*
X158501227Y-107545196D01*
X158477428Y-107539235D01*
X158454329Y-107530970D01*
X158432150Y-107520480D01*
X158411107Y-107507868D01*
X158391401Y-107493253D01*
X158373223Y-107476777D01*
X158356747Y-107458599D01*
X158342132Y-107438893D01*
X158329520Y-107417850D01*
X158319030Y-107395671D01*
X158310765Y-107372572D01*
X158304804Y-107348773D01*
X158301204Y-107324505D01*
X158300000Y-107300001D01*
X158300000Y-106649999D01*
X158301204Y-106625495D01*
X158304804Y-106601227D01*
X158310765Y-106577428D01*
X158319030Y-106554329D01*
X158329520Y-106532150D01*
X158342132Y-106511107D01*
X158356747Y-106491401D01*
X158373223Y-106473223D01*
X158391401Y-106456747D01*
X158411107Y-106442132D01*
X158432150Y-106429520D01*
X158454329Y-106419030D01*
X158477428Y-106410765D01*
X158501227Y-106404804D01*
X158525495Y-106401204D01*
X158549999Y-106400000D01*
X159450001Y-106400000D01*
X159474505Y-106401204D01*
G37*
G04 #@! TD.AperFunction*
G04 #@! TA.AperFunction,SMDPad,CuDef*
G36*
X159474505Y-108451204D02*
G01*
X159498773Y-108454804D01*
X159522572Y-108460765D01*
X159545671Y-108469030D01*
X159567850Y-108479520D01*
X159588893Y-108492132D01*
X159608599Y-108506747D01*
X159626777Y-108523223D01*
X159643253Y-108541401D01*
X159657868Y-108561107D01*
X159670480Y-108582150D01*
X159680970Y-108604329D01*
X159689235Y-108627428D01*
X159695196Y-108651227D01*
X159698796Y-108675495D01*
X159700000Y-108699999D01*
X159700000Y-109350001D01*
X159698796Y-109374505D01*
X159695196Y-109398773D01*
X159689235Y-109422572D01*
X159680970Y-109445671D01*
X159670480Y-109467850D01*
X159657868Y-109488893D01*
X159643253Y-109508599D01*
X159626777Y-109526777D01*
X159608599Y-109543253D01*
X159588893Y-109557868D01*
X159567850Y-109570480D01*
X159545671Y-109580970D01*
X159522572Y-109589235D01*
X159498773Y-109595196D01*
X159474505Y-109598796D01*
X159450001Y-109600000D01*
X158549999Y-109600000D01*
X158525495Y-109598796D01*
X158501227Y-109595196D01*
X158477428Y-109589235D01*
X158454329Y-109580970D01*
X158432150Y-109570480D01*
X158411107Y-109557868D01*
X158391401Y-109543253D01*
X158373223Y-109526777D01*
X158356747Y-109508599D01*
X158342132Y-109488893D01*
X158329520Y-109467850D01*
X158319030Y-109445671D01*
X158310765Y-109422572D01*
X158304804Y-109398773D01*
X158301204Y-109374505D01*
X158300000Y-109350001D01*
X158300000Y-108699999D01*
X158301204Y-108675495D01*
X158304804Y-108651227D01*
X158310765Y-108627428D01*
X158319030Y-108604329D01*
X158329520Y-108582150D01*
X158342132Y-108561107D01*
X158356747Y-108541401D01*
X158373223Y-108523223D01*
X158391401Y-108506747D01*
X158411107Y-108492132D01*
X158432150Y-108479520D01*
X158454329Y-108469030D01*
X158477428Y-108460765D01*
X158501227Y-108454804D01*
X158525495Y-108451204D01*
X158549999Y-108450000D01*
X159450001Y-108450000D01*
X159474505Y-108451204D01*
G37*
G04 #@! TD.AperFunction*
G04 #@! TA.AperFunction,SMDPad,CuDef*
G36*
X185174505Y-121901204D02*
G01*
X185198773Y-121904804D01*
X185222572Y-121910765D01*
X185245671Y-121919030D01*
X185267850Y-121929520D01*
X185288893Y-121942132D01*
X185308599Y-121956747D01*
X185326777Y-121973223D01*
X185343253Y-121991401D01*
X185357868Y-122011107D01*
X185370480Y-122032150D01*
X185380970Y-122054329D01*
X185389235Y-122077428D01*
X185395196Y-122101227D01*
X185398796Y-122125495D01*
X185400000Y-122149999D01*
X185400000Y-123050001D01*
X185398796Y-123074505D01*
X185395196Y-123098773D01*
X185389235Y-123122572D01*
X185380970Y-123145671D01*
X185370480Y-123167850D01*
X185357868Y-123188893D01*
X185343253Y-123208599D01*
X185326777Y-123226777D01*
X185308599Y-123243253D01*
X185288893Y-123257868D01*
X185267850Y-123270480D01*
X185245671Y-123280970D01*
X185222572Y-123289235D01*
X185198773Y-123295196D01*
X185174505Y-123298796D01*
X185150001Y-123300000D01*
X184499999Y-123300000D01*
X184475495Y-123298796D01*
X184451227Y-123295196D01*
X184427428Y-123289235D01*
X184404329Y-123280970D01*
X184382150Y-123270480D01*
X184361107Y-123257868D01*
X184341401Y-123243253D01*
X184323223Y-123226777D01*
X184306747Y-123208599D01*
X184292132Y-123188893D01*
X184279520Y-123167850D01*
X184269030Y-123145671D01*
X184260765Y-123122572D01*
X184254804Y-123098773D01*
X184251204Y-123074505D01*
X184250000Y-123050001D01*
X184250000Y-122149999D01*
X184251204Y-122125495D01*
X184254804Y-122101227D01*
X184260765Y-122077428D01*
X184269030Y-122054329D01*
X184279520Y-122032150D01*
X184292132Y-122011107D01*
X184306747Y-121991401D01*
X184323223Y-121973223D01*
X184341401Y-121956747D01*
X184361107Y-121942132D01*
X184382150Y-121929520D01*
X184404329Y-121919030D01*
X184427428Y-121910765D01*
X184451227Y-121904804D01*
X184475495Y-121901204D01*
X184499999Y-121900000D01*
X185150001Y-121900000D01*
X185174505Y-121901204D01*
G37*
G04 #@! TD.AperFunction*
G04 #@! TA.AperFunction,SMDPad,CuDef*
G36*
X183124505Y-121901204D02*
G01*
X183148773Y-121904804D01*
X183172572Y-121910765D01*
X183195671Y-121919030D01*
X183217850Y-121929520D01*
X183238893Y-121942132D01*
X183258599Y-121956747D01*
X183276777Y-121973223D01*
X183293253Y-121991401D01*
X183307868Y-122011107D01*
X183320480Y-122032150D01*
X183330970Y-122054329D01*
X183339235Y-122077428D01*
X183345196Y-122101227D01*
X183348796Y-122125495D01*
X183350000Y-122149999D01*
X183350000Y-123050001D01*
X183348796Y-123074505D01*
X183345196Y-123098773D01*
X183339235Y-123122572D01*
X183330970Y-123145671D01*
X183320480Y-123167850D01*
X183307868Y-123188893D01*
X183293253Y-123208599D01*
X183276777Y-123226777D01*
X183258599Y-123243253D01*
X183238893Y-123257868D01*
X183217850Y-123270480D01*
X183195671Y-123280970D01*
X183172572Y-123289235D01*
X183148773Y-123295196D01*
X183124505Y-123298796D01*
X183100001Y-123300000D01*
X182449999Y-123300000D01*
X182425495Y-123298796D01*
X182401227Y-123295196D01*
X182377428Y-123289235D01*
X182354329Y-123280970D01*
X182332150Y-123270480D01*
X182311107Y-123257868D01*
X182291401Y-123243253D01*
X182273223Y-123226777D01*
X182256747Y-123208599D01*
X182242132Y-123188893D01*
X182229520Y-123167850D01*
X182219030Y-123145671D01*
X182210765Y-123122572D01*
X182204804Y-123098773D01*
X182201204Y-123074505D01*
X182200000Y-123050001D01*
X182200000Y-122149999D01*
X182201204Y-122125495D01*
X182204804Y-122101227D01*
X182210765Y-122077428D01*
X182219030Y-122054329D01*
X182229520Y-122032150D01*
X182242132Y-122011107D01*
X182256747Y-121991401D01*
X182273223Y-121973223D01*
X182291401Y-121956747D01*
X182311107Y-121942132D01*
X182332150Y-121929520D01*
X182354329Y-121919030D01*
X182377428Y-121910765D01*
X182401227Y-121904804D01*
X182425495Y-121901204D01*
X182449999Y-121900000D01*
X183100001Y-121900000D01*
X183124505Y-121901204D01*
G37*
G04 #@! TD.AperFunction*
G04 #@! TA.AperFunction,SMDPad,CuDef*
G36*
X181674505Y-104501204D02*
G01*
X181698773Y-104504804D01*
X181722572Y-104510765D01*
X181745671Y-104519030D01*
X181767850Y-104529520D01*
X181788893Y-104542132D01*
X181808599Y-104556747D01*
X181826777Y-104573223D01*
X181843253Y-104591401D01*
X181857868Y-104611107D01*
X181870480Y-104632150D01*
X181880970Y-104654329D01*
X181889235Y-104677428D01*
X181895196Y-104701227D01*
X181898796Y-104725495D01*
X181900000Y-104749999D01*
X181900000Y-105400001D01*
X181898796Y-105424505D01*
X181895196Y-105448773D01*
X181889235Y-105472572D01*
X181880970Y-105495671D01*
X181870480Y-105517850D01*
X181857868Y-105538893D01*
X181843253Y-105558599D01*
X181826777Y-105576777D01*
X181808599Y-105593253D01*
X181788893Y-105607868D01*
X181767850Y-105620480D01*
X181745671Y-105630970D01*
X181722572Y-105639235D01*
X181698773Y-105645196D01*
X181674505Y-105648796D01*
X181650001Y-105650000D01*
X180749999Y-105650000D01*
X180725495Y-105648796D01*
X180701227Y-105645196D01*
X180677428Y-105639235D01*
X180654329Y-105630970D01*
X180632150Y-105620480D01*
X180611107Y-105607868D01*
X180591401Y-105593253D01*
X180573223Y-105576777D01*
X180556747Y-105558599D01*
X180542132Y-105538893D01*
X180529520Y-105517850D01*
X180519030Y-105495671D01*
X180510765Y-105472572D01*
X180504804Y-105448773D01*
X180501204Y-105424505D01*
X180500000Y-105400001D01*
X180500000Y-104749999D01*
X180501204Y-104725495D01*
X180504804Y-104701227D01*
X180510765Y-104677428D01*
X180519030Y-104654329D01*
X180529520Y-104632150D01*
X180542132Y-104611107D01*
X180556747Y-104591401D01*
X180573223Y-104573223D01*
X180591401Y-104556747D01*
X180611107Y-104542132D01*
X180632150Y-104529520D01*
X180654329Y-104519030D01*
X180677428Y-104510765D01*
X180701227Y-104504804D01*
X180725495Y-104501204D01*
X180749999Y-104500000D01*
X181650001Y-104500000D01*
X181674505Y-104501204D01*
G37*
G04 #@! TD.AperFunction*
G04 #@! TA.AperFunction,SMDPad,CuDef*
G36*
X181674505Y-106551204D02*
G01*
X181698773Y-106554804D01*
X181722572Y-106560765D01*
X181745671Y-106569030D01*
X181767850Y-106579520D01*
X181788893Y-106592132D01*
X181808599Y-106606747D01*
X181826777Y-106623223D01*
X181843253Y-106641401D01*
X181857868Y-106661107D01*
X181870480Y-106682150D01*
X181880970Y-106704329D01*
X181889235Y-106727428D01*
X181895196Y-106751227D01*
X181898796Y-106775495D01*
X181900000Y-106799999D01*
X181900000Y-107450001D01*
X181898796Y-107474505D01*
X181895196Y-107498773D01*
X181889235Y-107522572D01*
X181880970Y-107545671D01*
X181870480Y-107567850D01*
X181857868Y-107588893D01*
X181843253Y-107608599D01*
X181826777Y-107626777D01*
X181808599Y-107643253D01*
X181788893Y-107657868D01*
X181767850Y-107670480D01*
X181745671Y-107680970D01*
X181722572Y-107689235D01*
X181698773Y-107695196D01*
X181674505Y-107698796D01*
X181650001Y-107700000D01*
X180749999Y-107700000D01*
X180725495Y-107698796D01*
X180701227Y-107695196D01*
X180677428Y-107689235D01*
X180654329Y-107680970D01*
X180632150Y-107670480D01*
X180611107Y-107657868D01*
X180591401Y-107643253D01*
X180573223Y-107626777D01*
X180556747Y-107608599D01*
X180542132Y-107588893D01*
X180529520Y-107567850D01*
X180519030Y-107545671D01*
X180510765Y-107522572D01*
X180504804Y-107498773D01*
X180501204Y-107474505D01*
X180500000Y-107450001D01*
X180500000Y-106799999D01*
X180501204Y-106775495D01*
X180504804Y-106751227D01*
X180510765Y-106727428D01*
X180519030Y-106704329D01*
X180529520Y-106682150D01*
X180542132Y-106661107D01*
X180556747Y-106641401D01*
X180573223Y-106623223D01*
X180591401Y-106606747D01*
X180611107Y-106592132D01*
X180632150Y-106579520D01*
X180654329Y-106569030D01*
X180677428Y-106560765D01*
X180701227Y-106554804D01*
X180725495Y-106551204D01*
X180749999Y-106550000D01*
X181650001Y-106550000D01*
X181674505Y-106551204D01*
G37*
G04 #@! TD.AperFunction*
G04 #@! TA.AperFunction,SMDPad,CuDef*
G36*
X185674505Y-104501204D02*
G01*
X185698773Y-104504804D01*
X185722572Y-104510765D01*
X185745671Y-104519030D01*
X185767850Y-104529520D01*
X185788893Y-104542132D01*
X185808599Y-104556747D01*
X185826777Y-104573223D01*
X185843253Y-104591401D01*
X185857868Y-104611107D01*
X185870480Y-104632150D01*
X185880970Y-104654329D01*
X185889235Y-104677428D01*
X185895196Y-104701227D01*
X185898796Y-104725495D01*
X185900000Y-104749999D01*
X185900000Y-105400001D01*
X185898796Y-105424505D01*
X185895196Y-105448773D01*
X185889235Y-105472572D01*
X185880970Y-105495671D01*
X185870480Y-105517850D01*
X185857868Y-105538893D01*
X185843253Y-105558599D01*
X185826777Y-105576777D01*
X185808599Y-105593253D01*
X185788893Y-105607868D01*
X185767850Y-105620480D01*
X185745671Y-105630970D01*
X185722572Y-105639235D01*
X185698773Y-105645196D01*
X185674505Y-105648796D01*
X185650001Y-105650000D01*
X184749999Y-105650000D01*
X184725495Y-105648796D01*
X184701227Y-105645196D01*
X184677428Y-105639235D01*
X184654329Y-105630970D01*
X184632150Y-105620480D01*
X184611107Y-105607868D01*
X184591401Y-105593253D01*
X184573223Y-105576777D01*
X184556747Y-105558599D01*
X184542132Y-105538893D01*
X184529520Y-105517850D01*
X184519030Y-105495671D01*
X184510765Y-105472572D01*
X184504804Y-105448773D01*
X184501204Y-105424505D01*
X184500000Y-105400001D01*
X184500000Y-104749999D01*
X184501204Y-104725495D01*
X184504804Y-104701227D01*
X184510765Y-104677428D01*
X184519030Y-104654329D01*
X184529520Y-104632150D01*
X184542132Y-104611107D01*
X184556747Y-104591401D01*
X184573223Y-104573223D01*
X184591401Y-104556747D01*
X184611107Y-104542132D01*
X184632150Y-104529520D01*
X184654329Y-104519030D01*
X184677428Y-104510765D01*
X184701227Y-104504804D01*
X184725495Y-104501204D01*
X184749999Y-104500000D01*
X185650001Y-104500000D01*
X185674505Y-104501204D01*
G37*
G04 #@! TD.AperFunction*
G04 #@! TA.AperFunction,SMDPad,CuDef*
G36*
X185674505Y-106551204D02*
G01*
X185698773Y-106554804D01*
X185722572Y-106560765D01*
X185745671Y-106569030D01*
X185767850Y-106579520D01*
X185788893Y-106592132D01*
X185808599Y-106606747D01*
X185826777Y-106623223D01*
X185843253Y-106641401D01*
X185857868Y-106661107D01*
X185870480Y-106682150D01*
X185880970Y-106704329D01*
X185889235Y-106727428D01*
X185895196Y-106751227D01*
X185898796Y-106775495D01*
X185900000Y-106799999D01*
X185900000Y-107450001D01*
X185898796Y-107474505D01*
X185895196Y-107498773D01*
X185889235Y-107522572D01*
X185880970Y-107545671D01*
X185870480Y-107567850D01*
X185857868Y-107588893D01*
X185843253Y-107608599D01*
X185826777Y-107626777D01*
X185808599Y-107643253D01*
X185788893Y-107657868D01*
X185767850Y-107670480D01*
X185745671Y-107680970D01*
X185722572Y-107689235D01*
X185698773Y-107695196D01*
X185674505Y-107698796D01*
X185650001Y-107700000D01*
X184749999Y-107700000D01*
X184725495Y-107698796D01*
X184701227Y-107695196D01*
X184677428Y-107689235D01*
X184654329Y-107680970D01*
X184632150Y-107670480D01*
X184611107Y-107657868D01*
X184591401Y-107643253D01*
X184573223Y-107626777D01*
X184556747Y-107608599D01*
X184542132Y-107588893D01*
X184529520Y-107567850D01*
X184519030Y-107545671D01*
X184510765Y-107522572D01*
X184504804Y-107498773D01*
X184501204Y-107474505D01*
X184500000Y-107450001D01*
X184500000Y-106799999D01*
X184501204Y-106775495D01*
X184504804Y-106751227D01*
X184510765Y-106727428D01*
X184519030Y-106704329D01*
X184529520Y-106682150D01*
X184542132Y-106661107D01*
X184556747Y-106641401D01*
X184573223Y-106623223D01*
X184591401Y-106606747D01*
X184611107Y-106592132D01*
X184632150Y-106579520D01*
X184654329Y-106569030D01*
X184677428Y-106560765D01*
X184701227Y-106554804D01*
X184725495Y-106551204D01*
X184749999Y-106550000D01*
X185650001Y-106550000D01*
X185674505Y-106551204D01*
G37*
G04 #@! TD.AperFunction*
D13*
X163080000Y-121460000D03*
X163080000Y-124000000D03*
X160540000Y-121460000D03*
X160540000Y-124000000D03*
X158000000Y-121460000D03*
D14*
X158000000Y-124000000D03*
D15*
X178100000Y-112000000D03*
X178100000Y-116000000D03*
X183900000Y-112000000D03*
X183900000Y-116000000D03*
D16*
X161200000Y-119000000D03*
X156800000Y-119000000D03*
X197200000Y-112659998D03*
X163150000Y-116950002D03*
X159341848Y-117008152D03*
X179400000Y-114600000D03*
X197600000Y-105400000D03*
X197600000Y-107600000D03*
X199600000Y-119000000D03*
X203900000Y-119900000D03*
X196100000Y-120800000D03*
X196100000Y-112000000D03*
X189650000Y-120300000D03*
X172100000Y-121850000D03*
X202000000Y-105400000D03*
X193200000Y-105200000D03*
X167000000Y-123600000D03*
X167229847Y-120220153D03*
X194400000Y-106200000D03*
X194400000Y-111200000D03*
X199400000Y-106200000D03*
X193000000Y-108600000D03*
X165200000Y-111600000D03*
X192600000Y-106400000D03*
X161800000Y-105200000D03*
X165600000Y-124325000D03*
X163275000Y-104475000D03*
X167000000Y-125050000D03*
X159587347Y-104787347D03*
X191587347Y-106412653D03*
X200187347Y-104612653D03*
D17*
X196010000Y-118485000D02*
X196010000Y-117725000D01*
X197300000Y-119775000D02*
X196010000Y-118485000D01*
X198000000Y-119775000D02*
X197300000Y-119775000D01*
X196010000Y-116750000D02*
X196010000Y-117725000D01*
X196010000Y-115885000D02*
X196010000Y-116750000D01*
X194225000Y-114100000D02*
X196010000Y-115885000D01*
X194225000Y-113400000D02*
X194225000Y-114100000D01*
X178100000Y-112000000D02*
X171236410Y-112000000D01*
X164236410Y-119000000D02*
X161200000Y-119000000D01*
X171236410Y-112000000D02*
X164236410Y-119000000D01*
X156800000Y-120260000D02*
X158000000Y-121460000D01*
X156800000Y-119000000D02*
X156800000Y-120260000D01*
X194225000Y-113400000D02*
X196459998Y-113400000D01*
X196459998Y-113400000D02*
X197200000Y-112659998D01*
X163150000Y-116950002D02*
X159399998Y-116950002D01*
X159399998Y-116950002D02*
X159341848Y-117008152D01*
X197600000Y-105400000D02*
X197600000Y-105965685D01*
X197600000Y-105965685D02*
X197600000Y-107600000D01*
X196860000Y-121825000D02*
X196010000Y-122675000D01*
X198000000Y-121825000D02*
X196860000Y-121825000D01*
X189300000Y-105450000D02*
X188750000Y-105450000D01*
X189375001Y-106125001D02*
X189375001Y-105525001D01*
X189375001Y-105525001D02*
X189300000Y-105450000D01*
X190000000Y-106750000D02*
X189375001Y-106125001D01*
X190650000Y-106750000D02*
X190000000Y-106750000D01*
X190650000Y-106750000D02*
X189800000Y-106750000D01*
X163080000Y-121460000D02*
X164282081Y-121460000D01*
X163080000Y-121460000D02*
X171710000Y-121460000D01*
X171710000Y-121460000D02*
X172100000Y-121850000D01*
X169200000Y-109600000D02*
X169200000Y-109025000D01*
X164800000Y-114000000D02*
X169200000Y-109600000D01*
X162600000Y-114000000D02*
X164800000Y-114000000D01*
X161350000Y-115800000D02*
X160000000Y-114450000D01*
X162600000Y-115800000D02*
X161350000Y-115800000D01*
X161500000Y-109025000D02*
X162200000Y-109025000D01*
X160000000Y-110525000D02*
X161500000Y-109025000D01*
X160000000Y-114450000D02*
X160000000Y-110525000D01*
X162600000Y-111400000D02*
X162600000Y-112200000D01*
X162600000Y-111325000D02*
X162600000Y-111400000D01*
X164900000Y-109025000D02*
X162600000Y-111325000D01*
X165600000Y-109025000D02*
X164900000Y-109025000D01*
X188750000Y-107210000D02*
X186160000Y-109800000D01*
X188750000Y-106750000D02*
X188750000Y-107210000D01*
X186160000Y-109800000D02*
X172800000Y-109800000D01*
X172800000Y-109800000D02*
X164400000Y-118200000D01*
X159400000Y-118200000D02*
X157800000Y-116600000D01*
X157800000Y-116600000D02*
X157800000Y-115800000D01*
X164400000Y-118200000D02*
X159400000Y-118200000D01*
X157800000Y-115800000D02*
X157800000Y-114000000D01*
X157800000Y-114000000D02*
X157800000Y-112200000D01*
X204275000Y-115925000D02*
X204275000Y-114125000D01*
X204275000Y-112325000D02*
X204275000Y-114125000D01*
X204275000Y-111525000D02*
X204525010Y-111274990D01*
X204275000Y-112325000D02*
X204275000Y-111525000D01*
X204525010Y-111274990D02*
X204525010Y-106911820D01*
X204525010Y-106911820D02*
X203013190Y-105400000D01*
X203013190Y-105400000D02*
X202000000Y-105400000D01*
X190900000Y-105200000D02*
X190650000Y-105450000D01*
X193200000Y-105200000D02*
X190900000Y-105200000D01*
X200725000Y-115925000D02*
X201800000Y-114850000D01*
X199475000Y-115925000D02*
X200725000Y-115925000D01*
X202800000Y-109525000D02*
X203500000Y-109525000D01*
X201800000Y-110525000D02*
X202800000Y-109525000D01*
X201800000Y-114850000D02*
X201800000Y-110525000D01*
X198225000Y-112325000D02*
X199475000Y-112325000D01*
X196000000Y-110100000D02*
X198225000Y-112325000D01*
X196000000Y-109525000D02*
X196000000Y-110100000D01*
X200800001Y-110125001D02*
X200200000Y-109525000D01*
X200800001Y-114049999D02*
X200800001Y-110125001D01*
X200725000Y-114125000D02*
X200800001Y-114049999D01*
X200200000Y-109525000D02*
X199500000Y-109525000D01*
X199475000Y-114125000D02*
X200725000Y-114125000D01*
X182775000Y-121900000D02*
X182775000Y-122600000D01*
X161715001Y-122024001D02*
X161715001Y-121085997D01*
X161104001Y-122635001D02*
X161715001Y-122024001D01*
X160001409Y-122635001D02*
X161104001Y-122635001D01*
X182450010Y-121575010D02*
X182775000Y-121900000D01*
X158636410Y-124000000D02*
X160001409Y-122635001D01*
X158000000Y-124000000D02*
X158636410Y-124000000D01*
X161715001Y-121085997D02*
X162515999Y-120284999D01*
X166221691Y-120284999D02*
X166886692Y-120950000D01*
X162515999Y-120284999D02*
X166221691Y-120284999D01*
X166886692Y-120950000D02*
X174336810Y-120950000D01*
X174336810Y-120950000D02*
X174961820Y-121575010D01*
X174961820Y-121575010D02*
X182450010Y-121575010D01*
X161815000Y-122725000D02*
X160540000Y-124000000D01*
X175650000Y-122725000D02*
X161815000Y-122725000D01*
X159690001Y-120610001D02*
X160540000Y-121460000D01*
X156474999Y-117394999D02*
X159690001Y-120610001D01*
X156539999Y-111324999D02*
X156474999Y-111389999D01*
X156474999Y-111389999D02*
X156474999Y-117394999D01*
X159060001Y-111324999D02*
X156539999Y-111324999D01*
X159549990Y-110149990D02*
X159549990Y-111814988D01*
X159549990Y-111814988D02*
X159060001Y-111324999D01*
X159000000Y-109600000D02*
X159549990Y-110149990D01*
X159000000Y-109025000D02*
X159000000Y-109600000D01*
X192200000Y-113425000D02*
X192175000Y-113400000D01*
X192200000Y-117725000D02*
X192200000Y-113425000D01*
X164282081Y-124000000D02*
X164682081Y-123600000D01*
X163080000Y-124000000D02*
X164282081Y-124000000D01*
X164682081Y-123600000D02*
X166400000Y-123600000D01*
X166400000Y-123600000D02*
X167000000Y-123600000D01*
X191575020Y-119324980D02*
X168275020Y-119324980D01*
X192200000Y-117725000D02*
X192200000Y-118700000D01*
X192200000Y-118700000D02*
X191575020Y-119324980D01*
X168275020Y-119324980D02*
X168125020Y-119324980D01*
X168125020Y-119324980D02*
X167229847Y-120220153D01*
X188200000Y-106100000D02*
X188750000Y-106100000D01*
X186274990Y-108025010D02*
X188200000Y-106100000D01*
X181900000Y-107125000D02*
X182800010Y-108025010D01*
X182800010Y-108025010D02*
X186274990Y-108025010D01*
X181200000Y-107125000D02*
X181900000Y-107125000D01*
X187800000Y-105225000D02*
X185900000Y-107125000D01*
X185900000Y-107125000D02*
X185200000Y-107125000D01*
X187800000Y-104600000D02*
X187800000Y-105225000D01*
X190100000Y-106100000D02*
X190000000Y-106000000D01*
X190650000Y-106100000D02*
X190100000Y-106100000D01*
X190000000Y-106000000D02*
X190000000Y-104600000D01*
X190000000Y-104600000D02*
X187800000Y-104600000D01*
X202800000Y-107475000D02*
X201525000Y-106200000D01*
X203500000Y-107475000D02*
X202800000Y-107475000D01*
X190930000Y-116750000D02*
X190930000Y-117725000D01*
X192786810Y-111200000D02*
X190930000Y-113056810D01*
X190930000Y-113056810D02*
X190930000Y-116750000D01*
X194400000Y-111200000D02*
X192786810Y-111200000D01*
X201525000Y-106200000D02*
X199400000Y-106200000D01*
X187349990Y-105038600D02*
X186388590Y-106000000D01*
X166000000Y-106000000D02*
X165600000Y-106400000D01*
X194400000Y-106200000D02*
X194400000Y-105326998D01*
X194400000Y-105326998D02*
X193222992Y-104149990D01*
X186388590Y-106000000D02*
X166000000Y-106000000D01*
X193222992Y-104149990D02*
X187613600Y-104149990D01*
X187349990Y-104413600D02*
X187349990Y-105038600D01*
X165600000Y-106400000D02*
X165600000Y-106975000D01*
X187613600Y-104149990D02*
X187349990Y-104413600D01*
X199500000Y-107475000D02*
X199500000Y-108050000D01*
X199500000Y-108050000D02*
X198925010Y-108624990D01*
X189660000Y-111740000D02*
X189660000Y-117725000D01*
X192775010Y-108624990D02*
X189660000Y-111740000D01*
X198925010Y-108624990D02*
X192775010Y-108624990D01*
X192775010Y-108624990D02*
X192975010Y-108624990D01*
X192975010Y-108624990D02*
X193000000Y-108600000D01*
X169200000Y-107034315D02*
X169200000Y-106975000D01*
X165200000Y-111034315D02*
X169200000Y-107034315D01*
X165200000Y-111600000D02*
X165200000Y-111034315D01*
X188690000Y-110710000D02*
X191925000Y-107475000D01*
X188690000Y-117425000D02*
X188690000Y-110710000D01*
X188390000Y-117725000D02*
X188690000Y-117425000D01*
X192525000Y-106475000D02*
X192600000Y-106400000D01*
X192525000Y-107475000D02*
X192525000Y-106475000D01*
X192525000Y-107475000D02*
X196000000Y-107475000D01*
X191925000Y-107475000D02*
X192525000Y-107475000D01*
X161800000Y-106575000D02*
X162000000Y-106775000D01*
X161800000Y-106575000D02*
X162200000Y-106975000D01*
X161800000Y-105200000D02*
X161800000Y-106575000D01*
X159000000Y-106400000D02*
X159000000Y-106975000D01*
X160200000Y-105200000D02*
X159000000Y-106400000D01*
X161800000Y-105200000D02*
X160200000Y-105200000D01*
X176350000Y-120675000D02*
X175650000Y-120675000D01*
X189660000Y-121700000D02*
X188635000Y-120675000D01*
X188635000Y-120675000D02*
X176350000Y-120675000D01*
X189660000Y-122675000D02*
X189660000Y-121700000D01*
X178100000Y-116000000D02*
X174525000Y-116000000D01*
X188390000Y-121700000D02*
X188390000Y-122675000D01*
X184900000Y-122675000D02*
X184825000Y-122600000D01*
X188390000Y-122675000D02*
X184900000Y-122675000D01*
X192200000Y-122675000D02*
X192200000Y-123650000D01*
X191525000Y-124325000D02*
X165600000Y-124325000D01*
X192200000Y-123650000D02*
X191525000Y-124325000D01*
X181200000Y-104500000D02*
X181200000Y-105075000D01*
X181175000Y-104475000D02*
X181200000Y-104500000D01*
X181175000Y-104475000D02*
X179400001Y-104475000D01*
X179400001Y-104475000D02*
X179400000Y-104474999D01*
X179400001Y-104475000D02*
X163275000Y-104475000D01*
X167274990Y-124775010D02*
X167000000Y-125050000D01*
X192344990Y-124775010D02*
X167274990Y-124775010D01*
X193470000Y-122675000D02*
X193470000Y-123650000D01*
X193470000Y-123650000D02*
X192344990Y-124775010D01*
X185200000Y-105075000D02*
X184475000Y-105075000D01*
X184475000Y-105075000D02*
X183600000Y-104200000D01*
X159987346Y-104387348D02*
X159587347Y-104787347D01*
X160624695Y-103749999D02*
X159987346Y-104387348D01*
X181463189Y-103749999D02*
X160624695Y-103749999D01*
X181913190Y-104200000D02*
X181463189Y-103749999D01*
X183600000Y-104200000D02*
X181913190Y-104200000D01*
X191587347Y-106907655D02*
X191587347Y-106412653D01*
X183900000Y-116000000D02*
X183900000Y-114595002D01*
X183900000Y-114595002D02*
X191587347Y-106907655D01*
X200200000Y-104600000D02*
X200187347Y-104612653D01*
X205600001Y-107350401D02*
X202849600Y-104600000D01*
X202849600Y-104600000D02*
X200200000Y-104600000D01*
X198751988Y-123975010D02*
X205226998Y-117500000D01*
X195065010Y-123975010D02*
X198751988Y-123975010D01*
X194740000Y-123650000D02*
X195065010Y-123975010D01*
X194740000Y-122675000D02*
X194740000Y-123650000D01*
X205600000Y-117500000D02*
X205600001Y-107350401D01*
X205226998Y-117500000D02*
X205600000Y-117500000D01*
D18*
G36*
X205540001Y-122726618D02*
G01*
X203126620Y-125140000D01*
X193054801Y-125140000D01*
X193981008Y-124213795D01*
X194010001Y-124190001D01*
X194023420Y-124173650D01*
X194057829Y-124155258D01*
X194105000Y-124116546D01*
X194152171Y-124155258D01*
X194186582Y-124173651D01*
X194200000Y-124190001D01*
X194228998Y-124213799D01*
X194501206Y-124486007D01*
X194525009Y-124515011D01*
X194640734Y-124609984D01*
X194772763Y-124680556D01*
X194916024Y-124724013D01*
X195065010Y-124738687D01*
X195102343Y-124735010D01*
X198714666Y-124735010D01*
X198751988Y-124738686D01*
X198789310Y-124735010D01*
X198789321Y-124735010D01*
X198900974Y-124724013D01*
X199044235Y-124680556D01*
X199176264Y-124609984D01*
X199291989Y-124515011D01*
X199315792Y-124486007D01*
X205540001Y-118261799D01*
X205540001Y-122726618D01*
G37*
X205540001Y-122726618D02*
X203126620Y-125140000D01*
X193054801Y-125140000D01*
X193981008Y-124213795D01*
X194010001Y-124190001D01*
X194023420Y-124173650D01*
X194057829Y-124155258D01*
X194105000Y-124116546D01*
X194152171Y-124155258D01*
X194186582Y-124173651D01*
X194200000Y-124190001D01*
X194228998Y-124213799D01*
X194501206Y-124486007D01*
X194525009Y-124515011D01*
X194640734Y-124609984D01*
X194772763Y-124680556D01*
X194916024Y-124724013D01*
X195065010Y-124738687D01*
X195102343Y-124735010D01*
X198714666Y-124735010D01*
X198751988Y-124738686D01*
X198789310Y-124735010D01*
X198789321Y-124735010D01*
X198900974Y-124724013D01*
X199044235Y-124680556D01*
X199176264Y-124609984D01*
X199291989Y-124515011D01*
X199315792Y-124486007D01*
X205540001Y-118261799D01*
X205540001Y-122726618D01*
G36*
X202876745Y-110721008D02*
G01*
X203049999Y-110738072D01*
X203765010Y-110738072D01*
X203765010Y-110960189D01*
X203763998Y-110961201D01*
X203735000Y-110984999D01*
X203711202Y-111013997D01*
X203711201Y-111013998D01*
X203640026Y-111100724D01*
X203620674Y-111136928D01*
X203275000Y-111136928D01*
X203150518Y-111149188D01*
X203030820Y-111185498D01*
X202920506Y-111244463D01*
X202823815Y-111323815D01*
X202744463Y-111420506D01*
X202685498Y-111530820D01*
X202649188Y-111650518D01*
X202636928Y-111775000D01*
X202636928Y-112875000D01*
X202649188Y-112999482D01*
X202685498Y-113119180D01*
X202742061Y-113225000D01*
X202685498Y-113330820D01*
X202649188Y-113450518D01*
X202636928Y-113575000D01*
X202636928Y-114675000D01*
X202649188Y-114799482D01*
X202685498Y-114919180D01*
X202742061Y-115025000D01*
X202685498Y-115130820D01*
X202649188Y-115250518D01*
X202636928Y-115375000D01*
X202636928Y-116475000D01*
X202649188Y-116599482D01*
X202685498Y-116719180D01*
X202744463Y-116829494D01*
X202823815Y-116926185D01*
X202920506Y-117005537D01*
X203030820Y-117064502D01*
X203150518Y-117100812D01*
X203275000Y-117113072D01*
X204539124Y-117113072D01*
X199337170Y-122315027D01*
X199335000Y-122110750D01*
X199176250Y-121952000D01*
X198127000Y-121952000D01*
X198127000Y-122876250D01*
X198285750Y-123035000D01*
X198614757Y-123037440D01*
X198437187Y-123215010D01*
X196946133Y-123215010D01*
X196945000Y-122960750D01*
X196786252Y-122802002D01*
X196808452Y-122802002D01*
X196848815Y-122851185D01*
X196945506Y-122930537D01*
X197055820Y-122989502D01*
X197175518Y-123025812D01*
X197300000Y-123038072D01*
X197714250Y-123035000D01*
X197873000Y-122876250D01*
X197873000Y-121952000D01*
X197853000Y-121952000D01*
X197853000Y-121698000D01*
X197873000Y-121698000D01*
X197873000Y-121678000D01*
X198127000Y-121678000D01*
X198127000Y-121698000D01*
X199176250Y-121698000D01*
X199335000Y-121539250D01*
X199338072Y-121250000D01*
X199325812Y-121125518D01*
X199289502Y-121005820D01*
X199230537Y-120895506D01*
X199151185Y-120798815D01*
X199071406Y-120733342D01*
X199077962Y-120727962D01*
X199188405Y-120593387D01*
X199270472Y-120439851D01*
X199321008Y-120273255D01*
X199338072Y-120100001D01*
X199338072Y-119449999D01*
X199321008Y-119276745D01*
X199270472Y-119110149D01*
X199188405Y-118956613D01*
X199077962Y-118822038D01*
X198943387Y-118711595D01*
X198789851Y-118629528D01*
X198623255Y-118578992D01*
X198450001Y-118561928D01*
X197549999Y-118561928D01*
X197376745Y-118578992D01*
X197224866Y-118625064D01*
X196948072Y-118348270D01*
X196948072Y-116900000D01*
X196932929Y-116746255D01*
X196888084Y-116598418D01*
X196815258Y-116462171D01*
X196770000Y-116407024D01*
X196770000Y-115922322D01*
X196773676Y-115884999D01*
X196770000Y-115847676D01*
X196770000Y-115847667D01*
X196759003Y-115736014D01*
X196715546Y-115592753D01*
X196644974Y-115460724D01*
X196550001Y-115344999D01*
X196521004Y-115321202D01*
X195374936Y-114175135D01*
X195379527Y-114160000D01*
X196422676Y-114160000D01*
X196459998Y-114163676D01*
X196497320Y-114160000D01*
X196497331Y-114160000D01*
X196608984Y-114149003D01*
X196752245Y-114105546D01*
X196884274Y-114034974D01*
X196999999Y-113940001D01*
X197023801Y-113910998D01*
X197239801Y-113694998D01*
X197301939Y-113694998D01*
X197501898Y-113655224D01*
X197690256Y-113577203D01*
X197847028Y-113472452D01*
X197836928Y-113575000D01*
X197836928Y-114675000D01*
X197849188Y-114799482D01*
X197885498Y-114919180D01*
X197942061Y-115025000D01*
X197885498Y-115130820D01*
X197849188Y-115250518D01*
X197836928Y-115375000D01*
X197836928Y-116475000D01*
X197849188Y-116599482D01*
X197885498Y-116719180D01*
X197944463Y-116829494D01*
X198023815Y-116926185D01*
X198120506Y-117005537D01*
X198230820Y-117064502D01*
X198350518Y-117100812D01*
X198475000Y-117113072D01*
X200475000Y-117113072D01*
X200599482Y-117100812D01*
X200719180Y-117064502D01*
X200829494Y-117005537D01*
X200926185Y-116926185D01*
X201005537Y-116829494D01*
X201064502Y-116719180D01*
X201100812Y-116599482D01*
X201102226Y-116585123D01*
X201149276Y-116559974D01*
X201265001Y-116465001D01*
X201288804Y-116435998D01*
X202311004Y-115413798D01*
X202340001Y-115390001D01*
X202434974Y-115274276D01*
X202505546Y-115142247D01*
X202549003Y-114998986D01*
X202560000Y-114887333D01*
X202560000Y-114887332D01*
X202563677Y-114850000D01*
X202560000Y-114812667D01*
X202560000Y-110839801D01*
X202724865Y-110674936D01*
X202876745Y-110721008D01*
G37*
X202876745Y-110721008D02*
X203049999Y-110738072D01*
X203765010Y-110738072D01*
X203765010Y-110960189D01*
X203763998Y-110961201D01*
X203735000Y-110984999D01*
X203711202Y-111013997D01*
X203711201Y-111013998D01*
X203640026Y-111100724D01*
X203620674Y-111136928D01*
X203275000Y-111136928D01*
X203150518Y-111149188D01*
X203030820Y-111185498D01*
X202920506Y-111244463D01*
X202823815Y-111323815D01*
X202744463Y-111420506D01*
X202685498Y-111530820D01*
X202649188Y-111650518D01*
X202636928Y-111775000D01*
X202636928Y-112875000D01*
X202649188Y-112999482D01*
X202685498Y-113119180D01*
X202742061Y-113225000D01*
X202685498Y-113330820D01*
X202649188Y-113450518D01*
X202636928Y-113575000D01*
X202636928Y-114675000D01*
X202649188Y-114799482D01*
X202685498Y-114919180D01*
X202742061Y-115025000D01*
X202685498Y-115130820D01*
X202649188Y-115250518D01*
X202636928Y-115375000D01*
X202636928Y-116475000D01*
X202649188Y-116599482D01*
X202685498Y-116719180D01*
X202744463Y-116829494D01*
X202823815Y-116926185D01*
X202920506Y-117005537D01*
X203030820Y-117064502D01*
X203150518Y-117100812D01*
X203275000Y-117113072D01*
X204539124Y-117113072D01*
X199337170Y-122315027D01*
X199335000Y-122110750D01*
X199176250Y-121952000D01*
X198127000Y-121952000D01*
X198127000Y-122876250D01*
X198285750Y-123035000D01*
X198614757Y-123037440D01*
X198437187Y-123215010D01*
X196946133Y-123215010D01*
X196945000Y-122960750D01*
X196786252Y-122802002D01*
X196808452Y-122802002D01*
X196848815Y-122851185D01*
X196945506Y-122930537D01*
X197055820Y-122989502D01*
X197175518Y-123025812D01*
X197300000Y-123038072D01*
X197714250Y-123035000D01*
X197873000Y-122876250D01*
X197873000Y-121952000D01*
X197853000Y-121952000D01*
X197853000Y-121698000D01*
X197873000Y-121698000D01*
X197873000Y-121678000D01*
X198127000Y-121678000D01*
X198127000Y-121698000D01*
X199176250Y-121698000D01*
X199335000Y-121539250D01*
X199338072Y-121250000D01*
X199325812Y-121125518D01*
X199289502Y-121005820D01*
X199230537Y-120895506D01*
X199151185Y-120798815D01*
X199071406Y-120733342D01*
X199077962Y-120727962D01*
X199188405Y-120593387D01*
X199270472Y-120439851D01*
X199321008Y-120273255D01*
X199338072Y-120100001D01*
X199338072Y-119449999D01*
X199321008Y-119276745D01*
X199270472Y-119110149D01*
X199188405Y-118956613D01*
X199077962Y-118822038D01*
X198943387Y-118711595D01*
X198789851Y-118629528D01*
X198623255Y-118578992D01*
X198450001Y-118561928D01*
X197549999Y-118561928D01*
X197376745Y-118578992D01*
X197224866Y-118625064D01*
X196948072Y-118348270D01*
X196948072Y-116900000D01*
X196932929Y-116746255D01*
X196888084Y-116598418D01*
X196815258Y-116462171D01*
X196770000Y-116407024D01*
X196770000Y-115922322D01*
X196773676Y-115884999D01*
X196770000Y-115847676D01*
X196770000Y-115847667D01*
X196759003Y-115736014D01*
X196715546Y-115592753D01*
X196644974Y-115460724D01*
X196550001Y-115344999D01*
X196521004Y-115321202D01*
X195374936Y-114175135D01*
X195379527Y-114160000D01*
X196422676Y-114160000D01*
X196459998Y-114163676D01*
X196497320Y-114160000D01*
X196497331Y-114160000D01*
X196608984Y-114149003D01*
X196752245Y-114105546D01*
X196884274Y-114034974D01*
X196999999Y-113940001D01*
X197023801Y-113910998D01*
X197239801Y-113694998D01*
X197301939Y-113694998D01*
X197501898Y-113655224D01*
X197690256Y-113577203D01*
X197847028Y-113472452D01*
X197836928Y-113575000D01*
X197836928Y-114675000D01*
X197849188Y-114799482D01*
X197885498Y-114919180D01*
X197942061Y-115025000D01*
X197885498Y-115130820D01*
X197849188Y-115250518D01*
X197836928Y-115375000D01*
X197836928Y-116475000D01*
X197849188Y-116599482D01*
X197885498Y-116719180D01*
X197944463Y-116829494D01*
X198023815Y-116926185D01*
X198120506Y-117005537D01*
X198230820Y-117064502D01*
X198350518Y-117100812D01*
X198475000Y-117113072D01*
X200475000Y-117113072D01*
X200599482Y-117100812D01*
X200719180Y-117064502D01*
X200829494Y-117005537D01*
X200926185Y-116926185D01*
X201005537Y-116829494D01*
X201064502Y-116719180D01*
X201100812Y-116599482D01*
X201102226Y-116585123D01*
X201149276Y-116559974D01*
X201265001Y-116465001D01*
X201288804Y-116435998D01*
X202311004Y-115413798D01*
X202340001Y-115390001D01*
X202434974Y-115274276D01*
X202505546Y-115142247D01*
X202549003Y-114998986D01*
X202560000Y-114887333D01*
X202560000Y-114887332D01*
X202563677Y-114850000D01*
X202560000Y-114812667D01*
X202560000Y-110839801D01*
X202724865Y-110674936D01*
X202876745Y-110721008D01*
G36*
X195422171Y-119205258D02*
G01*
X195558418Y-119278084D01*
X195706255Y-119322929D01*
X195780434Y-119330235D01*
X196674135Y-120223937D01*
X196678992Y-120273255D01*
X196729528Y-120439851D01*
X196811595Y-120593387D01*
X196922038Y-120727962D01*
X196928594Y-120733342D01*
X196848815Y-120798815D01*
X196769463Y-120895506D01*
X196710498Y-121005820D01*
X196674188Y-121125518D01*
X196669459Y-121173537D01*
X196664494Y-121169463D01*
X196554180Y-121110498D01*
X196434482Y-121074188D01*
X196310000Y-121061928D01*
X196295750Y-121065000D01*
X196137000Y-121223750D01*
X196137000Y-122548000D01*
X196157000Y-122548000D01*
X196157000Y-122802000D01*
X196137000Y-122802000D01*
X196137000Y-122822000D01*
X195883000Y-122822000D01*
X195883000Y-122802000D01*
X195863000Y-122802000D01*
X195863000Y-122548000D01*
X195883000Y-122548000D01*
X195883000Y-121223750D01*
X195724250Y-121065000D01*
X195710000Y-121061928D01*
X195585518Y-121074188D01*
X195465820Y-121110498D01*
X195355506Y-121169463D01*
X195325936Y-121193730D01*
X195191582Y-121121916D01*
X195043745Y-121077071D01*
X194890000Y-121061928D01*
X194590000Y-121061928D01*
X194436255Y-121077071D01*
X194288418Y-121121916D01*
X194152171Y-121194742D01*
X194105000Y-121233454D01*
X194057829Y-121194742D01*
X193921582Y-121121916D01*
X193773745Y-121077071D01*
X193620000Y-121061928D01*
X193320000Y-121061928D01*
X193166255Y-121077071D01*
X193018418Y-121121916D01*
X192882171Y-121194742D01*
X192835000Y-121233454D01*
X192787829Y-121194742D01*
X192651582Y-121121916D01*
X192503745Y-121077071D01*
X192350000Y-121061928D01*
X192050000Y-121061928D01*
X191896255Y-121077071D01*
X191748418Y-121121916D01*
X191612171Y-121194742D01*
X191565000Y-121233454D01*
X191517829Y-121194742D01*
X191381582Y-121121916D01*
X191233745Y-121077071D01*
X191080000Y-121061928D01*
X190780000Y-121061928D01*
X190626255Y-121077071D01*
X190478418Y-121121916D01*
X190342171Y-121194742D01*
X190295000Y-121233454D01*
X190247829Y-121194742D01*
X190213420Y-121176350D01*
X190200001Y-121159999D01*
X190171003Y-121136201D01*
X189198804Y-120164002D01*
X189175001Y-120134999D01*
X189114053Y-120084980D01*
X191537698Y-120084980D01*
X191575020Y-120088656D01*
X191612342Y-120084980D01*
X191612353Y-120084980D01*
X191724006Y-120073983D01*
X191867267Y-120030526D01*
X191999296Y-119959954D01*
X192115021Y-119864981D01*
X192138823Y-119835978D01*
X192711002Y-119263800D01*
X192740001Y-119240001D01*
X192753420Y-119223650D01*
X192787829Y-119205258D01*
X192835000Y-119166546D01*
X192882171Y-119205258D01*
X193018418Y-119278084D01*
X193166255Y-119322929D01*
X193320000Y-119338072D01*
X193620000Y-119338072D01*
X193773745Y-119322929D01*
X193921582Y-119278084D01*
X194057829Y-119205258D01*
X194105000Y-119166546D01*
X194152171Y-119205258D01*
X194288418Y-119278084D01*
X194436255Y-119322929D01*
X194590000Y-119338072D01*
X194890000Y-119338072D01*
X195043745Y-119322929D01*
X195191582Y-119278084D01*
X195327829Y-119205258D01*
X195375000Y-119166546D01*
X195422171Y-119205258D01*
G37*
X195422171Y-119205258D02*
X195558418Y-119278084D01*
X195706255Y-119322929D01*
X195780434Y-119330235D01*
X196674135Y-120223937D01*
X196678992Y-120273255D01*
X196729528Y-120439851D01*
X196811595Y-120593387D01*
X196922038Y-120727962D01*
X196928594Y-120733342D01*
X196848815Y-120798815D01*
X196769463Y-120895506D01*
X196710498Y-121005820D01*
X196674188Y-121125518D01*
X196669459Y-121173537D01*
X196664494Y-121169463D01*
X196554180Y-121110498D01*
X196434482Y-121074188D01*
X196310000Y-121061928D01*
X196295750Y-121065000D01*
X196137000Y-121223750D01*
X196137000Y-122548000D01*
X196157000Y-122548000D01*
X196157000Y-122802000D01*
X196137000Y-122802000D01*
X196137000Y-122822000D01*
X195883000Y-122822000D01*
X195883000Y-122802000D01*
X195863000Y-122802000D01*
X195863000Y-122548000D01*
X195883000Y-122548000D01*
X195883000Y-121223750D01*
X195724250Y-121065000D01*
X195710000Y-121061928D01*
X195585518Y-121074188D01*
X195465820Y-121110498D01*
X195355506Y-121169463D01*
X195325936Y-121193730D01*
X195191582Y-121121916D01*
X195043745Y-121077071D01*
X194890000Y-121061928D01*
X194590000Y-121061928D01*
X194436255Y-121077071D01*
X194288418Y-121121916D01*
X194152171Y-121194742D01*
X194105000Y-121233454D01*
X194057829Y-121194742D01*
X193921582Y-121121916D01*
X193773745Y-121077071D01*
X193620000Y-121061928D01*
X193320000Y-121061928D01*
X193166255Y-121077071D01*
X193018418Y-121121916D01*
X192882171Y-121194742D01*
X192835000Y-121233454D01*
X192787829Y-121194742D01*
X192651582Y-121121916D01*
X192503745Y-121077071D01*
X192350000Y-121061928D01*
X192050000Y-121061928D01*
X191896255Y-121077071D01*
X191748418Y-121121916D01*
X191612171Y-121194742D01*
X191565000Y-121233454D01*
X191517829Y-121194742D01*
X191381582Y-121121916D01*
X191233745Y-121077071D01*
X191080000Y-121061928D01*
X190780000Y-121061928D01*
X190626255Y-121077071D01*
X190478418Y-121121916D01*
X190342171Y-121194742D01*
X190295000Y-121233454D01*
X190247829Y-121194742D01*
X190213420Y-121176350D01*
X190200001Y-121159999D01*
X190171003Y-121136201D01*
X189198804Y-120164002D01*
X189175001Y-120134999D01*
X189114053Y-120084980D01*
X191537698Y-120084980D01*
X191575020Y-120088656D01*
X191612342Y-120084980D01*
X191612353Y-120084980D01*
X191724006Y-120073983D01*
X191867267Y-120030526D01*
X191999296Y-119959954D01*
X192115021Y-119864981D01*
X192138823Y-119835978D01*
X192711002Y-119263800D01*
X192740001Y-119240001D01*
X192753420Y-119223650D01*
X192787829Y-119205258D01*
X192835000Y-119166546D01*
X192882171Y-119205258D01*
X193018418Y-119278084D01*
X193166255Y-119322929D01*
X193320000Y-119338072D01*
X193620000Y-119338072D01*
X193773745Y-119322929D01*
X193921582Y-119278084D01*
X194057829Y-119205258D01*
X194105000Y-119166546D01*
X194152171Y-119205258D01*
X194288418Y-119278084D01*
X194436255Y-119322929D01*
X194590000Y-119338072D01*
X194890000Y-119338072D01*
X195043745Y-119322929D01*
X195191582Y-119278084D01*
X195327829Y-119205258D01*
X195375000Y-119166546D01*
X195422171Y-119205258D01*
G36*
X166322897Y-121461008D02*
G01*
X166346691Y-121490001D01*
X166375684Y-121513795D01*
X166375688Y-121513799D01*
X166446377Y-121571811D01*
X166462416Y-121584974D01*
X166594445Y-121655546D01*
X166737706Y-121699003D01*
X166849359Y-121710000D01*
X166849368Y-121710000D01*
X166886691Y-121713676D01*
X166924014Y-121710000D01*
X174022009Y-121710000D01*
X174277008Y-121965000D01*
X164468942Y-121965000D01*
X164521481Y-121816891D01*
X164400814Y-121587000D01*
X163207000Y-121587000D01*
X163207000Y-121607000D01*
X162953000Y-121607000D01*
X162953000Y-121587000D01*
X162933000Y-121587000D01*
X162933000Y-121333000D01*
X162953000Y-121333000D01*
X162953000Y-121313000D01*
X163207000Y-121313000D01*
X163207000Y-121333000D01*
X164400814Y-121333000D01*
X164521481Y-121103109D01*
X164500868Y-121044999D01*
X165906889Y-121044999D01*
X166322897Y-121461008D01*
G37*
X166322897Y-121461008D02*
X166346691Y-121490001D01*
X166375684Y-121513795D01*
X166375688Y-121513799D01*
X166446377Y-121571811D01*
X166462416Y-121584974D01*
X166594445Y-121655546D01*
X166737706Y-121699003D01*
X166849359Y-121710000D01*
X166849368Y-121710000D01*
X166886691Y-121713676D01*
X166924014Y-121710000D01*
X174022009Y-121710000D01*
X174277008Y-121965000D01*
X164468942Y-121965000D01*
X164521481Y-121816891D01*
X164400814Y-121587000D01*
X163207000Y-121587000D01*
X163207000Y-121607000D01*
X162953000Y-121607000D01*
X162953000Y-121587000D01*
X162933000Y-121587000D01*
X162933000Y-121333000D01*
X162953000Y-121333000D01*
X162953000Y-121313000D01*
X163207000Y-121313000D01*
X163207000Y-121333000D01*
X164400814Y-121333000D01*
X164521481Y-121103109D01*
X164500868Y-121044999D01*
X165906889Y-121044999D01*
X166322897Y-121461008D01*
G36*
X189715000Y-106755968D02*
G01*
X189715000Y-106877002D01*
X189829748Y-106877002D01*
X189715000Y-106991750D01*
X189727594Y-107100524D01*
X189766968Y-107219249D01*
X189828748Y-107328012D01*
X189910559Y-107422631D01*
X189959481Y-107460719D01*
X185936470Y-111483731D01*
X185925812Y-111375518D01*
X185889502Y-111255820D01*
X185830537Y-111145506D01*
X185751185Y-111048815D01*
X185654494Y-110969463D01*
X185544180Y-110910498D01*
X185424482Y-110874188D01*
X185300000Y-110861928D01*
X182500000Y-110861928D01*
X182375518Y-110874188D01*
X182255820Y-110910498D01*
X182145506Y-110969463D01*
X182048815Y-111048815D01*
X181969463Y-111145506D01*
X181910498Y-111255820D01*
X181874188Y-111375518D01*
X181861928Y-111500000D01*
X181861928Y-112500000D01*
X181874188Y-112624482D01*
X181910498Y-112744180D01*
X181969463Y-112854494D01*
X182048815Y-112951185D01*
X182145506Y-113030537D01*
X182255820Y-113089502D01*
X182375518Y-113125812D01*
X182500000Y-113138072D01*
X184282129Y-113138072D01*
X183388998Y-114031203D01*
X183360000Y-114055001D01*
X183336202Y-114083999D01*
X183336201Y-114084000D01*
X183265026Y-114170726D01*
X183194454Y-114302756D01*
X183167309Y-114392246D01*
X183157154Y-114425724D01*
X183150998Y-114446017D01*
X183136324Y-114595002D01*
X183140001Y-114632334D01*
X183140001Y-114861928D01*
X182500000Y-114861928D01*
X182375518Y-114874188D01*
X182255820Y-114910498D01*
X182145506Y-114969463D01*
X182048815Y-115048815D01*
X181969463Y-115145506D01*
X181910498Y-115255820D01*
X181874188Y-115375518D01*
X181861928Y-115500000D01*
X181861928Y-116500000D01*
X181874188Y-116624482D01*
X181910498Y-116744180D01*
X181969463Y-116854494D01*
X182048815Y-116951185D01*
X182145506Y-117030537D01*
X182255820Y-117089502D01*
X182375518Y-117125812D01*
X182500000Y-117138072D01*
X185300000Y-117138072D01*
X185424482Y-117125812D01*
X185544180Y-117089502D01*
X185654494Y-117030537D01*
X185751185Y-116951185D01*
X185830537Y-116854494D01*
X185889502Y-116744180D01*
X185925812Y-116624482D01*
X185938072Y-116500000D01*
X185938072Y-115500000D01*
X185925812Y-115375518D01*
X185889502Y-115255820D01*
X185830537Y-115145506D01*
X185751185Y-115048815D01*
X185654494Y-114969463D01*
X185544180Y-114910498D01*
X185424482Y-114874188D01*
X185300000Y-114861928D01*
X184707875Y-114861928D01*
X187930001Y-111639803D01*
X187930000Y-116176415D01*
X187802171Y-116244742D01*
X187682749Y-116342749D01*
X187584742Y-116462171D01*
X187511916Y-116598418D01*
X187467071Y-116746255D01*
X187451928Y-116900000D01*
X187451928Y-118550000D01*
X187453403Y-118564980D01*
X168162345Y-118564980D01*
X168125020Y-118561304D01*
X168087695Y-118564980D01*
X168087687Y-118564980D01*
X167976034Y-118575977D01*
X167832773Y-118619434D01*
X167700744Y-118690006D01*
X167585019Y-118784979D01*
X167561221Y-118813977D01*
X167190045Y-119185153D01*
X167127908Y-119185153D01*
X166927949Y-119224927D01*
X166739591Y-119302948D01*
X166570073Y-119416216D01*
X166431763Y-119554526D01*
X166370677Y-119535996D01*
X166259024Y-119524999D01*
X166259013Y-119524999D01*
X166221691Y-119521323D01*
X166184369Y-119524999D01*
X164788723Y-119524999D01*
X164800214Y-119510997D01*
X167611211Y-116700000D01*
X171261928Y-116700000D01*
X171274188Y-116824482D01*
X171310498Y-116944180D01*
X171369463Y-117054494D01*
X171448815Y-117151185D01*
X171545506Y-117230537D01*
X171655820Y-117289502D01*
X171775518Y-117325812D01*
X171900000Y-117338072D01*
X172189250Y-117335000D01*
X172348000Y-117176250D01*
X172348000Y-116127000D01*
X171423750Y-116127000D01*
X171265000Y-116285750D01*
X171261928Y-116700000D01*
X167611211Y-116700000D01*
X169011211Y-115300000D01*
X171261928Y-115300000D01*
X171265000Y-115714250D01*
X171423750Y-115873000D01*
X172348000Y-115873000D01*
X172348000Y-114823750D01*
X172602000Y-114823750D01*
X172602000Y-115873000D01*
X172622000Y-115873000D01*
X172622000Y-116127000D01*
X172602000Y-116127000D01*
X172602000Y-117176250D01*
X172760750Y-117335000D01*
X173050000Y-117338072D01*
X173174482Y-117325812D01*
X173294180Y-117289502D01*
X173404494Y-117230537D01*
X173501185Y-117151185D01*
X173566658Y-117071406D01*
X173572038Y-117077962D01*
X173706613Y-117188405D01*
X173860149Y-117270472D01*
X174026745Y-117321008D01*
X174199999Y-117338072D01*
X174850001Y-117338072D01*
X175023255Y-117321008D01*
X175189851Y-117270472D01*
X175343387Y-117188405D01*
X175477962Y-117077962D01*
X175588405Y-116943387D01*
X175670472Y-116789851D01*
X175679527Y-116760000D01*
X176118954Y-116760000D01*
X176169463Y-116854494D01*
X176248815Y-116951185D01*
X176345506Y-117030537D01*
X176455820Y-117089502D01*
X176575518Y-117125812D01*
X176700000Y-117138072D01*
X179500000Y-117138072D01*
X179624482Y-117125812D01*
X179744180Y-117089502D01*
X179854494Y-117030537D01*
X179951185Y-116951185D01*
X180030537Y-116854494D01*
X180089502Y-116744180D01*
X180125812Y-116624482D01*
X180138072Y-116500000D01*
X180138072Y-115500000D01*
X180125812Y-115375518D01*
X180089502Y-115255820D01*
X180030537Y-115145506D01*
X179951185Y-115048815D01*
X179854494Y-114969463D01*
X179744180Y-114910498D01*
X179624482Y-114874188D01*
X179500000Y-114861928D01*
X176700000Y-114861928D01*
X176575518Y-114874188D01*
X176455820Y-114910498D01*
X176345506Y-114969463D01*
X176248815Y-115048815D01*
X176169463Y-115145506D01*
X176118954Y-115240000D01*
X175679527Y-115240000D01*
X175670472Y-115210149D01*
X175588405Y-115056613D01*
X175477962Y-114922038D01*
X175343387Y-114811595D01*
X175189851Y-114729528D01*
X175023255Y-114678992D01*
X174850001Y-114661928D01*
X174199999Y-114661928D01*
X174026745Y-114678992D01*
X173860149Y-114729528D01*
X173706613Y-114811595D01*
X173572038Y-114922038D01*
X173566658Y-114928594D01*
X173501185Y-114848815D01*
X173404494Y-114769463D01*
X173294180Y-114710498D01*
X173174482Y-114674188D01*
X173050000Y-114661928D01*
X172760750Y-114665000D01*
X172602000Y-114823750D01*
X172348000Y-114823750D01*
X172189250Y-114665000D01*
X171900000Y-114661928D01*
X171775518Y-114674188D01*
X171655820Y-114710498D01*
X171545506Y-114769463D01*
X171448815Y-114848815D01*
X171369463Y-114945506D01*
X171310498Y-115055820D01*
X171274188Y-115175518D01*
X171261928Y-115300000D01*
X169011211Y-115300000D01*
X171551212Y-112760000D01*
X176118954Y-112760000D01*
X176169463Y-112854494D01*
X176248815Y-112951185D01*
X176345506Y-113030537D01*
X176455820Y-113089502D01*
X176575518Y-113125812D01*
X176700000Y-113138072D01*
X179500000Y-113138072D01*
X179624482Y-113125812D01*
X179744180Y-113089502D01*
X179854494Y-113030537D01*
X179951185Y-112951185D01*
X180030537Y-112854494D01*
X180089502Y-112744180D01*
X180125812Y-112624482D01*
X180138072Y-112500000D01*
X180138072Y-111500000D01*
X180125812Y-111375518D01*
X180089502Y-111255820D01*
X180030537Y-111145506D01*
X179951185Y-111048815D01*
X179854494Y-110969463D01*
X179744180Y-110910498D01*
X179624482Y-110874188D01*
X179500000Y-110861928D01*
X176700000Y-110861928D01*
X176575518Y-110874188D01*
X176455820Y-110910498D01*
X176345506Y-110969463D01*
X176248815Y-111048815D01*
X176169463Y-111145506D01*
X176118954Y-111240000D01*
X172434802Y-111240000D01*
X173114802Y-110560000D01*
X186122678Y-110560000D01*
X186160000Y-110563676D01*
X186197322Y-110560000D01*
X186197333Y-110560000D01*
X186308986Y-110549003D01*
X186452247Y-110505546D01*
X186584276Y-110434974D01*
X186700001Y-110340001D01*
X186723804Y-110310997D01*
X189261003Y-107773799D01*
X189290001Y-107750001D01*
X189345156Y-107682795D01*
X189384974Y-107634277D01*
X189455546Y-107502247D01*
X189468788Y-107458592D01*
X189477197Y-107430871D01*
X189501185Y-107411185D01*
X189580537Y-107314494D01*
X189639502Y-107204180D01*
X189675812Y-107084482D01*
X189688072Y-106960000D01*
X189688072Y-106741574D01*
X189715000Y-106755968D01*
G37*
X189715000Y-106755968D02*
X189715000Y-106877002D01*
X189829748Y-106877002D01*
X189715000Y-106991750D01*
X189727594Y-107100524D01*
X189766968Y-107219249D01*
X189828748Y-107328012D01*
X189910559Y-107422631D01*
X189959481Y-107460719D01*
X185936470Y-111483731D01*
X185925812Y-111375518D01*
X185889502Y-111255820D01*
X185830537Y-111145506D01*
X185751185Y-111048815D01*
X185654494Y-110969463D01*
X185544180Y-110910498D01*
X185424482Y-110874188D01*
X185300000Y-110861928D01*
X182500000Y-110861928D01*
X182375518Y-110874188D01*
X182255820Y-110910498D01*
X182145506Y-110969463D01*
X182048815Y-111048815D01*
X181969463Y-111145506D01*
X181910498Y-111255820D01*
X181874188Y-111375518D01*
X181861928Y-111500000D01*
X181861928Y-112500000D01*
X181874188Y-112624482D01*
X181910498Y-112744180D01*
X181969463Y-112854494D01*
X182048815Y-112951185D01*
X182145506Y-113030537D01*
X182255820Y-113089502D01*
X182375518Y-113125812D01*
X182500000Y-113138072D01*
X184282129Y-113138072D01*
X183388998Y-114031203D01*
X183360000Y-114055001D01*
X183336202Y-114083999D01*
X183336201Y-114084000D01*
X183265026Y-114170726D01*
X183194454Y-114302756D01*
X183167309Y-114392246D01*
X183157154Y-114425724D01*
X183150998Y-114446017D01*
X183136324Y-114595002D01*
X183140001Y-114632334D01*
X183140001Y-114861928D01*
X182500000Y-114861928D01*
X182375518Y-114874188D01*
X182255820Y-114910498D01*
X182145506Y-114969463D01*
X182048815Y-115048815D01*
X181969463Y-115145506D01*
X181910498Y-115255820D01*
X181874188Y-115375518D01*
X181861928Y-115500000D01*
X181861928Y-116500000D01*
X181874188Y-116624482D01*
X181910498Y-116744180D01*
X181969463Y-116854494D01*
X182048815Y-116951185D01*
X182145506Y-117030537D01*
X182255820Y-117089502D01*
X182375518Y-117125812D01*
X182500000Y-117138072D01*
X185300000Y-117138072D01*
X185424482Y-117125812D01*
X185544180Y-117089502D01*
X185654494Y-117030537D01*
X185751185Y-116951185D01*
X185830537Y-116854494D01*
X185889502Y-116744180D01*
X185925812Y-116624482D01*
X185938072Y-116500000D01*
X185938072Y-115500000D01*
X185925812Y-115375518D01*
X185889502Y-115255820D01*
X185830537Y-115145506D01*
X185751185Y-115048815D01*
X185654494Y-114969463D01*
X185544180Y-114910498D01*
X185424482Y-114874188D01*
X185300000Y-114861928D01*
X184707875Y-114861928D01*
X187930001Y-111639803D01*
X187930000Y-116176415D01*
X187802171Y-116244742D01*
X187682749Y-116342749D01*
X187584742Y-116462171D01*
X187511916Y-116598418D01*
X187467071Y-116746255D01*
X187451928Y-116900000D01*
X187451928Y-118550000D01*
X187453403Y-118564980D01*
X168162345Y-118564980D01*
X168125020Y-118561304D01*
X168087695Y-118564980D01*
X168087687Y-118564980D01*
X167976034Y-118575977D01*
X167832773Y-118619434D01*
X167700744Y-118690006D01*
X167585019Y-118784979D01*
X167561221Y-118813977D01*
X167190045Y-119185153D01*
X167127908Y-119185153D01*
X166927949Y-119224927D01*
X166739591Y-119302948D01*
X166570073Y-119416216D01*
X166431763Y-119554526D01*
X166370677Y-119535996D01*
X166259024Y-119524999D01*
X166259013Y-119524999D01*
X166221691Y-119521323D01*
X166184369Y-119524999D01*
X164788723Y-119524999D01*
X164800214Y-119510997D01*
X167611211Y-116700000D01*
X171261928Y-116700000D01*
X171274188Y-116824482D01*
X171310498Y-116944180D01*
X171369463Y-117054494D01*
X171448815Y-117151185D01*
X171545506Y-117230537D01*
X171655820Y-117289502D01*
X171775518Y-117325812D01*
X171900000Y-117338072D01*
X172189250Y-117335000D01*
X172348000Y-117176250D01*
X172348000Y-116127000D01*
X171423750Y-116127000D01*
X171265000Y-116285750D01*
X171261928Y-116700000D01*
X167611211Y-116700000D01*
X169011211Y-115300000D01*
X171261928Y-115300000D01*
X171265000Y-115714250D01*
X171423750Y-115873000D01*
X172348000Y-115873000D01*
X172348000Y-114823750D01*
X172602000Y-114823750D01*
X172602000Y-115873000D01*
X172622000Y-115873000D01*
X172622000Y-116127000D01*
X172602000Y-116127000D01*
X172602000Y-117176250D01*
X172760750Y-117335000D01*
X173050000Y-117338072D01*
X173174482Y-117325812D01*
X173294180Y-117289502D01*
X173404494Y-117230537D01*
X173501185Y-117151185D01*
X173566658Y-117071406D01*
X173572038Y-117077962D01*
X173706613Y-117188405D01*
X173860149Y-117270472D01*
X174026745Y-117321008D01*
X174199999Y-117338072D01*
X174850001Y-117338072D01*
X175023255Y-117321008D01*
X175189851Y-117270472D01*
X175343387Y-117188405D01*
X175477962Y-117077962D01*
X175588405Y-116943387D01*
X175670472Y-116789851D01*
X175679527Y-116760000D01*
X176118954Y-116760000D01*
X176169463Y-116854494D01*
X176248815Y-116951185D01*
X176345506Y-117030537D01*
X176455820Y-117089502D01*
X176575518Y-117125812D01*
X176700000Y-117138072D01*
X179500000Y-117138072D01*
X179624482Y-117125812D01*
X179744180Y-117089502D01*
X179854494Y-117030537D01*
X179951185Y-116951185D01*
X180030537Y-116854494D01*
X180089502Y-116744180D01*
X180125812Y-116624482D01*
X180138072Y-116500000D01*
X180138072Y-115500000D01*
X180125812Y-115375518D01*
X180089502Y-115255820D01*
X180030537Y-115145506D01*
X179951185Y-115048815D01*
X179854494Y-114969463D01*
X179744180Y-114910498D01*
X179624482Y-114874188D01*
X179500000Y-114861928D01*
X176700000Y-114861928D01*
X176575518Y-114874188D01*
X176455820Y-114910498D01*
X176345506Y-114969463D01*
X176248815Y-115048815D01*
X176169463Y-115145506D01*
X176118954Y-115240000D01*
X175679527Y-115240000D01*
X175670472Y-115210149D01*
X175588405Y-115056613D01*
X175477962Y-114922038D01*
X175343387Y-114811595D01*
X175189851Y-114729528D01*
X175023255Y-114678992D01*
X174850001Y-114661928D01*
X174199999Y-114661928D01*
X174026745Y-114678992D01*
X173860149Y-114729528D01*
X173706613Y-114811595D01*
X173572038Y-114922038D01*
X173566658Y-114928594D01*
X173501185Y-114848815D01*
X173404494Y-114769463D01*
X173294180Y-114710498D01*
X173174482Y-114674188D01*
X173050000Y-114661928D01*
X172760750Y-114665000D01*
X172602000Y-114823750D01*
X172348000Y-114823750D01*
X172189250Y-114665000D01*
X171900000Y-114661928D01*
X171775518Y-114674188D01*
X171655820Y-114710498D01*
X171545506Y-114769463D01*
X171448815Y-114848815D01*
X171369463Y-114945506D01*
X171310498Y-115055820D01*
X171274188Y-115175518D01*
X171261928Y-115300000D01*
X169011211Y-115300000D01*
X171551212Y-112760000D01*
X176118954Y-112760000D01*
X176169463Y-112854494D01*
X176248815Y-112951185D01*
X176345506Y-113030537D01*
X176455820Y-113089502D01*
X176575518Y-113125812D01*
X176700000Y-113138072D01*
X179500000Y-113138072D01*
X179624482Y-113125812D01*
X179744180Y-113089502D01*
X179854494Y-113030537D01*
X179951185Y-112951185D01*
X180030537Y-112854494D01*
X180089502Y-112744180D01*
X180125812Y-112624482D01*
X180138072Y-112500000D01*
X180138072Y-111500000D01*
X180125812Y-111375518D01*
X180089502Y-111255820D01*
X180030537Y-111145506D01*
X179951185Y-111048815D01*
X179854494Y-110969463D01*
X179744180Y-110910498D01*
X179624482Y-110874188D01*
X179500000Y-110861928D01*
X176700000Y-110861928D01*
X176575518Y-110874188D01*
X176455820Y-110910498D01*
X176345506Y-110969463D01*
X176248815Y-111048815D01*
X176169463Y-111145506D01*
X176118954Y-111240000D01*
X172434802Y-111240000D01*
X173114802Y-110560000D01*
X186122678Y-110560000D01*
X186160000Y-110563676D01*
X186197322Y-110560000D01*
X186197333Y-110560000D01*
X186308986Y-110549003D01*
X186452247Y-110505546D01*
X186584276Y-110434974D01*
X186700001Y-110340001D01*
X186723804Y-110310997D01*
X189261003Y-107773799D01*
X189290001Y-107750001D01*
X189345156Y-107682795D01*
X189384974Y-107634277D01*
X189455546Y-107502247D01*
X189468788Y-107458592D01*
X189477197Y-107430871D01*
X189501185Y-107411185D01*
X189580537Y-107314494D01*
X189639502Y-107204180D01*
X189675812Y-107084482D01*
X189688072Y-106960000D01*
X189688072Y-106741574D01*
X189715000Y-106755968D01*
G36*
X195376745Y-110721008D02*
G01*
X195549999Y-110738072D01*
X195563271Y-110738072D01*
X196624769Y-111799571D01*
X196540226Y-111856061D01*
X196396063Y-112000224D01*
X196282795Y-112169742D01*
X196204774Y-112358100D01*
X196165000Y-112558059D01*
X196165000Y-112620197D01*
X196145197Y-112640000D01*
X195379527Y-112640000D01*
X195370472Y-112610149D01*
X195288405Y-112456613D01*
X195177962Y-112322038D01*
X195043387Y-112211595D01*
X194889851Y-112129528D01*
X194872911Y-112124389D01*
X194890256Y-112117205D01*
X195059774Y-112003937D01*
X195203937Y-111859774D01*
X195317205Y-111690256D01*
X195395226Y-111501898D01*
X195435000Y-111301939D01*
X195435000Y-111098061D01*
X195395226Y-110898102D01*
X195317205Y-110709744D01*
X195311509Y-110701219D01*
X195376745Y-110721008D01*
G37*
X195376745Y-110721008D02*
X195549999Y-110738072D01*
X195563271Y-110738072D01*
X196624769Y-111799571D01*
X196540226Y-111856061D01*
X196396063Y-112000224D01*
X196282795Y-112169742D01*
X196204774Y-112358100D01*
X196165000Y-112558059D01*
X196165000Y-112620197D01*
X196145197Y-112640000D01*
X195379527Y-112640000D01*
X195370472Y-112610149D01*
X195288405Y-112456613D01*
X195177962Y-112322038D01*
X195043387Y-112211595D01*
X194889851Y-112129528D01*
X194872911Y-112124389D01*
X194890256Y-112117205D01*
X195059774Y-112003937D01*
X195203937Y-111859774D01*
X195317205Y-111690256D01*
X195395226Y-111501898D01*
X195435000Y-111301939D01*
X195435000Y-111098061D01*
X195395226Y-110898102D01*
X195317205Y-110709744D01*
X195311509Y-110701219D01*
X195376745Y-110721008D01*
G36*
X199383410Y-103952879D02*
G01*
X199270142Y-104122397D01*
X199192121Y-104310755D01*
X199152347Y-104510714D01*
X199152347Y-104714592D01*
X199192121Y-104914551D01*
X199270142Y-105102909D01*
X199311630Y-105165000D01*
X199298061Y-105165000D01*
X199098102Y-105204774D01*
X198909744Y-105282795D01*
X198740226Y-105396063D01*
X198596063Y-105540226D01*
X198482795Y-105709744D01*
X198404774Y-105898102D01*
X198365000Y-106098061D01*
X198365000Y-106301939D01*
X198404774Y-106501898D01*
X198416109Y-106529263D01*
X198311595Y-106656613D01*
X198229528Y-106810149D01*
X198178992Y-106976745D01*
X198161928Y-107149999D01*
X198161928Y-107800001D01*
X198168329Y-107864990D01*
X197331671Y-107864990D01*
X197338072Y-107800001D01*
X197338072Y-107149999D01*
X197321008Y-106976745D01*
X197270472Y-106810149D01*
X197188405Y-106656613D01*
X197077962Y-106522038D01*
X196943387Y-106411595D01*
X196789851Y-106329528D01*
X196623255Y-106278992D01*
X196450001Y-106261928D01*
X195549999Y-106261928D01*
X195435000Y-106273254D01*
X195435000Y-106098061D01*
X195395226Y-105898102D01*
X195317205Y-105709744D01*
X195203937Y-105540226D01*
X195160000Y-105496289D01*
X195160000Y-105364323D01*
X195163676Y-105326998D01*
X195160000Y-105289673D01*
X195160000Y-105289665D01*
X195149003Y-105178012D01*
X195105546Y-105034751D01*
X195034974Y-104902722D01*
X194940001Y-104786997D01*
X194911003Y-104763199D01*
X194007803Y-103860000D01*
X199476289Y-103860000D01*
X199383410Y-103952879D01*
G37*
X199383410Y-103952879D02*
X199270142Y-104122397D01*
X199192121Y-104310755D01*
X199152347Y-104510714D01*
X199152347Y-104714592D01*
X199192121Y-104914551D01*
X199270142Y-105102909D01*
X199311630Y-105165000D01*
X199298061Y-105165000D01*
X199098102Y-105204774D01*
X198909744Y-105282795D01*
X198740226Y-105396063D01*
X198596063Y-105540226D01*
X198482795Y-105709744D01*
X198404774Y-105898102D01*
X198365000Y-106098061D01*
X198365000Y-106301939D01*
X198404774Y-106501898D01*
X198416109Y-106529263D01*
X198311595Y-106656613D01*
X198229528Y-106810149D01*
X198178992Y-106976745D01*
X198161928Y-107149999D01*
X198161928Y-107800001D01*
X198168329Y-107864990D01*
X197331671Y-107864990D01*
X197338072Y-107800001D01*
X197338072Y-107149999D01*
X197321008Y-106976745D01*
X197270472Y-106810149D01*
X197188405Y-106656613D01*
X197077962Y-106522038D01*
X196943387Y-106411595D01*
X196789851Y-106329528D01*
X196623255Y-106278992D01*
X196450001Y-106261928D01*
X195549999Y-106261928D01*
X195435000Y-106273254D01*
X195435000Y-106098061D01*
X195395226Y-105898102D01*
X195317205Y-105709744D01*
X195203937Y-105540226D01*
X195160000Y-105496289D01*
X195160000Y-105364323D01*
X195163676Y-105326998D01*
X195160000Y-105289673D01*
X195160000Y-105289665D01*
X195149003Y-105178012D01*
X195105546Y-105034751D01*
X195034974Y-104902722D01*
X194940001Y-104786997D01*
X194911003Y-104763199D01*
X194007803Y-103860000D01*
X199476289Y-103860000D01*
X199383410Y-103952879D01*
M02*
